%TF.GenerationSoftware,KiCad,Pcbnew,10.0.5*%
%TF.CreationDate,2026-08-12T02:29:58+02:00*%
%TF.ProjectId,Keypad,4b657970-6164-42e6-9b69-6361645f7063,1.0*%
%TF.SameCoordinates,Original*%
%TF.FileFunction,Legend,Top*%
%TF.FilePolarity,Positive*%
%FSLAX46Y46*%
G04 Gerber Fmt 4.6, Leading zero omitted, Abs format (unit mm)*
G04 Created by KiCad (PCBNEW 10.0.5) date 2026-08-12 02:29:58*
%MOMM*%
%LPD*%
G01*
G04 APERTURE LIST*
%ADD10C,0.100000*%
%ADD11C,0.625000*%
%ADD12C,0.150000*%
%ADD13C,0.120000*%
G04 APERTURE END LIST*
D10*
G36*
X51798718Y-82930033D02*
G01*
X51665555Y-82912599D01*
X51544828Y-82860790D01*
X51440969Y-82779828D01*
X51360180Y-82675776D01*
X51308366Y-82554713D01*
X51290937Y-82421336D01*
X51290937Y-81000209D01*
X51308371Y-80866859D01*
X51360180Y-80745952D01*
X51441135Y-80641779D01*
X51545011Y-80560938D01*
X51665929Y-80508989D01*
X51799268Y-80491512D01*
X53764629Y-80491512D01*
X53764629Y-80836261D01*
X51799268Y-80836261D01*
X51736885Y-80848297D01*
X51683680Y-80884621D01*
X51647356Y-80937826D01*
X51635320Y-81000209D01*
X51635320Y-82421336D01*
X51647317Y-82483733D01*
X51683497Y-82536924D01*
X51736702Y-82573247D01*
X51799085Y-82585284D01*
X53770491Y-82585284D01*
X53770491Y-82930033D01*
X51798718Y-82930033D01*
G37*
G36*
X54218921Y-82930033D02*
G01*
X54218921Y-81000209D01*
X54236354Y-80866859D01*
X54288163Y-80745952D01*
X54368973Y-80641786D01*
X54472811Y-80560938D01*
X54593574Y-80508994D01*
X54726885Y-80491512D01*
X56094706Y-80491512D01*
X56094706Y-80836261D01*
X54727068Y-80836261D01*
X54664685Y-80848297D01*
X54611480Y-80884621D01*
X54575300Y-80937812D01*
X54563303Y-81000209D01*
X54563303Y-82930033D01*
X54218921Y-82930033D01*
G37*
G36*
X56875977Y-82930033D02*
G01*
X56742469Y-82912593D01*
X56621537Y-82860790D01*
X56517490Y-82779823D01*
X56436524Y-82675776D01*
X56384714Y-82554868D01*
X56367281Y-82421519D01*
X56367281Y-79694303D01*
X56711663Y-79694303D01*
X56711663Y-82421519D01*
X56723691Y-82483744D01*
X56760023Y-82536924D01*
X56813380Y-82573253D01*
X56875794Y-82585284D01*
X57287588Y-82585284D01*
X57287588Y-82930033D01*
X56875977Y-82930033D01*
G37*
G36*
X56631063Y-83949991D02*
G01*
X56631063Y-83605242D01*
X57657616Y-83605242D01*
X57719810Y-83593208D01*
X57772837Y-83556882D01*
X57809009Y-83503665D01*
X57821014Y-83441111D01*
X57821014Y-80491512D01*
X58165396Y-80491512D01*
X58165396Y-83437264D01*
X58147867Y-83574402D01*
X58096337Y-83695734D01*
X58015751Y-83799767D01*
X57912239Y-83880565D01*
X57791498Y-83932392D01*
X57655417Y-83949991D01*
X56631063Y-83949991D01*
G37*
G36*
X57821014Y-80039052D02*
G01*
X57821014Y-79694303D01*
X58165396Y-79694303D01*
X58165396Y-80039052D01*
X57821014Y-80039052D01*
G37*
G36*
X58635808Y-82930033D02*
G01*
X58635808Y-80491512D01*
X60612160Y-80491512D01*
X60745657Y-80508994D01*
X60866600Y-80560938D01*
X60970777Y-80641805D01*
X61051797Y-80745952D01*
X61103747Y-80866870D01*
X61121223Y-81000209D01*
X61121223Y-82930033D01*
X60776841Y-82930033D01*
X60776841Y-81000209D01*
X60764804Y-80937826D01*
X60728481Y-80884621D01*
X60675250Y-80848306D01*
X60612710Y-80836261D01*
X59148535Y-80836261D01*
X59085619Y-80848236D01*
X59030566Y-80884621D01*
X58992661Y-80937982D01*
X58980191Y-81000209D01*
X58980191Y-82930033D01*
X58635808Y-82930033D01*
G37*
G36*
X61557930Y-82930033D02*
G01*
X61557930Y-82585284D01*
X61902312Y-82585284D01*
X61902312Y-82930033D01*
X61557930Y-82930033D01*
G37*
G36*
X62963486Y-82930033D02*
G01*
X62829978Y-82912593D01*
X62709046Y-82860790D01*
X62604999Y-82779823D01*
X62524032Y-82675776D01*
X62472223Y-82554868D01*
X62454789Y-82421519D01*
X62454789Y-79694303D01*
X62799172Y-79694303D01*
X62799172Y-82421519D01*
X62811200Y-82483744D01*
X62847532Y-82536924D01*
X62900889Y-82573253D01*
X62963303Y-82585284D01*
X63375096Y-82585284D01*
X63375096Y-82930033D01*
X62963486Y-82930033D01*
G37*
G36*
X65782984Y-80509117D02*
G01*
X65904109Y-80560938D01*
X66007947Y-80641786D01*
X66088757Y-80745952D01*
X66140566Y-80866859D01*
X66157999Y-81000209D01*
X66157999Y-82930033D01*
X64187326Y-82930033D01*
X64054332Y-82912562D01*
X63933619Y-82860606D01*
X63829929Y-82779448D01*
X63749154Y-82675043D01*
X63697347Y-82553775D01*
X63679984Y-82420603D01*
X64024294Y-82420603D01*
X64036327Y-82483206D01*
X64072654Y-82536740D01*
X64125873Y-82573208D01*
X64188242Y-82585284D01*
X65813617Y-82585284D01*
X65813617Y-81879666D01*
X64024294Y-81879666D01*
X64024294Y-82420603D01*
X63679984Y-82420603D01*
X63679912Y-82420053D01*
X63679912Y-81534917D01*
X65813617Y-81534917D01*
X65813617Y-80999476D01*
X65801577Y-80937314D01*
X65765257Y-80884438D01*
X65712066Y-80848258D01*
X65649669Y-80836261D01*
X63679912Y-80836261D01*
X63679912Y-80491512D01*
X65646372Y-80491512D01*
X65782984Y-80509117D01*
G37*
G36*
X66832110Y-80491512D02*
G01*
X68464079Y-80491512D01*
X68597576Y-80508994D01*
X68718519Y-80560938D01*
X68822696Y-80641805D01*
X68903716Y-80745952D01*
X68955666Y-80866870D01*
X68973142Y-81000209D01*
X68973142Y-82421336D01*
X68955671Y-82554702D01*
X68903716Y-82675776D01*
X68822717Y-82779810D01*
X68718519Y-82860790D01*
X68597587Y-82912593D01*
X68464079Y-82930033D01*
X66487727Y-82930033D01*
X66487727Y-81000209D01*
X66832110Y-81000209D01*
X66832110Y-82421336D01*
X66844580Y-82483562D01*
X66882485Y-82536924D01*
X66937538Y-82573309D01*
X67000454Y-82585284D01*
X68464629Y-82585284D01*
X68527169Y-82573239D01*
X68580400Y-82536924D01*
X68616724Y-82483719D01*
X68628760Y-82421336D01*
X68628760Y-81000209D01*
X68616724Y-80937826D01*
X68580400Y-80884621D01*
X68527169Y-80848306D01*
X68464629Y-80836261D01*
X67000454Y-80836261D01*
X66937538Y-80848236D01*
X66882485Y-80884621D01*
X66844580Y-80937982D01*
X66832110Y-81000209D01*
X66487727Y-81000209D01*
X66487727Y-79694303D01*
X66832110Y-79694303D01*
X66832110Y-80491512D01*
G37*
G36*
X69770718Y-82930033D02*
G01*
X69637565Y-82912556D01*
X69516827Y-82860606D01*
X69413145Y-82779593D01*
X69332363Y-82675226D01*
X69280689Y-82553994D01*
X69263303Y-82420420D01*
X69263303Y-82386714D01*
X69607685Y-82386714D01*
X69607685Y-82420603D01*
X69619693Y-82483347D01*
X69655862Y-82536740D01*
X69709081Y-82573208D01*
X69771450Y-82585284D01*
X71233244Y-82585284D01*
X71295581Y-82573202D01*
X71348648Y-82536740D01*
X71384975Y-82483206D01*
X71397008Y-82420603D01*
X71397008Y-82044347D01*
X71384969Y-81981775D01*
X71348648Y-81928393D01*
X71295567Y-81891788D01*
X71233244Y-81879666D01*
X69771450Y-81879666D01*
X69638101Y-81862232D01*
X69517193Y-81810423D01*
X69413316Y-81729673D01*
X69332546Y-81625959D01*
X69280730Y-81505257D01*
X69263303Y-81372252D01*
X69263303Y-80998926D01*
X69280687Y-80865911D01*
X69332363Y-80745219D01*
X69413121Y-80641380D01*
X69516827Y-80560755D01*
X69637554Y-80508945D01*
X69770718Y-80491512D01*
X71229946Y-80491512D01*
X71366411Y-80509068D01*
X71487500Y-80560755D01*
X71591352Y-80641571D01*
X71672148Y-80745586D01*
X71723958Y-80866313D01*
X71741391Y-80999476D01*
X71741391Y-81032815D01*
X71397008Y-81032815D01*
X71397008Y-80999293D01*
X71384977Y-80937288D01*
X71348648Y-80884438D01*
X71295609Y-80848263D01*
X71233244Y-80836261D01*
X69771450Y-80836261D01*
X69709053Y-80848258D01*
X69655862Y-80884438D01*
X69619686Y-80937299D01*
X69607685Y-80999476D01*
X69607685Y-81371702D01*
X69619680Y-81433910D01*
X69655862Y-81486924D01*
X69708862Y-81522963D01*
X69771084Y-81534917D01*
X71229946Y-81534917D01*
X71366548Y-81552566D01*
X71487684Y-81604527D01*
X71591366Y-81685540D01*
X71672148Y-81789907D01*
X71723956Y-81911174D01*
X71741391Y-82044896D01*
X71741391Y-82420053D01*
X71723956Y-82553775D01*
X71672148Y-82675043D01*
X71591341Y-82779435D01*
X71487500Y-82860606D01*
X71366400Y-82912433D01*
X71229946Y-82930033D01*
X69770718Y-82930033D01*
G37*
D11*
G36*
X49815822Y-82051986D02*
G01*
X49815822Y-83429821D01*
X49834243Y-83562405D01*
X49889149Y-83682217D01*
X49984349Y-83793438D01*
X50157984Y-83921464D01*
X50314077Y-83982116D01*
X50314077Y-84135989D01*
X49534332Y-84464800D01*
X49387955Y-84383837D01*
X49246125Y-84258415D01*
X49141989Y-84111388D01*
X49112402Y-83989138D01*
X49112402Y-82289818D01*
X49093980Y-82157234D01*
X49039074Y-82037422D01*
X48943875Y-81926201D01*
X48770455Y-81798211D01*
X48614147Y-81737524D01*
X48614147Y-81583651D01*
X48770464Y-81522736D01*
X48943875Y-81394668D01*
X49039074Y-81283447D01*
X49093980Y-81163635D01*
X49112402Y-81031051D01*
X49112402Y-79241057D01*
X49137187Y-79120451D01*
X49217732Y-78996203D01*
X49327303Y-78889697D01*
X49429002Y-78821264D01*
X49534332Y-78765394D01*
X50314077Y-79094206D01*
X50314077Y-79247773D01*
X50157976Y-79308652D01*
X49984349Y-79436756D01*
X49889149Y-79547977D01*
X49834243Y-79667789D01*
X49815822Y-79800373D01*
X49815822Y-81261861D01*
X49789764Y-81384597D01*
X49703570Y-81515214D01*
X49534332Y-81660587D01*
X49704348Y-81805680D01*
X49790136Y-81933755D01*
X49815822Y-82051986D01*
G37*
D10*
G36*
X73209178Y-83429821D02*
G01*
X73209178Y-82051986D01*
X73234864Y-81933755D01*
X73320652Y-81805680D01*
X73490668Y-81660587D01*
X73321430Y-81515214D01*
X73235236Y-81384597D01*
X73209178Y-81261861D01*
X73209178Y-79800373D01*
X73190756Y-79667789D01*
X73135850Y-79547977D01*
X73040651Y-79436756D01*
X72867024Y-79308652D01*
X72710923Y-79247773D01*
X72710923Y-79094206D01*
X73490668Y-78765394D01*
X73637045Y-78846357D01*
X73778875Y-78971779D01*
X73882980Y-79118588D01*
X73912598Y-79241057D01*
X73912598Y-81031051D01*
X73930992Y-81163656D01*
X73985807Y-81283469D01*
X74080820Y-81394668D01*
X74254488Y-81522749D01*
X74410853Y-81583651D01*
X74410853Y-81737524D01*
X74254497Y-81798198D01*
X74080820Y-81926201D01*
X73985807Y-82037400D01*
X73930992Y-82157214D01*
X73912598Y-82289818D01*
X73912598Y-83989138D01*
X73887766Y-84109458D01*
X73806963Y-84233686D01*
X73697694Y-84340204D01*
X73596303Y-84408625D01*
X73490668Y-84464800D01*
X72710923Y-84135989D01*
X72710923Y-83982116D01*
X72867015Y-83921464D01*
X73040651Y-83793438D01*
X73135850Y-83682217D01*
X73190756Y-83562405D01*
X73209178Y-83429821D01*
G37*
X108762419Y-38498972D02*
X108762419Y-37927544D01*
X109762419Y-38213258D02*
X108762419Y-38213258D01*
X109238609Y-37260877D02*
X109238609Y-37594210D01*
X109762419Y-37594210D02*
X108762419Y-37594210D01*
X108762419Y-37594210D02*
X108762419Y-37118020D01*
X108762419Y-36879924D02*
X108762419Y-36308496D01*
X109762419Y-36594210D02*
X108762419Y-36594210D01*
X109762419Y-35213257D02*
X108762419Y-35213257D01*
X108762419Y-35213257D02*
X108762419Y-34975162D01*
X108762419Y-34975162D02*
X108810038Y-34832305D01*
X108810038Y-34832305D02*
X108905276Y-34737067D01*
X108905276Y-34737067D02*
X109000514Y-34689448D01*
X109000514Y-34689448D02*
X109190990Y-34641829D01*
X109190990Y-34641829D02*
X109333847Y-34641829D01*
X109333847Y-34641829D02*
X109524323Y-34689448D01*
X109524323Y-34689448D02*
X109619561Y-34737067D01*
X109619561Y-34737067D02*
X109714800Y-34832305D01*
X109714800Y-34832305D02*
X109762419Y-34975162D01*
X109762419Y-34975162D02*
X109762419Y-35213257D01*
X109762419Y-34213257D02*
X109095752Y-34213257D01*
X108762419Y-34213257D02*
X108810038Y-34260876D01*
X108810038Y-34260876D02*
X108857657Y-34213257D01*
X108857657Y-34213257D02*
X108810038Y-34165638D01*
X108810038Y-34165638D02*
X108762419Y-34213257D01*
X108762419Y-34213257D02*
X108857657Y-34213257D01*
X109714800Y-33784686D02*
X109762419Y-33689448D01*
X109762419Y-33689448D02*
X109762419Y-33498972D01*
X109762419Y-33498972D02*
X109714800Y-33403734D01*
X109714800Y-33403734D02*
X109619561Y-33356115D01*
X109619561Y-33356115D02*
X109571942Y-33356115D01*
X109571942Y-33356115D02*
X109476704Y-33403734D01*
X109476704Y-33403734D02*
X109429085Y-33498972D01*
X109429085Y-33498972D02*
X109429085Y-33641829D01*
X109429085Y-33641829D02*
X109381466Y-33737067D01*
X109381466Y-33737067D02*
X109286228Y-33784686D01*
X109286228Y-33784686D02*
X109238609Y-33784686D01*
X109238609Y-33784686D02*
X109143371Y-33737067D01*
X109143371Y-33737067D02*
X109095752Y-33641829D01*
X109095752Y-33641829D02*
X109095752Y-33498972D01*
X109095752Y-33498972D02*
X109143371Y-33403734D01*
X109095752Y-32927543D02*
X110095752Y-32927543D01*
X109143371Y-32927543D02*
X109095752Y-32832305D01*
X109095752Y-32832305D02*
X109095752Y-32641829D01*
X109095752Y-32641829D02*
X109143371Y-32546591D01*
X109143371Y-32546591D02*
X109190990Y-32498972D01*
X109190990Y-32498972D02*
X109286228Y-32451353D01*
X109286228Y-32451353D02*
X109571942Y-32451353D01*
X109571942Y-32451353D02*
X109667180Y-32498972D01*
X109667180Y-32498972D02*
X109714800Y-32546591D01*
X109714800Y-32546591D02*
X109762419Y-32641829D01*
X109762419Y-32641829D02*
X109762419Y-32832305D01*
X109762419Y-32832305D02*
X109714800Y-32927543D01*
X109762419Y-31879924D02*
X109714800Y-31975162D01*
X109714800Y-31975162D02*
X109619561Y-32022781D01*
X109619561Y-32022781D02*
X108762419Y-32022781D01*
X109762419Y-31070400D02*
X109238609Y-31070400D01*
X109238609Y-31070400D02*
X109143371Y-31118019D01*
X109143371Y-31118019D02*
X109095752Y-31213257D01*
X109095752Y-31213257D02*
X109095752Y-31403733D01*
X109095752Y-31403733D02*
X109143371Y-31498971D01*
X109714800Y-31070400D02*
X109762419Y-31165638D01*
X109762419Y-31165638D02*
X109762419Y-31403733D01*
X109762419Y-31403733D02*
X109714800Y-31498971D01*
X109714800Y-31498971D02*
X109619561Y-31546590D01*
X109619561Y-31546590D02*
X109524323Y-31546590D01*
X109524323Y-31546590D02*
X109429085Y-31498971D01*
X109429085Y-31498971D02*
X109381466Y-31403733D01*
X109381466Y-31403733D02*
X109381466Y-31165638D01*
X109381466Y-31165638D02*
X109333847Y-31070400D01*
X109095752Y-30689447D02*
X109762419Y-30451352D01*
X109095752Y-30213257D02*
X109762419Y-30451352D01*
X109762419Y-30451352D02*
X110000514Y-30546590D01*
X110000514Y-30546590D02*
X110048133Y-30594209D01*
X110048133Y-30594209D02*
X110095752Y-30689447D01*
X102777217Y-42458609D02*
X102920074Y-42506228D01*
X102920074Y-42506228D02*
X102967693Y-42553847D01*
X102967693Y-42553847D02*
X103015312Y-42649085D01*
X103015312Y-42649085D02*
X103015312Y-42791942D01*
X103015312Y-42791942D02*
X102967693Y-42887180D01*
X102967693Y-42887180D02*
X102920074Y-42934800D01*
X102920074Y-42934800D02*
X102824836Y-42982419D01*
X102824836Y-42982419D02*
X102443884Y-42982419D01*
X102443884Y-42982419D02*
X102443884Y-41982419D01*
X102443884Y-41982419D02*
X102777217Y-41982419D01*
X102777217Y-41982419D02*
X102872455Y-42030038D01*
X102872455Y-42030038D02*
X102920074Y-42077657D01*
X102920074Y-42077657D02*
X102967693Y-42172895D01*
X102967693Y-42172895D02*
X102967693Y-42268133D01*
X102967693Y-42268133D02*
X102920074Y-42363371D01*
X102920074Y-42363371D02*
X102872455Y-42410990D01*
X102872455Y-42410990D02*
X102777217Y-42458609D01*
X102777217Y-42458609D02*
X102443884Y-42458609D01*
X103920074Y-42982419D02*
X103443884Y-42982419D01*
X103443884Y-42982419D02*
X103443884Y-41982419D01*
X104253408Y-42982419D02*
X104253408Y-41982419D01*
X104824836Y-42982419D02*
X104396265Y-42410990D01*
X104824836Y-41982419D02*
X104253408Y-42553847D01*
X103015312Y-40375751D02*
X102967693Y-40423371D01*
X102967693Y-40423371D02*
X102824836Y-40470990D01*
X102824836Y-40470990D02*
X102729598Y-40470990D01*
X102729598Y-40470990D02*
X102586741Y-40423371D01*
X102586741Y-40423371D02*
X102491503Y-40328132D01*
X102491503Y-40328132D02*
X102443884Y-40232894D01*
X102443884Y-40232894D02*
X102396265Y-40042418D01*
X102396265Y-40042418D02*
X102396265Y-39899561D01*
X102396265Y-39899561D02*
X102443884Y-39709085D01*
X102443884Y-39709085D02*
X102491503Y-39613847D01*
X102491503Y-39613847D02*
X102586741Y-39518609D01*
X102586741Y-39518609D02*
X102729598Y-39470990D01*
X102729598Y-39470990D02*
X102824836Y-39470990D01*
X102824836Y-39470990D02*
X102967693Y-39518609D01*
X102967693Y-39518609D02*
X103015312Y-39566228D01*
X103396265Y-40423371D02*
X103539122Y-40470990D01*
X103539122Y-40470990D02*
X103777217Y-40470990D01*
X103777217Y-40470990D02*
X103872455Y-40423371D01*
X103872455Y-40423371D02*
X103920074Y-40375751D01*
X103920074Y-40375751D02*
X103967693Y-40280513D01*
X103967693Y-40280513D02*
X103967693Y-40185275D01*
X103967693Y-40185275D02*
X103920074Y-40090037D01*
X103920074Y-40090037D02*
X103872455Y-40042418D01*
X103872455Y-40042418D02*
X103777217Y-39994799D01*
X103777217Y-39994799D02*
X103586741Y-39947180D01*
X103586741Y-39947180D02*
X103491503Y-39899561D01*
X103491503Y-39899561D02*
X103443884Y-39851942D01*
X103443884Y-39851942D02*
X103396265Y-39756704D01*
X103396265Y-39756704D02*
X103396265Y-39661466D01*
X103396265Y-39661466D02*
X103443884Y-39566228D01*
X103443884Y-39566228D02*
X103491503Y-39518609D01*
X103491503Y-39518609D02*
X103586741Y-39470990D01*
X103586741Y-39470990D02*
X103824836Y-39470990D01*
X103824836Y-39470990D02*
X103967693Y-39518609D01*
X102443884Y-37959562D02*
X102443884Y-36959562D01*
X102443884Y-36959562D02*
X102681979Y-36959562D01*
X102681979Y-36959562D02*
X102824836Y-37007181D01*
X102824836Y-37007181D02*
X102920074Y-37102419D01*
X102920074Y-37102419D02*
X102967693Y-37197657D01*
X102967693Y-37197657D02*
X103015312Y-37388133D01*
X103015312Y-37388133D02*
X103015312Y-37530990D01*
X103015312Y-37530990D02*
X102967693Y-37721466D01*
X102967693Y-37721466D02*
X102920074Y-37816704D01*
X102920074Y-37816704D02*
X102824836Y-37911943D01*
X102824836Y-37911943D02*
X102681979Y-37959562D01*
X102681979Y-37959562D02*
X102443884Y-37959562D01*
X104015312Y-37864323D02*
X103967693Y-37911943D01*
X103967693Y-37911943D02*
X103824836Y-37959562D01*
X103824836Y-37959562D02*
X103729598Y-37959562D01*
X103729598Y-37959562D02*
X103586741Y-37911943D01*
X103586741Y-37911943D02*
X103491503Y-37816704D01*
X103491503Y-37816704D02*
X103443884Y-37721466D01*
X103443884Y-37721466D02*
X103396265Y-37530990D01*
X103396265Y-37530990D02*
X103396265Y-37388133D01*
X103396265Y-37388133D02*
X103443884Y-37197657D01*
X103443884Y-37197657D02*
X103491503Y-37102419D01*
X103491503Y-37102419D02*
X103586741Y-37007181D01*
X103586741Y-37007181D02*
X103729598Y-36959562D01*
X103729598Y-36959562D02*
X103824836Y-36959562D01*
X103824836Y-36959562D02*
X103967693Y-37007181D01*
X103967693Y-37007181D02*
X104015312Y-37054800D01*
X103015312Y-35448133D02*
X102681979Y-34971942D01*
X102443884Y-35448133D02*
X102443884Y-34448133D01*
X102443884Y-34448133D02*
X102824836Y-34448133D01*
X102824836Y-34448133D02*
X102920074Y-34495752D01*
X102920074Y-34495752D02*
X102967693Y-34543371D01*
X102967693Y-34543371D02*
X103015312Y-34638609D01*
X103015312Y-34638609D02*
X103015312Y-34781466D01*
X103015312Y-34781466D02*
X102967693Y-34876704D01*
X102967693Y-34876704D02*
X102920074Y-34924323D01*
X102920074Y-34924323D02*
X102824836Y-34971942D01*
X102824836Y-34971942D02*
X102443884Y-34971942D01*
X103443884Y-34924323D02*
X103777217Y-34924323D01*
X103920074Y-35448133D02*
X103443884Y-35448133D01*
X103443884Y-35448133D02*
X103443884Y-34448133D01*
X103443884Y-34448133D02*
X103920074Y-34448133D01*
X104301027Y-35400514D02*
X104443884Y-35448133D01*
X104443884Y-35448133D02*
X104681979Y-35448133D01*
X104681979Y-35448133D02*
X104777217Y-35400514D01*
X104777217Y-35400514D02*
X104824836Y-35352894D01*
X104824836Y-35352894D02*
X104872455Y-35257656D01*
X104872455Y-35257656D02*
X104872455Y-35162418D01*
X104872455Y-35162418D02*
X104824836Y-35067180D01*
X104824836Y-35067180D02*
X104777217Y-35019561D01*
X104777217Y-35019561D02*
X104681979Y-34971942D01*
X104681979Y-34971942D02*
X104491503Y-34924323D01*
X104491503Y-34924323D02*
X104396265Y-34876704D01*
X104396265Y-34876704D02*
X104348646Y-34829085D01*
X104348646Y-34829085D02*
X104301027Y-34733847D01*
X104301027Y-34733847D02*
X104301027Y-34638609D01*
X104301027Y-34638609D02*
X104348646Y-34543371D01*
X104348646Y-34543371D02*
X104396265Y-34495752D01*
X104396265Y-34495752D02*
X104491503Y-34448133D01*
X104491503Y-34448133D02*
X104729598Y-34448133D01*
X104729598Y-34448133D02*
X104872455Y-34495752D01*
X102396265Y-32889086D02*
X102539122Y-32936705D01*
X102539122Y-32936705D02*
X102777217Y-32936705D01*
X102777217Y-32936705D02*
X102872455Y-32889086D01*
X102872455Y-32889086D02*
X102920074Y-32841466D01*
X102920074Y-32841466D02*
X102967693Y-32746228D01*
X102967693Y-32746228D02*
X102967693Y-32650990D01*
X102967693Y-32650990D02*
X102920074Y-32555752D01*
X102920074Y-32555752D02*
X102872455Y-32508133D01*
X102872455Y-32508133D02*
X102777217Y-32460514D01*
X102777217Y-32460514D02*
X102586741Y-32412895D01*
X102586741Y-32412895D02*
X102491503Y-32365276D01*
X102491503Y-32365276D02*
X102443884Y-32317657D01*
X102443884Y-32317657D02*
X102396265Y-32222419D01*
X102396265Y-32222419D02*
X102396265Y-32127181D01*
X102396265Y-32127181D02*
X102443884Y-32031943D01*
X102443884Y-32031943D02*
X102491503Y-31984324D01*
X102491503Y-31984324D02*
X102586741Y-31936705D01*
X102586741Y-31936705D02*
X102824836Y-31936705D01*
X102824836Y-31936705D02*
X102967693Y-31984324D01*
X103396265Y-32936705D02*
X103396265Y-31936705D01*
X103396265Y-31936705D02*
X103634360Y-31936705D01*
X103634360Y-31936705D02*
X103777217Y-31984324D01*
X103777217Y-31984324D02*
X103872455Y-32079562D01*
X103872455Y-32079562D02*
X103920074Y-32174800D01*
X103920074Y-32174800D02*
X103967693Y-32365276D01*
X103967693Y-32365276D02*
X103967693Y-32508133D01*
X103967693Y-32508133D02*
X103920074Y-32698609D01*
X103920074Y-32698609D02*
X103872455Y-32793847D01*
X103872455Y-32793847D02*
X103777217Y-32889086D01*
X103777217Y-32889086D02*
X103634360Y-32936705D01*
X103634360Y-32936705D02*
X103396265Y-32936705D01*
X104348646Y-32650990D02*
X104824836Y-32650990D01*
X104253408Y-32936705D02*
X104586741Y-31936705D01*
X104586741Y-31936705D02*
X104920074Y-32936705D01*
X102396265Y-30377657D02*
X102539122Y-30425276D01*
X102539122Y-30425276D02*
X102777217Y-30425276D01*
X102777217Y-30425276D02*
X102872455Y-30377657D01*
X102872455Y-30377657D02*
X102920074Y-30330037D01*
X102920074Y-30330037D02*
X102967693Y-30234799D01*
X102967693Y-30234799D02*
X102967693Y-30139561D01*
X102967693Y-30139561D02*
X102920074Y-30044323D01*
X102920074Y-30044323D02*
X102872455Y-29996704D01*
X102872455Y-29996704D02*
X102777217Y-29949085D01*
X102777217Y-29949085D02*
X102586741Y-29901466D01*
X102586741Y-29901466D02*
X102491503Y-29853847D01*
X102491503Y-29853847D02*
X102443884Y-29806228D01*
X102443884Y-29806228D02*
X102396265Y-29710990D01*
X102396265Y-29710990D02*
X102396265Y-29615752D01*
X102396265Y-29615752D02*
X102443884Y-29520514D01*
X102443884Y-29520514D02*
X102491503Y-29472895D01*
X102491503Y-29472895D02*
X102586741Y-29425276D01*
X102586741Y-29425276D02*
X102824836Y-29425276D01*
X102824836Y-29425276D02*
X102967693Y-29472895D01*
X103967693Y-30330037D02*
X103920074Y-30377657D01*
X103920074Y-30377657D02*
X103777217Y-30425276D01*
X103777217Y-30425276D02*
X103681979Y-30425276D01*
X103681979Y-30425276D02*
X103539122Y-30377657D01*
X103539122Y-30377657D02*
X103443884Y-30282418D01*
X103443884Y-30282418D02*
X103396265Y-30187180D01*
X103396265Y-30187180D02*
X103348646Y-29996704D01*
X103348646Y-29996704D02*
X103348646Y-29853847D01*
X103348646Y-29853847D02*
X103396265Y-29663371D01*
X103396265Y-29663371D02*
X103443884Y-29568133D01*
X103443884Y-29568133D02*
X103539122Y-29472895D01*
X103539122Y-29472895D02*
X103681979Y-29425276D01*
X103681979Y-29425276D02*
X103777217Y-29425276D01*
X103777217Y-29425276D02*
X103920074Y-29472895D01*
X103920074Y-29472895D02*
X103967693Y-29520514D01*
X104872455Y-30425276D02*
X104396265Y-30425276D01*
X104396265Y-30425276D02*
X104396265Y-29425276D01*
X102301027Y-26913848D02*
X102634360Y-27913848D01*
X102634360Y-27913848D02*
X102967693Y-26913848D01*
X103872455Y-27818609D02*
X103824836Y-27866229D01*
X103824836Y-27866229D02*
X103681979Y-27913848D01*
X103681979Y-27913848D02*
X103586741Y-27913848D01*
X103586741Y-27913848D02*
X103443884Y-27866229D01*
X103443884Y-27866229D02*
X103348646Y-27770990D01*
X103348646Y-27770990D02*
X103301027Y-27675752D01*
X103301027Y-27675752D02*
X103253408Y-27485276D01*
X103253408Y-27485276D02*
X103253408Y-27342419D01*
X103253408Y-27342419D02*
X103301027Y-27151943D01*
X103301027Y-27151943D02*
X103348646Y-27056705D01*
X103348646Y-27056705D02*
X103443884Y-26961467D01*
X103443884Y-26961467D02*
X103586741Y-26913848D01*
X103586741Y-26913848D02*
X103681979Y-26913848D01*
X103681979Y-26913848D02*
X103824836Y-26961467D01*
X103824836Y-26961467D02*
X103872455Y-27009086D01*
X104872455Y-27818609D02*
X104824836Y-27866229D01*
X104824836Y-27866229D02*
X104681979Y-27913848D01*
X104681979Y-27913848D02*
X104586741Y-27913848D01*
X104586741Y-27913848D02*
X104443884Y-27866229D01*
X104443884Y-27866229D02*
X104348646Y-27770990D01*
X104348646Y-27770990D02*
X104301027Y-27675752D01*
X104301027Y-27675752D02*
X104253408Y-27485276D01*
X104253408Y-27485276D02*
X104253408Y-27342419D01*
X104253408Y-27342419D02*
X104301027Y-27151943D01*
X104301027Y-27151943D02*
X104348646Y-27056705D01*
X104348646Y-27056705D02*
X104443884Y-26961467D01*
X104443884Y-26961467D02*
X104586741Y-26913848D01*
X104586741Y-26913848D02*
X104681979Y-26913848D01*
X104681979Y-26913848D02*
X104824836Y-26961467D01*
X104824836Y-26961467D02*
X104872455Y-27009086D01*
X102967693Y-24450038D02*
X102872455Y-24402419D01*
X102872455Y-24402419D02*
X102729598Y-24402419D01*
X102729598Y-24402419D02*
X102586741Y-24450038D01*
X102586741Y-24450038D02*
X102491503Y-24545276D01*
X102491503Y-24545276D02*
X102443884Y-24640514D01*
X102443884Y-24640514D02*
X102396265Y-24830990D01*
X102396265Y-24830990D02*
X102396265Y-24973847D01*
X102396265Y-24973847D02*
X102443884Y-25164323D01*
X102443884Y-25164323D02*
X102491503Y-25259561D01*
X102491503Y-25259561D02*
X102586741Y-25354800D01*
X102586741Y-25354800D02*
X102729598Y-25402419D01*
X102729598Y-25402419D02*
X102824836Y-25402419D01*
X102824836Y-25402419D02*
X102967693Y-25354800D01*
X102967693Y-25354800D02*
X103015312Y-25307180D01*
X103015312Y-25307180D02*
X103015312Y-24973847D01*
X103015312Y-24973847D02*
X102824836Y-24973847D01*
X103443884Y-25402419D02*
X103443884Y-24402419D01*
X103443884Y-24402419D02*
X104015312Y-25402419D01*
X104015312Y-25402419D02*
X104015312Y-24402419D01*
X104491503Y-25402419D02*
X104491503Y-24402419D01*
X104491503Y-24402419D02*
X104729598Y-24402419D01*
X104729598Y-24402419D02*
X104872455Y-24450038D01*
X104872455Y-24450038D02*
X104967693Y-24545276D01*
X104967693Y-24545276D02*
X105015312Y-24640514D01*
X105015312Y-24640514D02*
X105062931Y-24830990D01*
X105062931Y-24830990D02*
X105062931Y-24973847D01*
X105062931Y-24973847D02*
X105015312Y-25164323D01*
X105015312Y-25164323D02*
X104967693Y-25259561D01*
X104967693Y-25259561D02*
X104872455Y-25354800D01*
X104872455Y-25354800D02*
X104729598Y-25402419D01*
X104729598Y-25402419D02*
X104491503Y-25402419D01*
X56085312Y-27797180D02*
X56037693Y-27844800D01*
X56037693Y-27844800D02*
X55894836Y-27892419D01*
X55894836Y-27892419D02*
X55799598Y-27892419D01*
X55799598Y-27892419D02*
X55656741Y-27844800D01*
X55656741Y-27844800D02*
X55561503Y-27749561D01*
X55561503Y-27749561D02*
X55513884Y-27654323D01*
X55513884Y-27654323D02*
X55466265Y-27463847D01*
X55466265Y-27463847D02*
X55466265Y-27320990D01*
X55466265Y-27320990D02*
X55513884Y-27130514D01*
X55513884Y-27130514D02*
X55561503Y-27035276D01*
X55561503Y-27035276D02*
X55656741Y-26940038D01*
X55656741Y-26940038D02*
X55799598Y-26892419D01*
X55799598Y-26892419D02*
X55894836Y-26892419D01*
X55894836Y-26892419D02*
X56037693Y-26940038D01*
X56037693Y-26940038D02*
X56085312Y-26987657D01*
X56990074Y-27892419D02*
X56513884Y-27892419D01*
X56513884Y-27892419D02*
X56513884Y-26892419D01*
X57323408Y-27892419D02*
X57323408Y-26892419D01*
X57894836Y-27892419D02*
X57466265Y-27320990D01*
X57894836Y-26892419D02*
X57323408Y-27463847D01*
X55513884Y-30502419D02*
X55513884Y-29502419D01*
X55513884Y-29502419D02*
X55751979Y-29502419D01*
X55751979Y-29502419D02*
X55894836Y-29550038D01*
X55894836Y-29550038D02*
X55990074Y-29645276D01*
X55990074Y-29645276D02*
X56037693Y-29740514D01*
X56037693Y-29740514D02*
X56085312Y-29930990D01*
X56085312Y-29930990D02*
X56085312Y-30073847D01*
X56085312Y-30073847D02*
X56037693Y-30264323D01*
X56037693Y-30264323D02*
X55990074Y-30359561D01*
X55990074Y-30359561D02*
X55894836Y-30454800D01*
X55894836Y-30454800D02*
X55751979Y-30502419D01*
X55751979Y-30502419D02*
X55513884Y-30502419D01*
X56371027Y-29502419D02*
X56942455Y-29502419D01*
X56656741Y-30502419D02*
X56656741Y-29502419D01*
X55466265Y-33064800D02*
X55609122Y-33112419D01*
X55609122Y-33112419D02*
X55847217Y-33112419D01*
X55847217Y-33112419D02*
X55942455Y-33064800D01*
X55942455Y-33064800D02*
X55990074Y-33017180D01*
X55990074Y-33017180D02*
X56037693Y-32921942D01*
X56037693Y-32921942D02*
X56037693Y-32826704D01*
X56037693Y-32826704D02*
X55990074Y-32731466D01*
X55990074Y-32731466D02*
X55942455Y-32683847D01*
X55942455Y-32683847D02*
X55847217Y-32636228D01*
X55847217Y-32636228D02*
X55656741Y-32588609D01*
X55656741Y-32588609D02*
X55561503Y-32540990D01*
X55561503Y-32540990D02*
X55513884Y-32493371D01*
X55513884Y-32493371D02*
X55466265Y-32398133D01*
X55466265Y-32398133D02*
X55466265Y-32302895D01*
X55466265Y-32302895D02*
X55513884Y-32207657D01*
X55513884Y-32207657D02*
X55561503Y-32160038D01*
X55561503Y-32160038D02*
X55656741Y-32112419D01*
X55656741Y-32112419D02*
X55894836Y-32112419D01*
X55894836Y-32112419D02*
X56037693Y-32160038D01*
X56371027Y-32112419D02*
X56609122Y-33112419D01*
X56609122Y-33112419D02*
X56799598Y-32398133D01*
X56799598Y-32398133D02*
X56990074Y-33112419D01*
X56990074Y-33112419D02*
X57228170Y-32112419D01*
X55513884Y-35341466D02*
X56275789Y-35341466D01*
X55894836Y-35722419D02*
X55894836Y-34960514D01*
X56037693Y-37380038D02*
X55942455Y-37332419D01*
X55942455Y-37332419D02*
X55799598Y-37332419D01*
X55799598Y-37332419D02*
X55656741Y-37380038D01*
X55656741Y-37380038D02*
X55561503Y-37475276D01*
X55561503Y-37475276D02*
X55513884Y-37570514D01*
X55513884Y-37570514D02*
X55466265Y-37760990D01*
X55466265Y-37760990D02*
X55466265Y-37903847D01*
X55466265Y-37903847D02*
X55513884Y-38094323D01*
X55513884Y-38094323D02*
X55561503Y-38189561D01*
X55561503Y-38189561D02*
X55656741Y-38284800D01*
X55656741Y-38284800D02*
X55799598Y-38332419D01*
X55799598Y-38332419D02*
X55894836Y-38332419D01*
X55894836Y-38332419D02*
X56037693Y-38284800D01*
X56037693Y-38284800D02*
X56085312Y-38237180D01*
X56085312Y-38237180D02*
X56085312Y-37903847D01*
X56085312Y-37903847D02*
X55894836Y-37903847D01*
X56513884Y-38332419D02*
X56513884Y-37332419D01*
X56513884Y-37332419D02*
X57085312Y-38332419D01*
X57085312Y-38332419D02*
X57085312Y-37332419D01*
X57561503Y-38332419D02*
X57561503Y-37332419D01*
X57561503Y-37332419D02*
X57799598Y-37332419D01*
X57799598Y-37332419D02*
X57942455Y-37380038D01*
X57942455Y-37380038D02*
X58037693Y-37475276D01*
X58037693Y-37475276D02*
X58085312Y-37570514D01*
X58085312Y-37570514D02*
X58132931Y-37760990D01*
X58132931Y-37760990D02*
X58132931Y-37903847D01*
X58132931Y-37903847D02*
X58085312Y-38094323D01*
X58085312Y-38094323D02*
X58037693Y-38189561D01*
X58037693Y-38189561D02*
X57942455Y-38284800D01*
X57942455Y-38284800D02*
X57799598Y-38332419D01*
X57799598Y-38332419D02*
X57561503Y-38332419D01*
X44065312Y-41072419D02*
X43731979Y-40596228D01*
X43493884Y-41072419D02*
X43493884Y-40072419D01*
X43493884Y-40072419D02*
X43874836Y-40072419D01*
X43874836Y-40072419D02*
X43970074Y-40120038D01*
X43970074Y-40120038D02*
X44017693Y-40167657D01*
X44017693Y-40167657D02*
X44065312Y-40262895D01*
X44065312Y-40262895D02*
X44065312Y-40405752D01*
X44065312Y-40405752D02*
X44017693Y-40500990D01*
X44017693Y-40500990D02*
X43970074Y-40548609D01*
X43970074Y-40548609D02*
X43874836Y-40596228D01*
X43874836Y-40596228D02*
X43493884Y-40596228D01*
X44636741Y-41072419D02*
X44541503Y-41024800D01*
X44541503Y-41024800D02*
X44493884Y-40977180D01*
X44493884Y-40977180D02*
X44446265Y-40881942D01*
X44446265Y-40881942D02*
X44446265Y-40596228D01*
X44446265Y-40596228D02*
X44493884Y-40500990D01*
X44493884Y-40500990D02*
X44541503Y-40453371D01*
X44541503Y-40453371D02*
X44636741Y-40405752D01*
X44636741Y-40405752D02*
X44779598Y-40405752D01*
X44779598Y-40405752D02*
X44874836Y-40453371D01*
X44874836Y-40453371D02*
X44922455Y-40500990D01*
X44922455Y-40500990D02*
X44970074Y-40596228D01*
X44970074Y-40596228D02*
X44970074Y-40881942D01*
X44970074Y-40881942D02*
X44922455Y-40977180D01*
X44922455Y-40977180D02*
X44874836Y-41024800D01*
X44874836Y-41024800D02*
X44779598Y-41072419D01*
X44779598Y-41072419D02*
X44636741Y-41072419D01*
X45255789Y-40405752D02*
X45636741Y-40405752D01*
X45398646Y-40072419D02*
X45398646Y-40929561D01*
X45398646Y-40929561D02*
X45446265Y-41024800D01*
X45446265Y-41024800D02*
X45541503Y-41072419D01*
X45541503Y-41072419D02*
X45636741Y-41072419D01*
X46398646Y-41072419D02*
X46398646Y-40548609D01*
X46398646Y-40548609D02*
X46351027Y-40453371D01*
X46351027Y-40453371D02*
X46255789Y-40405752D01*
X46255789Y-40405752D02*
X46065313Y-40405752D01*
X46065313Y-40405752D02*
X45970075Y-40453371D01*
X46398646Y-41024800D02*
X46303408Y-41072419D01*
X46303408Y-41072419D02*
X46065313Y-41072419D01*
X46065313Y-41072419D02*
X45970075Y-41024800D01*
X45970075Y-41024800D02*
X45922456Y-40929561D01*
X45922456Y-40929561D02*
X45922456Y-40834323D01*
X45922456Y-40834323D02*
X45970075Y-40739085D01*
X45970075Y-40739085D02*
X46065313Y-40691466D01*
X46065313Y-40691466D02*
X46303408Y-40691466D01*
X46303408Y-40691466D02*
X46398646Y-40643847D01*
X46874837Y-41072419D02*
X46874837Y-40405752D01*
X46874837Y-40596228D02*
X46922456Y-40500990D01*
X46922456Y-40500990D02*
X46970075Y-40453371D01*
X46970075Y-40453371D02*
X47065313Y-40405752D01*
X47065313Y-40405752D02*
X47160551Y-40405752D01*
X47398647Y-40405752D02*
X47636742Y-41072419D01*
X47874837Y-40405752D02*
X47636742Y-41072419D01*
X47636742Y-41072419D02*
X47541504Y-41310514D01*
X47541504Y-41310514D02*
X47493885Y-41358133D01*
X47493885Y-41358133D02*
X47398647Y-41405752D01*
X49017695Y-40548609D02*
X49351028Y-40548609D01*
X49493885Y-41072419D02*
X49017695Y-41072419D01*
X49017695Y-41072419D02*
X49017695Y-40072419D01*
X49017695Y-40072419D02*
X49493885Y-40072419D01*
X49922457Y-40405752D02*
X49922457Y-41072419D01*
X49922457Y-40500990D02*
X49970076Y-40453371D01*
X49970076Y-40453371D02*
X50065314Y-40405752D01*
X50065314Y-40405752D02*
X50208171Y-40405752D01*
X50208171Y-40405752D02*
X50303409Y-40453371D01*
X50303409Y-40453371D02*
X50351028Y-40548609D01*
X50351028Y-40548609D02*
X50351028Y-41072419D01*
X51255790Y-41024800D02*
X51160552Y-41072419D01*
X51160552Y-41072419D02*
X50970076Y-41072419D01*
X50970076Y-41072419D02*
X50874838Y-41024800D01*
X50874838Y-41024800D02*
X50827219Y-40977180D01*
X50827219Y-40977180D02*
X50779600Y-40881942D01*
X50779600Y-40881942D02*
X50779600Y-40596228D01*
X50779600Y-40596228D02*
X50827219Y-40500990D01*
X50827219Y-40500990D02*
X50874838Y-40453371D01*
X50874838Y-40453371D02*
X50970076Y-40405752D01*
X50970076Y-40405752D02*
X51160552Y-40405752D01*
X51160552Y-40405752D02*
X51255790Y-40453371D01*
X51827219Y-41072419D02*
X51731981Y-41024800D01*
X51731981Y-41024800D02*
X51684362Y-40977180D01*
X51684362Y-40977180D02*
X51636743Y-40881942D01*
X51636743Y-40881942D02*
X51636743Y-40596228D01*
X51636743Y-40596228D02*
X51684362Y-40500990D01*
X51684362Y-40500990D02*
X51731981Y-40453371D01*
X51731981Y-40453371D02*
X51827219Y-40405752D01*
X51827219Y-40405752D02*
X51970076Y-40405752D01*
X51970076Y-40405752D02*
X52065314Y-40453371D01*
X52065314Y-40453371D02*
X52112933Y-40500990D01*
X52112933Y-40500990D02*
X52160552Y-40596228D01*
X52160552Y-40596228D02*
X52160552Y-40881942D01*
X52160552Y-40881942D02*
X52112933Y-40977180D01*
X52112933Y-40977180D02*
X52065314Y-41024800D01*
X52065314Y-41024800D02*
X51970076Y-41072419D01*
X51970076Y-41072419D02*
X51827219Y-41072419D01*
X53017695Y-41072419D02*
X53017695Y-40072419D01*
X53017695Y-41024800D02*
X52922457Y-41072419D01*
X52922457Y-41072419D02*
X52731981Y-41072419D01*
X52731981Y-41072419D02*
X52636743Y-41024800D01*
X52636743Y-41024800D02*
X52589124Y-40977180D01*
X52589124Y-40977180D02*
X52541505Y-40881942D01*
X52541505Y-40881942D02*
X52541505Y-40596228D01*
X52541505Y-40596228D02*
X52589124Y-40500990D01*
X52589124Y-40500990D02*
X52636743Y-40453371D01*
X52636743Y-40453371D02*
X52731981Y-40405752D01*
X52731981Y-40405752D02*
X52922457Y-40405752D01*
X52922457Y-40405752D02*
X53017695Y-40453371D01*
X53874838Y-41024800D02*
X53779600Y-41072419D01*
X53779600Y-41072419D02*
X53589124Y-41072419D01*
X53589124Y-41072419D02*
X53493886Y-41024800D01*
X53493886Y-41024800D02*
X53446267Y-40929561D01*
X53446267Y-40929561D02*
X53446267Y-40548609D01*
X53446267Y-40548609D02*
X53493886Y-40453371D01*
X53493886Y-40453371D02*
X53589124Y-40405752D01*
X53589124Y-40405752D02*
X53779600Y-40405752D01*
X53779600Y-40405752D02*
X53874838Y-40453371D01*
X53874838Y-40453371D02*
X53922457Y-40548609D01*
X53922457Y-40548609D02*
X53922457Y-40643847D01*
X53922457Y-40643847D02*
X53446267Y-40739085D01*
X54351029Y-41072419D02*
X54351029Y-40405752D01*
X54351029Y-40596228D02*
X54398648Y-40500990D01*
X54398648Y-40500990D02*
X54446267Y-40453371D01*
X54446267Y-40453371D02*
X54541505Y-40405752D01*
X54541505Y-40405752D02*
X54636743Y-40405752D01*
D12*
X65906779Y-21159819D02*
X65906779Y-20159819D01*
X65906779Y-20159819D02*
X66240112Y-20874104D01*
X66240112Y-20874104D02*
X66573445Y-20159819D01*
X66573445Y-20159819D02*
X66573445Y-21159819D01*
X67002017Y-20255057D02*
X67049636Y-20207438D01*
X67049636Y-20207438D02*
X67144874Y-20159819D01*
X67144874Y-20159819D02*
X67382969Y-20159819D01*
X67382969Y-20159819D02*
X67478207Y-20207438D01*
X67478207Y-20207438D02*
X67525826Y-20255057D01*
X67525826Y-20255057D02*
X67573445Y-20350295D01*
X67573445Y-20350295D02*
X67573445Y-20445533D01*
X67573445Y-20445533D02*
X67525826Y-20588390D01*
X67525826Y-20588390D02*
X66954398Y-21159819D01*
X66954398Y-21159819D02*
X67573445Y-21159819D01*
X101716779Y-20869819D02*
X101716779Y-19869819D01*
X101716779Y-19869819D02*
X102050112Y-20584104D01*
X102050112Y-20584104D02*
X102383445Y-19869819D01*
X102383445Y-19869819D02*
X102383445Y-20869819D01*
X102812017Y-19965057D02*
X102859636Y-19917438D01*
X102859636Y-19917438D02*
X102954874Y-19869819D01*
X102954874Y-19869819D02*
X103192969Y-19869819D01*
X103192969Y-19869819D02*
X103288207Y-19917438D01*
X103288207Y-19917438D02*
X103335826Y-19965057D01*
X103335826Y-19965057D02*
X103383445Y-20060295D01*
X103383445Y-20060295D02*
X103383445Y-20155533D01*
X103383445Y-20155533D02*
X103335826Y-20298390D01*
X103335826Y-20298390D02*
X102764398Y-20869819D01*
X102764398Y-20869819D02*
X103383445Y-20869819D01*
X101436779Y-47379819D02*
X101436779Y-46379819D01*
X101436779Y-46379819D02*
X101770112Y-47094104D01*
X101770112Y-47094104D02*
X102103445Y-46379819D01*
X102103445Y-46379819D02*
X102103445Y-47379819D01*
X102532017Y-46475057D02*
X102579636Y-46427438D01*
X102579636Y-46427438D02*
X102674874Y-46379819D01*
X102674874Y-46379819D02*
X102912969Y-46379819D01*
X102912969Y-46379819D02*
X103008207Y-46427438D01*
X103008207Y-46427438D02*
X103055826Y-46475057D01*
X103055826Y-46475057D02*
X103103445Y-46570295D01*
X103103445Y-46570295D02*
X103103445Y-46665533D01*
X103103445Y-46665533D02*
X103055826Y-46808390D01*
X103055826Y-46808390D02*
X102484398Y-47379819D01*
X102484398Y-47379819D02*
X103103445Y-47379819D01*
X17036779Y-98479819D02*
X17036779Y-97479819D01*
X17036779Y-97479819D02*
X17370112Y-98194104D01*
X17370112Y-98194104D02*
X17703445Y-97479819D01*
X17703445Y-97479819D02*
X17703445Y-98479819D01*
X18084398Y-97479819D02*
X18703445Y-97479819D01*
X18703445Y-97479819D02*
X18370112Y-97860771D01*
X18370112Y-97860771D02*
X18512969Y-97860771D01*
X18512969Y-97860771D02*
X18608207Y-97908390D01*
X18608207Y-97908390D02*
X18655826Y-97956009D01*
X18655826Y-97956009D02*
X18703445Y-98051247D01*
X18703445Y-98051247D02*
X18703445Y-98289342D01*
X18703445Y-98289342D02*
X18655826Y-98384580D01*
X18655826Y-98384580D02*
X18608207Y-98432200D01*
X18608207Y-98432200D02*
X18512969Y-98479819D01*
X18512969Y-98479819D02*
X18227255Y-98479819D01*
X18227255Y-98479819D02*
X18132017Y-98432200D01*
X18132017Y-98432200D02*
X18084398Y-98384580D01*
X105506779Y-98699819D02*
X105506779Y-97699819D01*
X105506779Y-97699819D02*
X105840112Y-98414104D01*
X105840112Y-98414104D02*
X106173445Y-97699819D01*
X106173445Y-97699819D02*
X106173445Y-98699819D01*
X106554398Y-97699819D02*
X107173445Y-97699819D01*
X107173445Y-97699819D02*
X106840112Y-98080771D01*
X106840112Y-98080771D02*
X106982969Y-98080771D01*
X106982969Y-98080771D02*
X107078207Y-98128390D01*
X107078207Y-98128390D02*
X107125826Y-98176009D01*
X107125826Y-98176009D02*
X107173445Y-98271247D01*
X107173445Y-98271247D02*
X107173445Y-98509342D01*
X107173445Y-98509342D02*
X107125826Y-98604580D01*
X107125826Y-98604580D02*
X107078207Y-98652200D01*
X107078207Y-98652200D02*
X106982969Y-98699819D01*
X106982969Y-98699819D02*
X106697255Y-98699819D01*
X106697255Y-98699819D02*
X106602017Y-98652200D01*
X106602017Y-98652200D02*
X106554398Y-98604580D01*
X105236779Y-59149819D02*
X105236779Y-58149819D01*
X105236779Y-58149819D02*
X105570112Y-58864104D01*
X105570112Y-58864104D02*
X105903445Y-58149819D01*
X105903445Y-58149819D02*
X105903445Y-59149819D01*
X106284398Y-58149819D02*
X106903445Y-58149819D01*
X106903445Y-58149819D02*
X106570112Y-58530771D01*
X106570112Y-58530771D02*
X106712969Y-58530771D01*
X106712969Y-58530771D02*
X106808207Y-58578390D01*
X106808207Y-58578390D02*
X106855826Y-58626009D01*
X106855826Y-58626009D02*
X106903445Y-58721247D01*
X106903445Y-58721247D02*
X106903445Y-58959342D01*
X106903445Y-58959342D02*
X106855826Y-59054580D01*
X106855826Y-59054580D02*
X106808207Y-59102200D01*
X106808207Y-59102200D02*
X106712969Y-59149819D01*
X106712969Y-59149819D02*
X106427255Y-59149819D01*
X106427255Y-59149819D02*
X106332017Y-59102200D01*
X106332017Y-59102200D02*
X106284398Y-59054580D01*
X17036779Y-59149819D02*
X17036779Y-58149819D01*
X17036779Y-58149819D02*
X17370112Y-58864104D01*
X17370112Y-58864104D02*
X17703445Y-58149819D01*
X17703445Y-58149819D02*
X17703445Y-59149819D01*
X18084398Y-58149819D02*
X18703445Y-58149819D01*
X18703445Y-58149819D02*
X18370112Y-58530771D01*
X18370112Y-58530771D02*
X18512969Y-58530771D01*
X18512969Y-58530771D02*
X18608207Y-58578390D01*
X18608207Y-58578390D02*
X18655826Y-58626009D01*
X18655826Y-58626009D02*
X18703445Y-58721247D01*
X18703445Y-58721247D02*
X18703445Y-58959342D01*
X18703445Y-58959342D02*
X18655826Y-59054580D01*
X18655826Y-59054580D02*
X18608207Y-59102200D01*
X18608207Y-59102200D02*
X18512969Y-59149819D01*
X18512969Y-59149819D02*
X18227255Y-59149819D01*
X18227255Y-59149819D02*
X18132017Y-59102200D01*
X18132017Y-59102200D02*
X18084398Y-59054580D01*
X51506779Y-21569819D02*
X51506779Y-20569819D01*
X51506779Y-20569819D02*
X51840112Y-21284104D01*
X51840112Y-21284104D02*
X52173445Y-20569819D01*
X52173445Y-20569819D02*
X52173445Y-21569819D01*
X52554398Y-20569819D02*
X53173445Y-20569819D01*
X53173445Y-20569819D02*
X52840112Y-20950771D01*
X52840112Y-20950771D02*
X52982969Y-20950771D01*
X52982969Y-20950771D02*
X53078207Y-20998390D01*
X53078207Y-20998390D02*
X53125826Y-21046009D01*
X53125826Y-21046009D02*
X53173445Y-21141247D01*
X53173445Y-21141247D02*
X53173445Y-21379342D01*
X53173445Y-21379342D02*
X53125826Y-21474580D01*
X53125826Y-21474580D02*
X53078207Y-21522200D01*
X53078207Y-21522200D02*
X52982969Y-21569819D01*
X52982969Y-21569819D02*
X52697255Y-21569819D01*
X52697255Y-21569819D02*
X52602017Y-21522200D01*
X52602017Y-21522200D02*
X52554398Y-21474580D01*
X65906779Y-47499819D02*
X65906779Y-46499819D01*
X65906779Y-46499819D02*
X66240112Y-47214104D01*
X66240112Y-47214104D02*
X66573445Y-46499819D01*
X66573445Y-46499819D02*
X66573445Y-47499819D01*
X67002017Y-46595057D02*
X67049636Y-46547438D01*
X67049636Y-46547438D02*
X67144874Y-46499819D01*
X67144874Y-46499819D02*
X67382969Y-46499819D01*
X67382969Y-46499819D02*
X67478207Y-46547438D01*
X67478207Y-46547438D02*
X67525826Y-46595057D01*
X67525826Y-46595057D02*
X67573445Y-46690295D01*
X67573445Y-46690295D02*
X67573445Y-46785533D01*
X67573445Y-46785533D02*
X67525826Y-46928390D01*
X67525826Y-46928390D02*
X66954398Y-47499819D01*
X66954398Y-47499819D02*
X67573445Y-47499819D01*
%TO.C,SW2*%
D13*
X54955000Y-61325000D02*
X54955000Y-75525000D01*
X54955000Y-75525000D02*
X69155000Y-75525000D01*
X69155000Y-61325000D02*
X54955000Y-61325000D01*
X69155000Y-75525000D02*
X69155000Y-61325000D01*
%TO.C,SW5*%
X69155000Y-102730000D02*
X69155000Y-88530000D01*
X69155000Y-88530000D02*
X54955000Y-88530000D01*
X54955000Y-102730000D02*
X69155000Y-102730000D01*
X54955000Y-88530000D02*
X54955000Y-102730000D01*
%TO.C,TFT1*%
X108405000Y-26060000D02*
X108405000Y-43900000D01*
X108405000Y-23460000D02*
X108405000Y-24790000D01*
X107075000Y-23460000D02*
X108405000Y-23460000D01*
X105745000Y-43900000D02*
X108405000Y-43900000D01*
X105745000Y-26060000D02*
X108405000Y-26060000D01*
X105745000Y-26060000D02*
X105745000Y-43900000D01*
%TO.C,SW1*%
X25750000Y-61325000D02*
X25750000Y-75525000D01*
X25750000Y-75525000D02*
X39950000Y-75525000D01*
X39950000Y-61325000D02*
X25750000Y-61325000D01*
X39950000Y-75525000D02*
X39950000Y-61325000D01*
%TO.C,SW6*%
X84160000Y-88530000D02*
X84160000Y-102730000D01*
X84160000Y-102730000D02*
X98360000Y-102730000D01*
X98360000Y-88530000D02*
X84160000Y-88530000D01*
X98360000Y-102730000D02*
X98360000Y-88530000D01*
%TO.C,RE1*%
X43175000Y-26170000D02*
X43175000Y-38990000D01*
X43175000Y-26170000D02*
X51805000Y-26170000D01*
X43175000Y-26290000D02*
X51805000Y-26290000D01*
X43175000Y-26408095D02*
X51805000Y-26408095D01*
X43175000Y-26526190D02*
X51805000Y-26526190D01*
X43175000Y-26644286D02*
X51805000Y-26644286D01*
X43175000Y-26762381D02*
X51805000Y-26762381D01*
X43175000Y-26880476D02*
X51805000Y-26880476D01*
X43175000Y-26998571D02*
X51805000Y-26998571D01*
X43175000Y-27116667D02*
X51805000Y-27116667D01*
X43175000Y-27234762D02*
X51805000Y-27234762D01*
X43175000Y-27352857D02*
X51805000Y-27352857D01*
X43175000Y-27470952D02*
X51805000Y-27470952D01*
X43175000Y-27589048D02*
X51805000Y-27589048D01*
X43175000Y-27707143D02*
X51805000Y-27707143D01*
X43175000Y-27825238D02*
X51805000Y-27825238D01*
X43175000Y-27943333D02*
X51805000Y-27943333D01*
X43175000Y-28061429D02*
X51805000Y-28061429D01*
X43175000Y-28179524D02*
X51805000Y-28179524D01*
X43175000Y-28297619D02*
X51805000Y-28297619D01*
X43175000Y-28415714D02*
X51805000Y-28415714D01*
X43175000Y-28533810D02*
X51805000Y-28533810D01*
X43175000Y-28651905D02*
X51805000Y-28651905D01*
X43175000Y-28770000D02*
X51805000Y-28770000D01*
X43175000Y-31310000D02*
X51805000Y-31310000D01*
X43175000Y-33850000D02*
X51805000Y-33850000D01*
X43175000Y-36390000D02*
X51805000Y-36390000D01*
X43175000Y-38990000D02*
X51805000Y-38990000D01*
X51805000Y-26170000D02*
X51805000Y-38990000D01*
X51805000Y-27140000D02*
X52155000Y-27140000D01*
X51805000Y-27860000D02*
X52155000Y-27860000D01*
X51805000Y-29680000D02*
X52215000Y-29680000D01*
X51805000Y-30400000D02*
X52215000Y-30400000D01*
X51805000Y-32220000D02*
X52215000Y-32220000D01*
X51805000Y-32940000D02*
X52215000Y-32940000D01*
X51805000Y-34760000D02*
X52215000Y-34760000D01*
X51805000Y-35480000D02*
X52215000Y-35480000D01*
X51805000Y-37300000D02*
X52215000Y-37300000D01*
X51805000Y-38020000D02*
X52215000Y-38020000D01*
X53265000Y-26170000D02*
X54375000Y-26170000D01*
X54375000Y-26170000D02*
X54375000Y-27500000D01*
%TO.C,SW4*%
X25750000Y-88530000D02*
X25750000Y-102730000D01*
X25750000Y-102730000D02*
X39950000Y-102730000D01*
X39950000Y-88530000D02*
X25750000Y-88530000D01*
X39950000Y-102730000D02*
X39950000Y-88530000D01*
%TO.C,SW3*%
X84160000Y-61325000D02*
X84160000Y-75525000D01*
X84160000Y-75525000D02*
X98360000Y-75525000D01*
X98360000Y-61325000D02*
X84160000Y-61325000D01*
X98360000Y-75525000D02*
X98360000Y-61325000D01*
%TD*%
M02*
