%TF.GenerationSoftware,KiCad,Pcbnew,10.0.5*%
%TF.CreationDate,2026-08-12T02:29:58+02:00*%
%TF.ProjectId,Keypad,4b657970-6164-42e6-9b69-6361645f7063,1.0*%
%TF.SameCoordinates,Original*%
%TF.FileFunction,Legend,Bot*%
%TF.FilePolarity,Positive*%
%FSLAX46Y46*%
G04 Gerber Fmt 4.6, Leading zero omitted, Abs format (unit mm)*
G04 Created by KiCad (PCBNEW 10.0.5) date 2026-08-12 02:29:58*
%MOMM*%
%LPD*%
G01*
G04 APERTURE LIST*
%ADD10C,0.100000*%
%ADD11C,0.120000*%
G04 APERTURE END LIST*
D10*
X79975000Y-22050000D02*
X79975000Y-17970000D01*
X82158109Y-29943884D02*
X82158109Y-30277217D01*
X82681919Y-30420074D02*
X82681919Y-29943884D01*
X82681919Y-29943884D02*
X81681919Y-29943884D01*
X81681919Y-29943884D02*
X81681919Y-30420074D01*
X82634300Y-30801027D02*
X82681919Y-30943884D01*
X82681919Y-30943884D02*
X82681919Y-31181979D01*
X82681919Y-31181979D02*
X82634300Y-31277217D01*
X82634300Y-31277217D02*
X82586680Y-31324836D01*
X82586680Y-31324836D02*
X82491442Y-31372455D01*
X82491442Y-31372455D02*
X82396204Y-31372455D01*
X82396204Y-31372455D02*
X82300966Y-31324836D01*
X82300966Y-31324836D02*
X82253347Y-31277217D01*
X82253347Y-31277217D02*
X82205728Y-31181979D01*
X82205728Y-31181979D02*
X82158109Y-30991503D01*
X82158109Y-30991503D02*
X82110490Y-30896265D01*
X82110490Y-30896265D02*
X82062871Y-30848646D01*
X82062871Y-30848646D02*
X81967633Y-30801027D01*
X81967633Y-30801027D02*
X81872395Y-30801027D01*
X81872395Y-30801027D02*
X81777157Y-30848646D01*
X81777157Y-30848646D02*
X81729538Y-30896265D01*
X81729538Y-30896265D02*
X81681919Y-30991503D01*
X81681919Y-30991503D02*
X81681919Y-31229598D01*
X81681919Y-31229598D02*
X81729538Y-31372455D01*
X82681919Y-31801027D02*
X81681919Y-31801027D01*
X81681919Y-31801027D02*
X81681919Y-32181979D01*
X81681919Y-32181979D02*
X81729538Y-32277217D01*
X81729538Y-32277217D02*
X81777157Y-32324836D01*
X81777157Y-32324836D02*
X81872395Y-32372455D01*
X81872395Y-32372455D02*
X82015252Y-32372455D01*
X82015252Y-32372455D02*
X82110490Y-32324836D01*
X82110490Y-32324836D02*
X82158109Y-32277217D01*
X82158109Y-32277217D02*
X82205728Y-32181979D01*
X82205728Y-32181979D02*
X82205728Y-31801027D01*
X81681919Y-32705789D02*
X81681919Y-33324836D01*
X81681919Y-33324836D02*
X82062871Y-32991503D01*
X82062871Y-32991503D02*
X82062871Y-33134360D01*
X82062871Y-33134360D02*
X82110490Y-33229598D01*
X82110490Y-33229598D02*
X82158109Y-33277217D01*
X82158109Y-33277217D02*
X82253347Y-33324836D01*
X82253347Y-33324836D02*
X82491442Y-33324836D01*
X82491442Y-33324836D02*
X82586680Y-33277217D01*
X82586680Y-33277217D02*
X82634300Y-33229598D01*
X82634300Y-33229598D02*
X82681919Y-33134360D01*
X82681919Y-33134360D02*
X82681919Y-32848646D01*
X82681919Y-32848646D02*
X82634300Y-32753408D01*
X82634300Y-32753408D02*
X82586680Y-32705789D01*
X81777157Y-33705789D02*
X81729538Y-33753408D01*
X81729538Y-33753408D02*
X81681919Y-33848646D01*
X81681919Y-33848646D02*
X81681919Y-34086741D01*
X81681919Y-34086741D02*
X81729538Y-34181979D01*
X81729538Y-34181979D02*
X81777157Y-34229598D01*
X81777157Y-34229598D02*
X81872395Y-34277217D01*
X81872395Y-34277217D02*
X81967633Y-34277217D01*
X81967633Y-34277217D02*
X82110490Y-34229598D01*
X82110490Y-34229598D02*
X82681919Y-33658170D01*
X82681919Y-33658170D02*
X82681919Y-34277217D01*
X82634300Y-35420075D02*
X82681919Y-35562932D01*
X82681919Y-35562932D02*
X82681919Y-35801027D01*
X82681919Y-35801027D02*
X82634300Y-35896265D01*
X82634300Y-35896265D02*
X82586680Y-35943884D01*
X82586680Y-35943884D02*
X82491442Y-35991503D01*
X82491442Y-35991503D02*
X82396204Y-35991503D01*
X82396204Y-35991503D02*
X82300966Y-35943884D01*
X82300966Y-35943884D02*
X82253347Y-35896265D01*
X82253347Y-35896265D02*
X82205728Y-35801027D01*
X82205728Y-35801027D02*
X82158109Y-35610551D01*
X82158109Y-35610551D02*
X82110490Y-35515313D01*
X82110490Y-35515313D02*
X82062871Y-35467694D01*
X82062871Y-35467694D02*
X81967633Y-35420075D01*
X81967633Y-35420075D02*
X81872395Y-35420075D01*
X81872395Y-35420075D02*
X81777157Y-35467694D01*
X81777157Y-35467694D02*
X81729538Y-35515313D01*
X81729538Y-35515313D02*
X81681919Y-35610551D01*
X81681919Y-35610551D02*
X81681919Y-35848646D01*
X81681919Y-35848646D02*
X81729538Y-35991503D01*
X81681919Y-36324837D02*
X81681919Y-36943884D01*
X81681919Y-36943884D02*
X82062871Y-36610551D01*
X82062871Y-36610551D02*
X82062871Y-36753408D01*
X82062871Y-36753408D02*
X82110490Y-36848646D01*
X82110490Y-36848646D02*
X82158109Y-36896265D01*
X82158109Y-36896265D02*
X82253347Y-36943884D01*
X82253347Y-36943884D02*
X82491442Y-36943884D01*
X82491442Y-36943884D02*
X82586680Y-36896265D01*
X82586680Y-36896265D02*
X82634300Y-36848646D01*
X82634300Y-36848646D02*
X82681919Y-36753408D01*
X82681919Y-36753408D02*
X82681919Y-36467694D01*
X82681919Y-36467694D02*
X82634300Y-36372456D01*
X82634300Y-36372456D02*
X82586680Y-36324837D01*
X79975000Y-17970000D02*
X84565000Y-17970000D01*
X84565000Y-17970000D02*
X84565000Y-22050000D01*
%TO.C,SW2*%
D11*
X57955000Y-61525000D02*
X63055000Y-61525000D01*
X61855000Y-65725000D02*
X66955000Y-65725000D01*
X55955000Y-63525000D02*
G75*
G02*
X57955000Y-61525000I1999999J1D01*
G01*
X59855000Y-67725000D02*
G75*
G02*
X61855000Y-65725000I1999999J1D01*
G01*
%TO.C,SW5*%
X59855000Y-94930000D02*
G75*
G02*
X61855000Y-92930000I1999999J1D01*
G01*
X55955000Y-90730000D02*
G75*
G02*
X57955000Y-88730000I1999999J1D01*
G01*
X61855000Y-92930000D02*
X66955000Y-92930000D01*
X57955000Y-88730000D02*
X63055000Y-88730000D01*
%TO.C,ESP_RS1*%
X76068000Y-45170000D02*
X73408000Y-45170000D01*
X76068000Y-24790000D02*
X76068000Y-45170000D01*
X76068000Y-24790000D02*
X73408000Y-24790000D01*
X74738000Y-22190000D02*
X73408000Y-22190000D01*
X73408000Y-24790000D02*
X73408000Y-45170000D01*
X73408000Y-22190000D02*
X73408000Y-23520000D01*
%TO.C,ESP_LS1*%
X88445000Y-22190000D02*
X88445000Y-23520000D01*
X88445000Y-24790000D02*
X88445000Y-45170000D01*
X89775000Y-22190000D02*
X88445000Y-22190000D01*
X91105000Y-24790000D02*
X88445000Y-24790000D01*
X91105000Y-24790000D02*
X91105000Y-45170000D01*
X91105000Y-45170000D02*
X88445000Y-45170000D01*
%TO.C,SW1*%
X28750000Y-61525000D02*
X33850000Y-61525000D01*
X32650000Y-65725000D02*
X37750000Y-65725000D01*
X26750000Y-63525000D02*
G75*
G02*
X28750000Y-61525000I1999999J1D01*
G01*
X30650000Y-67725000D02*
G75*
G02*
X32650000Y-65725000I1999999J1D01*
G01*
%TO.C,SW6*%
X87160000Y-88730000D02*
X92260000Y-88730000D01*
X91060000Y-92930000D02*
X96160000Y-92930000D01*
X85160000Y-90730000D02*
G75*
G02*
X87160000Y-88730000I1999999J1D01*
G01*
X89060000Y-94930000D02*
G75*
G02*
X91060000Y-92930000I1999999J1D01*
G01*
%TO.C,SW4*%
X28750000Y-88730000D02*
X33850000Y-88730000D01*
X32650000Y-92930000D02*
X37750000Y-92930000D01*
X26750000Y-90730000D02*
G75*
G02*
X28750000Y-88730000I1999999J1D01*
G01*
X30650000Y-94930000D02*
G75*
G02*
X32650000Y-92930000I1999999J1D01*
G01*
%TO.C,SW3*%
X87160000Y-61525000D02*
X92260000Y-61525000D01*
X91060000Y-65725000D02*
X96160000Y-65725000D01*
X85160000Y-63525000D02*
G75*
G02*
X87160000Y-61525000I1999999J1D01*
G01*
X89060000Y-67725000D02*
G75*
G02*
X91060000Y-65725000I1999999J1D01*
G01*
%TD*%
M02*
