%TF.GenerationSoftware,KiCad,Pcbnew,10.0.5*%
%TF.CreationDate,2026-08-12T02:29:58+02:00*%
%TF.ProjectId,Keypad,4b657970-6164-42e6-9b69-6361645f7063,1.0*%
%TF.SameCoordinates,Original*%
%TF.FileFunction,Soldermask,Bot*%
%TF.FilePolarity,Negative*%
%FSLAX46Y46*%
G04 Gerber Fmt 4.6, Leading zero omitted, Abs format (unit mm)*
G04 Created by KiCad (PCBNEW 10.0.5) date 2026-08-12 02:29:58*
%MOMM*%
%LPD*%
G01*
G04 APERTURE LIST*
G04 Aperture macros list*
%AMRoundRect*
0 Rectangle with rounded corners*
0 $1 Rounding radius*
0 $2 $3 $4 $5 $6 $7 $8 $9 X,Y pos of 4 corners*
0 Add a 4 corners polygon primitive as box body*
4,1,4,$2,$3,$4,$5,$6,$7,$8,$9,$2,$3,0*
0 Add four circle primitives for the rounded corners*
1,1,$1+$1,$2,$3*
1,1,$1+$1,$4,$5*
1,1,$1+$1,$6,$7*
1,1,$1+$1,$8,$9*
0 Add four rect primitives between the rounded corners*
20,1,$1+$1,$2,$3,$4,$5,0*
20,1,$1+$1,$4,$5,$6,$7,0*
20,1,$1+$1,$6,$7,$8,$9,0*
20,1,$1+$1,$8,$9,$2,$3,0*%
G04 Aperture macros list end*
%ADD10C,1.750000*%
%ADD11C,3.050000*%
%ADD12C,4.000000*%
%ADD13RoundRect,0.250000X-1.025000X-1.000000X1.025000X-1.000000X1.025000X1.000000X-1.025000X1.000000X0*%
%ADD14C,1.700000*%
%ADD15R,1.700000X1.700000*%
%ADD16C,2.200000*%
%ADD17C,3.200000*%
G04 APERTURE END LIST*
D10*
%TO.C,SW2*%
X56975000Y-68425000D03*
D11*
X58245000Y-65885000D03*
D12*
X62055000Y-68425000D03*
D11*
X64595000Y-63345000D03*
D10*
X67135000Y-68425000D03*
D13*
X54970000Y-65885000D03*
X67897000Y-63345000D03*
%TD*%
%TO.C,SW5*%
X67897000Y-90550000D03*
X54970000Y-93090000D03*
D10*
X67135000Y-95630000D03*
D11*
X64595000Y-90550000D03*
D12*
X62055000Y-95630000D03*
D11*
X58245000Y-93090000D03*
D10*
X56975000Y-95630000D03*
%TD*%
D14*
%TO.C,ESP_RS1*%
X74738000Y-43840000D03*
X74738000Y-41300000D03*
X74738000Y-38760000D03*
X74738000Y-36220000D03*
X74738000Y-33680000D03*
X74738000Y-31140000D03*
X74738000Y-28600000D03*
X74738000Y-26060000D03*
D15*
X74738000Y-23520000D03*
%TD*%
%TO.C,ESP_LS1*%
X89775000Y-23520000D03*
D14*
X89775000Y-26060000D03*
X89775000Y-28600000D03*
X89775000Y-31140000D03*
X89775000Y-33680000D03*
X89775000Y-36220000D03*
X89775000Y-38760000D03*
X89775000Y-41300000D03*
X89775000Y-43840000D03*
%TD*%
D16*
%TO.C,REF\u002A\u002A*%
X62920000Y-20570000D03*
%TD*%
%TO.C,REF\u002A\u002A*%
X62920000Y-46790000D03*
%TD*%
D14*
%TO.C,TFT1*%
X107075000Y-42570000D03*
X107075000Y-40030000D03*
X107075000Y-37490000D03*
X107075000Y-34950000D03*
X107075000Y-32410000D03*
X107075000Y-29870000D03*
X107075000Y-27330000D03*
D15*
X107075000Y-24790000D03*
%TD*%
D16*
%TO.C,REF\u002A\u002A*%
X106120000Y-46790000D03*
%TD*%
D17*
%TO.C,REF\u002A\u002A*%
X47410000Y-20900000D03*
%TD*%
%TO.C,REF\u002A\u002A*%
X18050000Y-54120000D03*
%TD*%
%TO.C,REF\u002A\u002A*%
X106070000Y-54120000D03*
%TD*%
%TO.C,REF\u002A\u002A*%
X18050000Y-102460000D03*
%TD*%
%TO.C,REF\u002A\u002A*%
X106070000Y-102460000D03*
%TD*%
D10*
%TO.C,SW1*%
X27770000Y-68425000D03*
D11*
X29040000Y-65885000D03*
D12*
X32850000Y-68425000D03*
D11*
X35390000Y-63345000D03*
D10*
X37930000Y-68425000D03*
D13*
X25765000Y-65885000D03*
X38692000Y-63345000D03*
%TD*%
D10*
%TO.C,SW6*%
X86180000Y-95630000D03*
D11*
X87450000Y-93090000D03*
D12*
X91260000Y-95630000D03*
D11*
X93800000Y-90550000D03*
D10*
X96340000Y-95630000D03*
D13*
X84175000Y-93090000D03*
X97102000Y-90550000D03*
%TD*%
D15*
%TO.C,RE1*%
X53265000Y-27500000D03*
D14*
X53265000Y-30040000D03*
X53265000Y-32580000D03*
X53265000Y-35120000D03*
X53265000Y-37660000D03*
%TD*%
D10*
%TO.C,SW4*%
X27770000Y-95630000D03*
D11*
X29040000Y-93090000D03*
D12*
X32850000Y-95630000D03*
D11*
X35390000Y-90550000D03*
D10*
X37930000Y-95630000D03*
D13*
X25765000Y-93090000D03*
X38692000Y-90550000D03*
%TD*%
D10*
%TO.C,SW3*%
X86180000Y-68425000D03*
D11*
X87450000Y-65885000D03*
D12*
X91260000Y-68425000D03*
D11*
X93800000Y-63345000D03*
D10*
X96340000Y-68425000D03*
D13*
X84175000Y-65885000D03*
X97102000Y-63345000D03*
%TD*%
D16*
%TO.C,REF\u002A\u002A*%
X106120000Y-20570000D03*
%TD*%
M02*
