%TF.GenerationSoftware,KiCad,Pcbnew,10.0.5*%
%TF.CreationDate,2026-08-12T02:29:58+02:00*%
%TF.ProjectId,Keypad,4b657970-6164-42e6-9b69-6361645f7063,1.0*%
%TF.SameCoordinates,Original*%
%TF.FileFunction,Copper,L1,Top*%
%TF.FilePolarity,Positive*%
%FSLAX46Y46*%
G04 Gerber Fmt 4.6, Leading zero omitted, Abs format (unit mm)*
G04 Created by KiCad (PCBNEW 10.0.5) date 2026-08-12 02:29:58*
%MOMM*%
%LPD*%
G01*
G04 APERTURE LIST*
%TA.AperFunction,ComponentPad*%
%ADD10C,1.700000*%
%TD*%
%TA.AperFunction,ComponentPad*%
%ADD11R,1.700000X1.700000*%
%TD*%
%TA.AperFunction,Conductor*%
%ADD12C,0.500000*%
%TD*%
G04 APERTURE END LIST*
D10*
%TO.P,ESP_RS1,9,Pin_9_9*%
%TO.N,/GP8_SW6*%
X74738000Y-43840000D03*
%TO.P,ESP_RS1,8,Pin_8_8*%
%TO.N,/GP9_SW5*%
X74738000Y-41300000D03*
%TO.P,ESP_RS1,7,Pin_7_7*%
%TO.N,/GP10_SW4*%
X74738000Y-38760000D03*
%TO.P,ESP_RS1,6,Pin_6_6*%
%TO.N,/GP11_SW*%
X74738000Y-36220000D03*
%TO.P,ESP_RS1,5,Pin_5_5*%
%TO.N,/GP12_DT*%
X74738000Y-33680000D03*
%TO.P,ESP_RS1,4,Pin_4_4*%
%TO.N,/GP13_CLK*%
X74738000Y-31140000D03*
%TO.P,ESP_RS1,3,Pin_3_3*%
%TO.N,/3V3*%
X74738000Y-28600000D03*
%TO.P,ESP_RS1,2,Pin_2_2*%
%TO.N,/GND*%
X74738000Y-26060000D03*
D11*
%TO.P,ESP_RS1,1,Pin_1_1*%
%TO.N,/5V*%
X74738000Y-23520000D03*
%TD*%
%TO.P,ESP_LS1,1,Pin_1_1*%
%TO.N,/GP7_SCL*%
X89775000Y-23520000D03*
D10*
%TO.P,ESP_LS1,2,Pin_2_2*%
%TO.N,/GP6_SDA*%
X89775000Y-26060000D03*
%TO.P,ESP_LS1,3,Pin_3_3*%
%TO.N,/GP5_RES*%
X89775000Y-28600000D03*
%TO.P,ESP_LS1,4,Pin_4_4*%
%TO.N,/GP4_DC*%
X89775000Y-31140000D03*
%TO.P,ESP_LS1,5,Pin_5_5*%
%TO.N,/GP3_CS*%
X89775000Y-33680000D03*
%TO.P,ESP_LS1,6,Pin_6_6*%
%TO.N,/GP2_BLK*%
X89775000Y-36220000D03*
%TO.P,ESP_LS1,7,Pin_7_7*%
%TO.N,/GP1_SW3*%
X89775000Y-38760000D03*
%TO.P,ESP_LS1,8,Pin_8_8*%
%TO.N,/RX_SW2*%
X89775000Y-41300000D03*
%TO.P,ESP_LS1,9,Pin_9_9*%
%TO.N,/TX_SW1*%
X89775000Y-43840000D03*
%TD*%
%TO.P,TFT1,8,Pin_8_8*%
%TO.N,/GP2_BLK*%
X107075000Y-42570000D03*
%TO.P,TFT1,7,Pin_7_7*%
%TO.N,/GP3_CS*%
X107075000Y-40030000D03*
%TO.P,TFT1,6,Pin_6_6*%
%TO.N,/GP4_DC*%
X107075000Y-37490000D03*
%TO.P,TFT1,5,Pin_5_5*%
%TO.N,/GP5_RES*%
X107075000Y-34950000D03*
%TO.P,TFT1,4,Pin_4_4*%
%TO.N,/GP6_SDA*%
X107075000Y-32410000D03*
%TO.P,TFT1,3,Pin_3_3*%
%TO.N,/GP7_SCL*%
X107075000Y-29870000D03*
%TO.P,TFT1,2,Pin_2_2*%
%TO.N,/3V3*%
X107075000Y-27330000D03*
D11*
%TO.P,TFT1,1,Pin_1_1*%
%TO.N,/GND*%
X107075000Y-24790000D03*
%TD*%
%TO.P,RE1,1,Pin_1_1*%
%TO.N,/GP13_CLK*%
X53265000Y-27500000D03*
D10*
%TO.P,RE1,2,Pin_2_2*%
%TO.N,/GP12_DT*%
X53265000Y-30040000D03*
%TO.P,RE1,3,Pin_3_3*%
%TO.N,/GP11_SW*%
X53265000Y-32580000D03*
%TO.P,RE1,4,Pin_4_4*%
%TO.N,/3V3*%
X53265000Y-35120000D03*
%TO.P,RE1,5,Pin_5_5*%
%TO.N,/GND*%
X53265000Y-37660000D03*
%TD*%
%TO.N,/GP2_BLK*%
D12*
X107075000Y-42570000D02*
X100725000Y-36220000D01*
X100725000Y-36220000D02*
X89775000Y-36220000D01*
%TO.N,/GP3_CS*%
X107075000Y-40030000D02*
X100725000Y-33680000D01*
X100725000Y-33680000D02*
X89775000Y-33680000D01*
%TO.N,/GP4_DC*%
X107075000Y-37490000D02*
X100725000Y-31140000D01*
X100725000Y-31140000D02*
X89775000Y-31140000D01*
%TO.N,/GP5_RES*%
X107075000Y-34950000D02*
X100725000Y-28600000D01*
X100725000Y-28600000D02*
X89775000Y-28600000D01*
%TO.N,/GP6_SDA*%
X107075000Y-32410000D02*
X100725000Y-26060000D01*
X100725000Y-26060000D02*
X89775000Y-26060000D01*
%TO.N,/GP7_SCL*%
X107075000Y-29870000D02*
X100725000Y-23520000D01*
X100725000Y-23520000D02*
X89775000Y-23520000D01*
%TO.N,/3V3*%
X74738000Y-28600000D02*
X81118000Y-22220000D01*
X81118000Y-22220000D02*
X101965000Y-22220000D01*
X101965000Y-22220000D02*
X107075000Y-27330000D01*
%TO.N,/GP11_SW*%
X74738000Y-36220000D02*
X71098000Y-32580000D01*
X71098000Y-32580000D02*
X53265000Y-32580000D01*
%TO.N,/GP12_DT*%
X74738000Y-33680000D02*
X71098000Y-30040000D01*
X71098000Y-30040000D02*
X53265000Y-30040000D01*
%TO.N,/GP13_CLK*%
X74738000Y-31140000D02*
X71098000Y-27500000D01*
X71098000Y-27500000D02*
X53265000Y-27500000D01*
%TO.N,/3V3*%
X71018000Y-24880000D02*
X49870000Y-24880000D01*
X49870000Y-24880000D02*
X49870000Y-31725000D01*
X74738000Y-28600000D02*
X71018000Y-24880000D01*
X49870000Y-31725000D02*
X53265000Y-35120000D01*
%TD*%
%TA.AperFunction,Conductor*%
%TO.N,/GND*%
G36*
X110212539Y-16720185D02*
G01*
X110258294Y-16772989D01*
X110269500Y-16824500D01*
X110269500Y-106535500D01*
X110249815Y-106602539D01*
X110197011Y-106648294D01*
X110145500Y-106659500D01*
X13974500Y-106659500D01*
X13907461Y-106639815D01*
X13861706Y-106587011D01*
X13850500Y-106535500D01*
X13850500Y-102338711D01*
X16199500Y-102338711D01*
X16199500Y-102581288D01*
X16231161Y-102821785D01*
X16293947Y-103056104D01*
X16386773Y-103280205D01*
X16386776Y-103280212D01*
X16508064Y-103490289D01*
X16508066Y-103490292D01*
X16508067Y-103490293D01*
X16655733Y-103682736D01*
X16655739Y-103682743D01*
X16827256Y-103854260D01*
X16827262Y-103854265D01*
X17019711Y-104001936D01*
X17229788Y-104123224D01*
X17453900Y-104216054D01*
X17688211Y-104278838D01*
X17868586Y-104302584D01*
X17928711Y-104310500D01*
X17928712Y-104310500D01*
X18171289Y-104310500D01*
X18219388Y-104304167D01*
X18411789Y-104278838D01*
X18646100Y-104216054D01*
X18870212Y-104123224D01*
X19080289Y-104001936D01*
X19272738Y-103854265D01*
X19444265Y-103682738D01*
X19591936Y-103490289D01*
X19713224Y-103280212D01*
X19806054Y-103056100D01*
X19868838Y-102821789D01*
X19900500Y-102581288D01*
X19900500Y-102338712D01*
X19900500Y-102338711D01*
X104219500Y-102338711D01*
X104219500Y-102581288D01*
X104251161Y-102821785D01*
X104313947Y-103056104D01*
X104406773Y-103280205D01*
X104406776Y-103280212D01*
X104528064Y-103490289D01*
X104528066Y-103490292D01*
X104528067Y-103490293D01*
X104675733Y-103682736D01*
X104675739Y-103682743D01*
X104847256Y-103854260D01*
X104847262Y-103854265D01*
X105039711Y-104001936D01*
X105249788Y-104123224D01*
X105473900Y-104216054D01*
X105708211Y-104278838D01*
X105888586Y-104302584D01*
X105948711Y-104310500D01*
X105948712Y-104310500D01*
X106191289Y-104310500D01*
X106239388Y-104304167D01*
X106431789Y-104278838D01*
X106666100Y-104216054D01*
X106890212Y-104123224D01*
X107100289Y-104001936D01*
X107292738Y-103854265D01*
X107464265Y-103682738D01*
X107611936Y-103490289D01*
X107733224Y-103280212D01*
X107826054Y-103056100D01*
X107888838Y-102821789D01*
X107920500Y-102581288D01*
X107920500Y-102338712D01*
X107888838Y-102098211D01*
X107826054Y-101863900D01*
X107733224Y-101639788D01*
X107611936Y-101429711D01*
X107464265Y-101237262D01*
X107464260Y-101237256D01*
X107292743Y-101065739D01*
X107292736Y-101065733D01*
X107100293Y-100918067D01*
X107100292Y-100918066D01*
X107100289Y-100918064D01*
X106890212Y-100796776D01*
X106890205Y-100796773D01*
X106666104Y-100703947D01*
X106431785Y-100641161D01*
X106191289Y-100609500D01*
X106191288Y-100609500D01*
X105948712Y-100609500D01*
X105948711Y-100609500D01*
X105708214Y-100641161D01*
X105473895Y-100703947D01*
X105249794Y-100796773D01*
X105249785Y-100796777D01*
X105039706Y-100918067D01*
X104847263Y-101065733D01*
X104847256Y-101065739D01*
X104675739Y-101237256D01*
X104675733Y-101237263D01*
X104528067Y-101429706D01*
X104406777Y-101639785D01*
X104406773Y-101639794D01*
X104313947Y-101863895D01*
X104251161Y-102098214D01*
X104219500Y-102338711D01*
X19900500Y-102338711D01*
X19868838Y-102098211D01*
X19806054Y-101863900D01*
X19713224Y-101639788D01*
X19591936Y-101429711D01*
X19444265Y-101237262D01*
X19444260Y-101237256D01*
X19272743Y-101065739D01*
X19272736Y-101065733D01*
X19080293Y-100918067D01*
X19080292Y-100918066D01*
X19080289Y-100918064D01*
X18870212Y-100796776D01*
X18870205Y-100796773D01*
X18646104Y-100703947D01*
X18411785Y-100641161D01*
X18171289Y-100609500D01*
X18171288Y-100609500D01*
X17928712Y-100609500D01*
X17928711Y-100609500D01*
X17688214Y-100641161D01*
X17453895Y-100703947D01*
X17229794Y-100796773D01*
X17229785Y-100796777D01*
X17019706Y-100918067D01*
X16827263Y-101065733D01*
X16827256Y-101065739D01*
X16655739Y-101237256D01*
X16655733Y-101237263D01*
X16508067Y-101429706D01*
X16386777Y-101639785D01*
X16386773Y-101639794D01*
X16293947Y-101863895D01*
X16231161Y-102098214D01*
X16199500Y-102338711D01*
X13850500Y-102338711D01*
X13850500Y-95541421D01*
X26644500Y-95541421D01*
X26644500Y-95718578D01*
X26672214Y-95893556D01*
X26726956Y-96062039D01*
X26726957Y-96062042D01*
X26807386Y-96219890D01*
X26911517Y-96363214D01*
X27036786Y-96488483D01*
X27180110Y-96592614D01*
X27248577Y-96627500D01*
X27337957Y-96673042D01*
X27337960Y-96673043D01*
X27422201Y-96700414D01*
X27506445Y-96727786D01*
X27681421Y-96755500D01*
X27681422Y-96755500D01*
X27858578Y-96755500D01*
X27858579Y-96755500D01*
X28033555Y-96727786D01*
X28202042Y-96673042D01*
X28359890Y-96592614D01*
X28503214Y-96488483D01*
X28628483Y-96363214D01*
X28732614Y-96219890D01*
X28813042Y-96062042D01*
X28867786Y-95893555D01*
X28895500Y-95718579D01*
X28895500Y-95541421D01*
X28886165Y-95482486D01*
X30599500Y-95482486D01*
X30599500Y-95777513D01*
X30614778Y-95893555D01*
X30638007Y-96069993D01*
X30714361Y-96354951D01*
X30714364Y-96354961D01*
X30827254Y-96627500D01*
X30827258Y-96627510D01*
X30974761Y-96882993D01*
X31154352Y-97117040D01*
X31154358Y-97117047D01*
X31362952Y-97325641D01*
X31362959Y-97325647D01*
X31597006Y-97505238D01*
X31852489Y-97652741D01*
X31852490Y-97652741D01*
X31852493Y-97652743D01*
X32125048Y-97765639D01*
X32410007Y-97841993D01*
X32702494Y-97880500D01*
X32702501Y-97880500D01*
X32997499Y-97880500D01*
X32997506Y-97880500D01*
X33289993Y-97841993D01*
X33574952Y-97765639D01*
X33847507Y-97652743D01*
X34102994Y-97505238D01*
X34337042Y-97325646D01*
X34545646Y-97117042D01*
X34725238Y-96882994D01*
X34872743Y-96627507D01*
X34985639Y-96354952D01*
X35061993Y-96069993D01*
X35100500Y-95777506D01*
X35100500Y-95541421D01*
X36804500Y-95541421D01*
X36804500Y-95718578D01*
X36832214Y-95893556D01*
X36886956Y-96062039D01*
X36886957Y-96062042D01*
X36967386Y-96219890D01*
X37071517Y-96363214D01*
X37196786Y-96488483D01*
X37340110Y-96592614D01*
X37408577Y-96627500D01*
X37497957Y-96673042D01*
X37497960Y-96673043D01*
X37582201Y-96700414D01*
X37666445Y-96727786D01*
X37841421Y-96755500D01*
X37841422Y-96755500D01*
X38018578Y-96755500D01*
X38018579Y-96755500D01*
X38193555Y-96727786D01*
X38362042Y-96673042D01*
X38519890Y-96592614D01*
X38663214Y-96488483D01*
X38788483Y-96363214D01*
X38892614Y-96219890D01*
X38973042Y-96062042D01*
X39027786Y-95893555D01*
X39055500Y-95718579D01*
X39055500Y-95541421D01*
X55849500Y-95541421D01*
X55849500Y-95718578D01*
X55877214Y-95893556D01*
X55931956Y-96062039D01*
X55931957Y-96062042D01*
X56012386Y-96219890D01*
X56116517Y-96363214D01*
X56241786Y-96488483D01*
X56385110Y-96592614D01*
X56453577Y-96627500D01*
X56542957Y-96673042D01*
X56542960Y-96673043D01*
X56627201Y-96700414D01*
X56711445Y-96727786D01*
X56886421Y-96755500D01*
X56886422Y-96755500D01*
X57063578Y-96755500D01*
X57063579Y-96755500D01*
X57238555Y-96727786D01*
X57407042Y-96673042D01*
X57564890Y-96592614D01*
X57708214Y-96488483D01*
X57833483Y-96363214D01*
X57937614Y-96219890D01*
X58018042Y-96062042D01*
X58072786Y-95893555D01*
X58100500Y-95718579D01*
X58100500Y-95541421D01*
X58091165Y-95482486D01*
X59804500Y-95482486D01*
X59804500Y-95777513D01*
X59819778Y-95893555D01*
X59843007Y-96069993D01*
X59919361Y-96354951D01*
X59919364Y-96354961D01*
X60032254Y-96627500D01*
X60032258Y-96627510D01*
X60179761Y-96882993D01*
X60359352Y-97117040D01*
X60359358Y-97117047D01*
X60567952Y-97325641D01*
X60567959Y-97325647D01*
X60802006Y-97505238D01*
X61057489Y-97652741D01*
X61057490Y-97652741D01*
X61057493Y-97652743D01*
X61330048Y-97765639D01*
X61615007Y-97841993D01*
X61907494Y-97880500D01*
X61907501Y-97880500D01*
X62202499Y-97880500D01*
X62202506Y-97880500D01*
X62494993Y-97841993D01*
X62779952Y-97765639D01*
X63052507Y-97652743D01*
X63307994Y-97505238D01*
X63542042Y-97325646D01*
X63750646Y-97117042D01*
X63930238Y-96882994D01*
X64077743Y-96627507D01*
X64190639Y-96354952D01*
X64266993Y-96069993D01*
X64305500Y-95777506D01*
X64305500Y-95541421D01*
X66009500Y-95541421D01*
X66009500Y-95718578D01*
X66037214Y-95893556D01*
X66091956Y-96062039D01*
X66091957Y-96062042D01*
X66172386Y-96219890D01*
X66276517Y-96363214D01*
X66401786Y-96488483D01*
X66545110Y-96592614D01*
X66613577Y-96627500D01*
X66702957Y-96673042D01*
X66702960Y-96673043D01*
X66787201Y-96700414D01*
X66871445Y-96727786D01*
X67046421Y-96755500D01*
X67046422Y-96755500D01*
X67223578Y-96755500D01*
X67223579Y-96755500D01*
X67398555Y-96727786D01*
X67567042Y-96673042D01*
X67724890Y-96592614D01*
X67868214Y-96488483D01*
X67993483Y-96363214D01*
X68097614Y-96219890D01*
X68178042Y-96062042D01*
X68232786Y-95893555D01*
X68260500Y-95718579D01*
X68260500Y-95541421D01*
X85054500Y-95541421D01*
X85054500Y-95718578D01*
X85082214Y-95893556D01*
X85136956Y-96062039D01*
X85136957Y-96062042D01*
X85217386Y-96219890D01*
X85321517Y-96363214D01*
X85446786Y-96488483D01*
X85590110Y-96592614D01*
X85658577Y-96627500D01*
X85747957Y-96673042D01*
X85747960Y-96673043D01*
X85832201Y-96700414D01*
X85916445Y-96727786D01*
X86091421Y-96755500D01*
X86091422Y-96755500D01*
X86268578Y-96755500D01*
X86268579Y-96755500D01*
X86443555Y-96727786D01*
X86612042Y-96673042D01*
X86769890Y-96592614D01*
X86913214Y-96488483D01*
X87038483Y-96363214D01*
X87142614Y-96219890D01*
X87223042Y-96062042D01*
X87277786Y-95893555D01*
X87305500Y-95718579D01*
X87305500Y-95541421D01*
X87296165Y-95482486D01*
X89009500Y-95482486D01*
X89009500Y-95777513D01*
X89024778Y-95893555D01*
X89048007Y-96069993D01*
X89124361Y-96354951D01*
X89124364Y-96354961D01*
X89237254Y-96627500D01*
X89237258Y-96627510D01*
X89384761Y-96882993D01*
X89564352Y-97117040D01*
X89564358Y-97117047D01*
X89772952Y-97325641D01*
X89772959Y-97325647D01*
X90007006Y-97505238D01*
X90262489Y-97652741D01*
X90262490Y-97652741D01*
X90262493Y-97652743D01*
X90535048Y-97765639D01*
X90820007Y-97841993D01*
X91112494Y-97880500D01*
X91112501Y-97880500D01*
X91407499Y-97880500D01*
X91407506Y-97880500D01*
X91699993Y-97841993D01*
X91984952Y-97765639D01*
X92257507Y-97652743D01*
X92512994Y-97505238D01*
X92747042Y-97325646D01*
X92955646Y-97117042D01*
X93135238Y-96882994D01*
X93282743Y-96627507D01*
X93395639Y-96354952D01*
X93471993Y-96069993D01*
X93510500Y-95777506D01*
X93510500Y-95541421D01*
X95214500Y-95541421D01*
X95214500Y-95718578D01*
X95242214Y-95893556D01*
X95296956Y-96062039D01*
X95296957Y-96062042D01*
X95377386Y-96219890D01*
X95481517Y-96363214D01*
X95606786Y-96488483D01*
X95750110Y-96592614D01*
X95818577Y-96627500D01*
X95907957Y-96673042D01*
X95907960Y-96673043D01*
X95992201Y-96700414D01*
X96076445Y-96727786D01*
X96251421Y-96755500D01*
X96251422Y-96755500D01*
X96428578Y-96755500D01*
X96428579Y-96755500D01*
X96603555Y-96727786D01*
X96772042Y-96673042D01*
X96929890Y-96592614D01*
X97073214Y-96488483D01*
X97198483Y-96363214D01*
X97302614Y-96219890D01*
X97383042Y-96062042D01*
X97437786Y-95893555D01*
X97465500Y-95718579D01*
X97465500Y-95541421D01*
X97437786Y-95366445D01*
X97383042Y-95197958D01*
X97383042Y-95197957D01*
X97302613Y-95040109D01*
X97299618Y-95035987D01*
X97198483Y-94896786D01*
X97073214Y-94771517D01*
X96929890Y-94667386D01*
X96772042Y-94586957D01*
X96772039Y-94586956D01*
X96603556Y-94532214D01*
X96516067Y-94518357D01*
X96428579Y-94504500D01*
X96251421Y-94504500D01*
X96193095Y-94513738D01*
X96076443Y-94532214D01*
X95907960Y-94586956D01*
X95907957Y-94586957D01*
X95750109Y-94667386D01*
X95668338Y-94726796D01*
X95606786Y-94771517D01*
X95606784Y-94771519D01*
X95606783Y-94771519D01*
X95481519Y-94896783D01*
X95481519Y-94896784D01*
X95481517Y-94896786D01*
X95436796Y-94958338D01*
X95377386Y-95040109D01*
X95296957Y-95197957D01*
X95296956Y-95197960D01*
X95242214Y-95366443D01*
X95214500Y-95541421D01*
X93510500Y-95541421D01*
X93510500Y-95482494D01*
X93471993Y-95190007D01*
X93395639Y-94905048D01*
X93394615Y-94902577D01*
X93340329Y-94771519D01*
X93282743Y-94632493D01*
X93256453Y-94586958D01*
X93135238Y-94377006D01*
X92955647Y-94142959D01*
X92955641Y-94142952D01*
X92747047Y-93934358D01*
X92747040Y-93934352D01*
X92512993Y-93754761D01*
X92257510Y-93607258D01*
X92257500Y-93607254D01*
X91984961Y-93494364D01*
X91984954Y-93494362D01*
X91984952Y-93494361D01*
X91699993Y-93418007D01*
X91651113Y-93411571D01*
X91407513Y-93379500D01*
X91407506Y-93379500D01*
X91112494Y-93379500D01*
X91112486Y-93379500D01*
X90834085Y-93416153D01*
X90820007Y-93418007D01*
X90535048Y-93494361D01*
X90535038Y-93494364D01*
X90262499Y-93607254D01*
X90262489Y-93607258D01*
X90007006Y-93754761D01*
X89772959Y-93934352D01*
X89772952Y-93934358D01*
X89564358Y-94142952D01*
X89564352Y-94142959D01*
X89384761Y-94377006D01*
X89237258Y-94632489D01*
X89237254Y-94632499D01*
X89124364Y-94905038D01*
X89124361Y-94905048D01*
X89088172Y-95040110D01*
X89048008Y-95190004D01*
X89048006Y-95190015D01*
X89009500Y-95482486D01*
X87296165Y-95482486D01*
X87277786Y-95366445D01*
X87223042Y-95197958D01*
X87223040Y-95197952D01*
X87140513Y-95035987D01*
X87127616Y-94967317D01*
X87153892Y-94902577D01*
X87210998Y-94862319D01*
X87267181Y-94856752D01*
X87326564Y-94864570D01*
X87333612Y-94865498D01*
X87333628Y-94865500D01*
X87333635Y-94865500D01*
X87566365Y-94865500D01*
X87566372Y-94865500D01*
X87797126Y-94835121D01*
X88021940Y-94774882D01*
X88079953Y-94750852D01*
X88236960Y-94685819D01*
X88236963Y-94685817D01*
X88236969Y-94685815D01*
X88438532Y-94569442D01*
X88623181Y-94427756D01*
X88787756Y-94263181D01*
X88929442Y-94078532D01*
X89045815Y-93876969D01*
X89134882Y-93661940D01*
X89195121Y-93437126D01*
X89225500Y-93206372D01*
X89225500Y-92973628D01*
X89195121Y-92742874D01*
X89134882Y-92518060D01*
X89134879Y-92518052D01*
X89045819Y-92303039D01*
X89045811Y-92303023D01*
X88929446Y-92101475D01*
X88929442Y-92101468D01*
X88787756Y-91916819D01*
X88787751Y-91916813D01*
X88623186Y-91752248D01*
X88623179Y-91752242D01*
X88438540Y-91610564D01*
X88438538Y-91610562D01*
X88438532Y-91610558D01*
X88438527Y-91610555D01*
X88438524Y-91610553D01*
X88236976Y-91494188D01*
X88236960Y-91494180D01*
X88021947Y-91405120D01*
X87797122Y-91344878D01*
X87566382Y-91314501D01*
X87566377Y-91314500D01*
X87566372Y-91314500D01*
X87333628Y-91314500D01*
X87333622Y-91314500D01*
X87333617Y-91314501D01*
X87102877Y-91344878D01*
X86878052Y-91405120D01*
X86663039Y-91494180D01*
X86663023Y-91494188D01*
X86461475Y-91610553D01*
X86461459Y-91610564D01*
X86276820Y-91752242D01*
X86276813Y-91752248D01*
X86112248Y-91916813D01*
X86112242Y-91916820D01*
X85970564Y-92101459D01*
X85970553Y-92101475D01*
X85854188Y-92303023D01*
X85854180Y-92303039D01*
X85765120Y-92518052D01*
X85704878Y-92742877D01*
X85674501Y-92973617D01*
X85674500Y-92973634D01*
X85674500Y-93206365D01*
X85674501Y-93206382D01*
X85704878Y-93437122D01*
X85765120Y-93661947D01*
X85854180Y-93876960D01*
X85854188Y-93876976D01*
X85970553Y-94078524D01*
X85970564Y-94078540D01*
X86112242Y-94263179D01*
X86112248Y-94263186D01*
X86145636Y-94296574D01*
X86179121Y-94357897D01*
X86174137Y-94427589D01*
X86132265Y-94483522D01*
X86077353Y-94506728D01*
X85916443Y-94532214D01*
X85747960Y-94586956D01*
X85747957Y-94586957D01*
X85590109Y-94667386D01*
X85508338Y-94726796D01*
X85446786Y-94771517D01*
X85446784Y-94771519D01*
X85446783Y-94771519D01*
X85321519Y-94896783D01*
X85321519Y-94896784D01*
X85321517Y-94896786D01*
X85276796Y-94958338D01*
X85217386Y-95040109D01*
X85136957Y-95197957D01*
X85136956Y-95197960D01*
X85082214Y-95366443D01*
X85054500Y-95541421D01*
X68260500Y-95541421D01*
X68232786Y-95366445D01*
X68178042Y-95197958D01*
X68178042Y-95197957D01*
X68097613Y-95040109D01*
X68094618Y-95035987D01*
X67993483Y-94896786D01*
X67868214Y-94771517D01*
X67724890Y-94667386D01*
X67567042Y-94586957D01*
X67567039Y-94586956D01*
X67398556Y-94532214D01*
X67311067Y-94518357D01*
X67223579Y-94504500D01*
X67046421Y-94504500D01*
X66988095Y-94513738D01*
X66871443Y-94532214D01*
X66702960Y-94586956D01*
X66702957Y-94586957D01*
X66545109Y-94667386D01*
X66463338Y-94726796D01*
X66401786Y-94771517D01*
X66401784Y-94771519D01*
X66401783Y-94771519D01*
X66276519Y-94896783D01*
X66276519Y-94896784D01*
X66276517Y-94896786D01*
X66231796Y-94958338D01*
X66172386Y-95040109D01*
X66091957Y-95197957D01*
X66091956Y-95197960D01*
X66037214Y-95366443D01*
X66009500Y-95541421D01*
X64305500Y-95541421D01*
X64305500Y-95482494D01*
X64266993Y-95190007D01*
X64190639Y-94905048D01*
X64189615Y-94902577D01*
X64135329Y-94771519D01*
X64077743Y-94632493D01*
X64051453Y-94586958D01*
X63930238Y-94377006D01*
X63750647Y-94142959D01*
X63750641Y-94142952D01*
X63542047Y-93934358D01*
X63542040Y-93934352D01*
X63307993Y-93754761D01*
X63052510Y-93607258D01*
X63052500Y-93607254D01*
X62779961Y-93494364D01*
X62779954Y-93494362D01*
X62779952Y-93494361D01*
X62494993Y-93418007D01*
X62446113Y-93411571D01*
X62202513Y-93379500D01*
X62202506Y-93379500D01*
X61907494Y-93379500D01*
X61907486Y-93379500D01*
X61629085Y-93416153D01*
X61615007Y-93418007D01*
X61330048Y-93494361D01*
X61330038Y-93494364D01*
X61057499Y-93607254D01*
X61057489Y-93607258D01*
X60802006Y-93754761D01*
X60567959Y-93934352D01*
X60567952Y-93934358D01*
X60359358Y-94142952D01*
X60359352Y-94142959D01*
X60179761Y-94377006D01*
X60032258Y-94632489D01*
X60032254Y-94632499D01*
X59919364Y-94905038D01*
X59919361Y-94905048D01*
X59883172Y-95040110D01*
X59843008Y-95190004D01*
X59843006Y-95190015D01*
X59804500Y-95482486D01*
X58091165Y-95482486D01*
X58072786Y-95366445D01*
X58018042Y-95197958D01*
X58018040Y-95197952D01*
X57935513Y-95035987D01*
X57922616Y-94967317D01*
X57948892Y-94902577D01*
X58005998Y-94862319D01*
X58062181Y-94856752D01*
X58121564Y-94864570D01*
X58128612Y-94865498D01*
X58128628Y-94865500D01*
X58128635Y-94865500D01*
X58361365Y-94865500D01*
X58361372Y-94865500D01*
X58592126Y-94835121D01*
X58816940Y-94774882D01*
X58874953Y-94750852D01*
X59031960Y-94685819D01*
X59031963Y-94685817D01*
X59031969Y-94685815D01*
X59233532Y-94569442D01*
X59418181Y-94427756D01*
X59582756Y-94263181D01*
X59724442Y-94078532D01*
X59840815Y-93876969D01*
X59929882Y-93661940D01*
X59990121Y-93437126D01*
X60020500Y-93206372D01*
X60020500Y-92973628D01*
X59990121Y-92742874D01*
X59929882Y-92518060D01*
X59929879Y-92518052D01*
X59840819Y-92303039D01*
X59840811Y-92303023D01*
X59724446Y-92101475D01*
X59724442Y-92101468D01*
X59582756Y-91916819D01*
X59582751Y-91916813D01*
X59418186Y-91752248D01*
X59418179Y-91752242D01*
X59233540Y-91610564D01*
X59233538Y-91610562D01*
X59233532Y-91610558D01*
X59233527Y-91610555D01*
X59233524Y-91610553D01*
X59031976Y-91494188D01*
X59031960Y-91494180D01*
X58816947Y-91405120D01*
X58592122Y-91344878D01*
X58361382Y-91314501D01*
X58361377Y-91314500D01*
X58361372Y-91314500D01*
X58128628Y-91314500D01*
X58128622Y-91314500D01*
X58128617Y-91314501D01*
X57897877Y-91344878D01*
X57673052Y-91405120D01*
X57458039Y-91494180D01*
X57458023Y-91494188D01*
X57256475Y-91610553D01*
X57256459Y-91610564D01*
X57071820Y-91752242D01*
X57071813Y-91752248D01*
X56907248Y-91916813D01*
X56907242Y-91916820D01*
X56765564Y-92101459D01*
X56765553Y-92101475D01*
X56649188Y-92303023D01*
X56649180Y-92303039D01*
X56560120Y-92518052D01*
X56499878Y-92742877D01*
X56469501Y-92973617D01*
X56469500Y-92973634D01*
X56469500Y-93206365D01*
X56469501Y-93206382D01*
X56499878Y-93437122D01*
X56560120Y-93661947D01*
X56649180Y-93876960D01*
X56649188Y-93876976D01*
X56765553Y-94078524D01*
X56765564Y-94078540D01*
X56907242Y-94263179D01*
X56907248Y-94263186D01*
X56940636Y-94296574D01*
X56974121Y-94357897D01*
X56969137Y-94427589D01*
X56927265Y-94483522D01*
X56872353Y-94506728D01*
X56711443Y-94532214D01*
X56542960Y-94586956D01*
X56542957Y-94586957D01*
X56385109Y-94667386D01*
X56303338Y-94726796D01*
X56241786Y-94771517D01*
X56241784Y-94771519D01*
X56241783Y-94771519D01*
X56116519Y-94896783D01*
X56116519Y-94896784D01*
X56116517Y-94896786D01*
X56071796Y-94958338D01*
X56012386Y-95040109D01*
X55931957Y-95197957D01*
X55931956Y-95197960D01*
X55877214Y-95366443D01*
X55849500Y-95541421D01*
X39055500Y-95541421D01*
X39027786Y-95366445D01*
X38973042Y-95197958D01*
X38973042Y-95197957D01*
X38892613Y-95040109D01*
X38889618Y-95035987D01*
X38788483Y-94896786D01*
X38663214Y-94771517D01*
X38519890Y-94667386D01*
X38362042Y-94586957D01*
X38362039Y-94586956D01*
X38193556Y-94532214D01*
X38106067Y-94518357D01*
X38018579Y-94504500D01*
X37841421Y-94504500D01*
X37783095Y-94513738D01*
X37666443Y-94532214D01*
X37497960Y-94586956D01*
X37497957Y-94586957D01*
X37340109Y-94667386D01*
X37258338Y-94726796D01*
X37196786Y-94771517D01*
X37196784Y-94771519D01*
X37196783Y-94771519D01*
X37071519Y-94896783D01*
X37071519Y-94896784D01*
X37071517Y-94896786D01*
X37026796Y-94958338D01*
X36967386Y-95040109D01*
X36886957Y-95197957D01*
X36886956Y-95197960D01*
X36832214Y-95366443D01*
X36804500Y-95541421D01*
X35100500Y-95541421D01*
X35100500Y-95482494D01*
X35061993Y-95190007D01*
X34985639Y-94905048D01*
X34984615Y-94902577D01*
X34930329Y-94771519D01*
X34872743Y-94632493D01*
X34846453Y-94586958D01*
X34725238Y-94377006D01*
X34545647Y-94142959D01*
X34545641Y-94142952D01*
X34337047Y-93934358D01*
X34337040Y-93934352D01*
X34102993Y-93754761D01*
X33847510Y-93607258D01*
X33847500Y-93607254D01*
X33574961Y-93494364D01*
X33574954Y-93494362D01*
X33574952Y-93494361D01*
X33289993Y-93418007D01*
X33241113Y-93411571D01*
X32997513Y-93379500D01*
X32997506Y-93379500D01*
X32702494Y-93379500D01*
X32702486Y-93379500D01*
X32424085Y-93416153D01*
X32410007Y-93418007D01*
X32125048Y-93494361D01*
X32125038Y-93494364D01*
X31852499Y-93607254D01*
X31852489Y-93607258D01*
X31597006Y-93754761D01*
X31362959Y-93934352D01*
X31362952Y-93934358D01*
X31154358Y-94142952D01*
X31154352Y-94142959D01*
X30974761Y-94377006D01*
X30827258Y-94632489D01*
X30827254Y-94632499D01*
X30714364Y-94905038D01*
X30714361Y-94905048D01*
X30678172Y-95040110D01*
X30638008Y-95190004D01*
X30638006Y-95190015D01*
X30599500Y-95482486D01*
X28886165Y-95482486D01*
X28867786Y-95366445D01*
X28813042Y-95197958D01*
X28813040Y-95197952D01*
X28730513Y-95035987D01*
X28717616Y-94967317D01*
X28743892Y-94902577D01*
X28800998Y-94862319D01*
X28857181Y-94856752D01*
X28916564Y-94864570D01*
X28923612Y-94865498D01*
X28923628Y-94865500D01*
X28923635Y-94865500D01*
X29156365Y-94865500D01*
X29156372Y-94865500D01*
X29387126Y-94835121D01*
X29611940Y-94774882D01*
X29669953Y-94750852D01*
X29826960Y-94685819D01*
X29826963Y-94685817D01*
X29826969Y-94685815D01*
X30028532Y-94569442D01*
X30213181Y-94427756D01*
X30377756Y-94263181D01*
X30519442Y-94078532D01*
X30635815Y-93876969D01*
X30724882Y-93661940D01*
X30785121Y-93437126D01*
X30815500Y-93206372D01*
X30815500Y-92973628D01*
X30785121Y-92742874D01*
X30724882Y-92518060D01*
X30724879Y-92518052D01*
X30635819Y-92303039D01*
X30635811Y-92303023D01*
X30519446Y-92101475D01*
X30519442Y-92101468D01*
X30377756Y-91916819D01*
X30377751Y-91916813D01*
X30213186Y-91752248D01*
X30213179Y-91752242D01*
X30028540Y-91610564D01*
X30028538Y-91610562D01*
X30028532Y-91610558D01*
X30028527Y-91610555D01*
X30028524Y-91610553D01*
X29826976Y-91494188D01*
X29826960Y-91494180D01*
X29611947Y-91405120D01*
X29387122Y-91344878D01*
X29156382Y-91314501D01*
X29156377Y-91314500D01*
X29156372Y-91314500D01*
X28923628Y-91314500D01*
X28923622Y-91314500D01*
X28923617Y-91314501D01*
X28692877Y-91344878D01*
X28468052Y-91405120D01*
X28253039Y-91494180D01*
X28253023Y-91494188D01*
X28051475Y-91610553D01*
X28051459Y-91610564D01*
X27866820Y-91752242D01*
X27866813Y-91752248D01*
X27702248Y-91916813D01*
X27702242Y-91916820D01*
X27560564Y-92101459D01*
X27560553Y-92101475D01*
X27444188Y-92303023D01*
X27444180Y-92303039D01*
X27355120Y-92518052D01*
X27294878Y-92742877D01*
X27264501Y-92973617D01*
X27264500Y-92973634D01*
X27264500Y-93206365D01*
X27264501Y-93206382D01*
X27294878Y-93437122D01*
X27355120Y-93661947D01*
X27444180Y-93876960D01*
X27444188Y-93876976D01*
X27560553Y-94078524D01*
X27560564Y-94078540D01*
X27702242Y-94263179D01*
X27702248Y-94263186D01*
X27735636Y-94296574D01*
X27769121Y-94357897D01*
X27764137Y-94427589D01*
X27722265Y-94483522D01*
X27667353Y-94506728D01*
X27506443Y-94532214D01*
X27337960Y-94586956D01*
X27337957Y-94586957D01*
X27180109Y-94667386D01*
X27098338Y-94726796D01*
X27036786Y-94771517D01*
X27036784Y-94771519D01*
X27036783Y-94771519D01*
X26911519Y-94896783D01*
X26911519Y-94896784D01*
X26911517Y-94896786D01*
X26866796Y-94958338D01*
X26807386Y-95040109D01*
X26726957Y-95197957D01*
X26726956Y-95197960D01*
X26672214Y-95366443D01*
X26644500Y-95541421D01*
X13850500Y-95541421D01*
X13850500Y-90433634D01*
X33614500Y-90433634D01*
X33614500Y-90666365D01*
X33614501Y-90666382D01*
X33644878Y-90897122D01*
X33705120Y-91121947D01*
X33794180Y-91336960D01*
X33794188Y-91336976D01*
X33910553Y-91538524D01*
X33910564Y-91538540D01*
X34052242Y-91723179D01*
X34052248Y-91723186D01*
X34216813Y-91887751D01*
X34216820Y-91887757D01*
X34254696Y-91916820D01*
X34401468Y-92029442D01*
X34401475Y-92029446D01*
X34603023Y-92145811D01*
X34603039Y-92145819D01*
X34818052Y-92234879D01*
X34818054Y-92234879D01*
X34818060Y-92234882D01*
X35042874Y-92295121D01*
X35273628Y-92325500D01*
X35273635Y-92325500D01*
X35506365Y-92325500D01*
X35506372Y-92325500D01*
X35737126Y-92295121D01*
X35961940Y-92234882D01*
X36019953Y-92210852D01*
X36176960Y-92145819D01*
X36176963Y-92145817D01*
X36176969Y-92145815D01*
X36378532Y-92029442D01*
X36563181Y-91887756D01*
X36727756Y-91723181D01*
X36869442Y-91538532D01*
X36985815Y-91336969D01*
X36995122Y-91314501D01*
X37074879Y-91121947D01*
X37074878Y-91121947D01*
X37074882Y-91121940D01*
X37135121Y-90897126D01*
X37165500Y-90666372D01*
X37165500Y-90433634D01*
X62819500Y-90433634D01*
X62819500Y-90666365D01*
X62819501Y-90666382D01*
X62849878Y-90897122D01*
X62910120Y-91121947D01*
X62999180Y-91336960D01*
X62999188Y-91336976D01*
X63115553Y-91538524D01*
X63115564Y-91538540D01*
X63257242Y-91723179D01*
X63257248Y-91723186D01*
X63421813Y-91887751D01*
X63421820Y-91887757D01*
X63459696Y-91916820D01*
X63606468Y-92029442D01*
X63606475Y-92029446D01*
X63808023Y-92145811D01*
X63808039Y-92145819D01*
X64023052Y-92234879D01*
X64023054Y-92234879D01*
X64023060Y-92234882D01*
X64247874Y-92295121D01*
X64478628Y-92325500D01*
X64478635Y-92325500D01*
X64711365Y-92325500D01*
X64711372Y-92325500D01*
X64942126Y-92295121D01*
X65166940Y-92234882D01*
X65224953Y-92210852D01*
X65381960Y-92145819D01*
X65381963Y-92145817D01*
X65381969Y-92145815D01*
X65583532Y-92029442D01*
X65768181Y-91887756D01*
X65932756Y-91723181D01*
X66074442Y-91538532D01*
X66190815Y-91336969D01*
X66200122Y-91314501D01*
X66279879Y-91121947D01*
X66279878Y-91121947D01*
X66279882Y-91121940D01*
X66340121Y-90897126D01*
X66370500Y-90666372D01*
X66370500Y-90433634D01*
X92024500Y-90433634D01*
X92024500Y-90666365D01*
X92024501Y-90666382D01*
X92054878Y-90897122D01*
X92115120Y-91121947D01*
X92204180Y-91336960D01*
X92204188Y-91336976D01*
X92320553Y-91538524D01*
X92320564Y-91538540D01*
X92462242Y-91723179D01*
X92462248Y-91723186D01*
X92626813Y-91887751D01*
X92626820Y-91887757D01*
X92664696Y-91916820D01*
X92811468Y-92029442D01*
X92811475Y-92029446D01*
X93013023Y-92145811D01*
X93013039Y-92145819D01*
X93228052Y-92234879D01*
X93228054Y-92234879D01*
X93228060Y-92234882D01*
X93452874Y-92295121D01*
X93683628Y-92325500D01*
X93683635Y-92325500D01*
X93916365Y-92325500D01*
X93916372Y-92325500D01*
X94147126Y-92295121D01*
X94371940Y-92234882D01*
X94429953Y-92210852D01*
X94586960Y-92145819D01*
X94586963Y-92145817D01*
X94586969Y-92145815D01*
X94788532Y-92029442D01*
X94973181Y-91887756D01*
X95137756Y-91723181D01*
X95279442Y-91538532D01*
X95395815Y-91336969D01*
X95405122Y-91314501D01*
X95484879Y-91121947D01*
X95484878Y-91121947D01*
X95484882Y-91121940D01*
X95545121Y-90897126D01*
X95575500Y-90666372D01*
X95575500Y-90433628D01*
X95545121Y-90202874D01*
X95484882Y-89978060D01*
X95484879Y-89978052D01*
X95395819Y-89763039D01*
X95395811Y-89763023D01*
X95279446Y-89561475D01*
X95279442Y-89561468D01*
X95137756Y-89376819D01*
X95137751Y-89376813D01*
X94973186Y-89212248D01*
X94973179Y-89212242D01*
X94788540Y-89070564D01*
X94788538Y-89070562D01*
X94788532Y-89070558D01*
X94788527Y-89070555D01*
X94788524Y-89070553D01*
X94586976Y-88954188D01*
X94586960Y-88954180D01*
X94371947Y-88865120D01*
X94147122Y-88804878D01*
X93916382Y-88774501D01*
X93916377Y-88774500D01*
X93916372Y-88774500D01*
X93683628Y-88774500D01*
X93683622Y-88774500D01*
X93683617Y-88774501D01*
X93452877Y-88804878D01*
X93228052Y-88865120D01*
X93013039Y-88954180D01*
X93013023Y-88954188D01*
X92811475Y-89070553D01*
X92811459Y-89070564D01*
X92626820Y-89212242D01*
X92626813Y-89212248D01*
X92462248Y-89376813D01*
X92462242Y-89376820D01*
X92320564Y-89561459D01*
X92320553Y-89561475D01*
X92204188Y-89763023D01*
X92204180Y-89763039D01*
X92115120Y-89978052D01*
X92054878Y-90202877D01*
X92024501Y-90433617D01*
X92024500Y-90433634D01*
X66370500Y-90433634D01*
X66370500Y-90433628D01*
X66340121Y-90202874D01*
X66279882Y-89978060D01*
X66279879Y-89978052D01*
X66190819Y-89763039D01*
X66190811Y-89763023D01*
X66074446Y-89561475D01*
X66074442Y-89561468D01*
X65932756Y-89376819D01*
X65932751Y-89376813D01*
X65768186Y-89212248D01*
X65768179Y-89212242D01*
X65583540Y-89070564D01*
X65583538Y-89070562D01*
X65583532Y-89070558D01*
X65583527Y-89070555D01*
X65583524Y-89070553D01*
X65381976Y-88954188D01*
X65381960Y-88954180D01*
X65166947Y-88865120D01*
X64942122Y-88804878D01*
X64711382Y-88774501D01*
X64711377Y-88774500D01*
X64711372Y-88774500D01*
X64478628Y-88774500D01*
X64478622Y-88774500D01*
X64478617Y-88774501D01*
X64247877Y-88804878D01*
X64023052Y-88865120D01*
X63808039Y-88954180D01*
X63808023Y-88954188D01*
X63606475Y-89070553D01*
X63606459Y-89070564D01*
X63421820Y-89212242D01*
X63421813Y-89212248D01*
X63257248Y-89376813D01*
X63257242Y-89376820D01*
X63115564Y-89561459D01*
X63115553Y-89561475D01*
X62999188Y-89763023D01*
X62999180Y-89763039D01*
X62910120Y-89978052D01*
X62849878Y-90202877D01*
X62819501Y-90433617D01*
X62819500Y-90433634D01*
X37165500Y-90433634D01*
X37165500Y-90433628D01*
X37135121Y-90202874D01*
X37074882Y-89978060D01*
X37074879Y-89978052D01*
X36985819Y-89763039D01*
X36985811Y-89763023D01*
X36869446Y-89561475D01*
X36869442Y-89561468D01*
X36727756Y-89376819D01*
X36727751Y-89376813D01*
X36563186Y-89212248D01*
X36563179Y-89212242D01*
X36378540Y-89070564D01*
X36378538Y-89070562D01*
X36378532Y-89070558D01*
X36378527Y-89070555D01*
X36378524Y-89070553D01*
X36176976Y-88954188D01*
X36176960Y-88954180D01*
X35961947Y-88865120D01*
X35737122Y-88804878D01*
X35506382Y-88774501D01*
X35506377Y-88774500D01*
X35506372Y-88774500D01*
X35273628Y-88774500D01*
X35273622Y-88774500D01*
X35273617Y-88774501D01*
X35042877Y-88804878D01*
X34818052Y-88865120D01*
X34603039Y-88954180D01*
X34603023Y-88954188D01*
X34401475Y-89070553D01*
X34401459Y-89070564D01*
X34216820Y-89212242D01*
X34216813Y-89212248D01*
X34052248Y-89376813D01*
X34052242Y-89376820D01*
X33910564Y-89561459D01*
X33910553Y-89561475D01*
X33794188Y-89763023D01*
X33794180Y-89763039D01*
X33705120Y-89978052D01*
X33644878Y-90202877D01*
X33614501Y-90433617D01*
X33614500Y-90433634D01*
X13850500Y-90433634D01*
X13850500Y-68336421D01*
X26644500Y-68336421D01*
X26644500Y-68513578D01*
X26672214Y-68688556D01*
X26726956Y-68857039D01*
X26726957Y-68857042D01*
X26807386Y-69014890D01*
X26911517Y-69158214D01*
X27036786Y-69283483D01*
X27180110Y-69387614D01*
X27248577Y-69422500D01*
X27337957Y-69468042D01*
X27337960Y-69468043D01*
X27422201Y-69495414D01*
X27506445Y-69522786D01*
X27681421Y-69550500D01*
X27681422Y-69550500D01*
X27858578Y-69550500D01*
X27858579Y-69550500D01*
X28033555Y-69522786D01*
X28202042Y-69468042D01*
X28359890Y-69387614D01*
X28503214Y-69283483D01*
X28628483Y-69158214D01*
X28732614Y-69014890D01*
X28813042Y-68857042D01*
X28867786Y-68688555D01*
X28895500Y-68513579D01*
X28895500Y-68336421D01*
X28886165Y-68277486D01*
X30599500Y-68277486D01*
X30599500Y-68572513D01*
X30614778Y-68688555D01*
X30638007Y-68864993D01*
X30714361Y-69149951D01*
X30714364Y-69149961D01*
X30827254Y-69422500D01*
X30827258Y-69422510D01*
X30974761Y-69677993D01*
X31154352Y-69912040D01*
X31154358Y-69912047D01*
X31362952Y-70120641D01*
X31362959Y-70120647D01*
X31597006Y-70300238D01*
X31852489Y-70447741D01*
X31852490Y-70447741D01*
X31852493Y-70447743D01*
X32125048Y-70560639D01*
X32410007Y-70636993D01*
X32702494Y-70675500D01*
X32702501Y-70675500D01*
X32997499Y-70675500D01*
X32997506Y-70675500D01*
X33289993Y-70636993D01*
X33574952Y-70560639D01*
X33847507Y-70447743D01*
X34102994Y-70300238D01*
X34337042Y-70120646D01*
X34545646Y-69912042D01*
X34725238Y-69677994D01*
X34872743Y-69422507D01*
X34985639Y-69149952D01*
X35061993Y-68864993D01*
X35100500Y-68572506D01*
X35100500Y-68336421D01*
X36804500Y-68336421D01*
X36804500Y-68513578D01*
X36832214Y-68688556D01*
X36886956Y-68857039D01*
X36886957Y-68857042D01*
X36967386Y-69014890D01*
X37071517Y-69158214D01*
X37196786Y-69283483D01*
X37340110Y-69387614D01*
X37408577Y-69422500D01*
X37497957Y-69468042D01*
X37497960Y-69468043D01*
X37582201Y-69495414D01*
X37666445Y-69522786D01*
X37841421Y-69550500D01*
X37841422Y-69550500D01*
X38018578Y-69550500D01*
X38018579Y-69550500D01*
X38193555Y-69522786D01*
X38362042Y-69468042D01*
X38519890Y-69387614D01*
X38663214Y-69283483D01*
X38788483Y-69158214D01*
X38892614Y-69014890D01*
X38973042Y-68857042D01*
X39027786Y-68688555D01*
X39055500Y-68513579D01*
X39055500Y-68336421D01*
X55849500Y-68336421D01*
X55849500Y-68513578D01*
X55877214Y-68688556D01*
X55931956Y-68857039D01*
X55931957Y-68857042D01*
X56012386Y-69014890D01*
X56116517Y-69158214D01*
X56241786Y-69283483D01*
X56385110Y-69387614D01*
X56453577Y-69422500D01*
X56542957Y-69468042D01*
X56542960Y-69468043D01*
X56627201Y-69495414D01*
X56711445Y-69522786D01*
X56886421Y-69550500D01*
X56886422Y-69550500D01*
X57063578Y-69550500D01*
X57063579Y-69550500D01*
X57238555Y-69522786D01*
X57407042Y-69468042D01*
X57564890Y-69387614D01*
X57708214Y-69283483D01*
X57833483Y-69158214D01*
X57937614Y-69014890D01*
X58018042Y-68857042D01*
X58072786Y-68688555D01*
X58100500Y-68513579D01*
X58100500Y-68336421D01*
X58091165Y-68277486D01*
X59804500Y-68277486D01*
X59804500Y-68572513D01*
X59819778Y-68688555D01*
X59843007Y-68864993D01*
X59919361Y-69149951D01*
X59919364Y-69149961D01*
X60032254Y-69422500D01*
X60032258Y-69422510D01*
X60179761Y-69677993D01*
X60359352Y-69912040D01*
X60359358Y-69912047D01*
X60567952Y-70120641D01*
X60567959Y-70120647D01*
X60802006Y-70300238D01*
X61057489Y-70447741D01*
X61057490Y-70447741D01*
X61057493Y-70447743D01*
X61330048Y-70560639D01*
X61615007Y-70636993D01*
X61907494Y-70675500D01*
X61907501Y-70675500D01*
X62202499Y-70675500D01*
X62202506Y-70675500D01*
X62494993Y-70636993D01*
X62779952Y-70560639D01*
X63052507Y-70447743D01*
X63307994Y-70300238D01*
X63542042Y-70120646D01*
X63750646Y-69912042D01*
X63930238Y-69677994D01*
X64077743Y-69422507D01*
X64190639Y-69149952D01*
X64266993Y-68864993D01*
X64305500Y-68572506D01*
X64305500Y-68336421D01*
X66009500Y-68336421D01*
X66009500Y-68513578D01*
X66037214Y-68688556D01*
X66091956Y-68857039D01*
X66091957Y-68857042D01*
X66172386Y-69014890D01*
X66276517Y-69158214D01*
X66401786Y-69283483D01*
X66545110Y-69387614D01*
X66613577Y-69422500D01*
X66702957Y-69468042D01*
X66702960Y-69468043D01*
X66787201Y-69495414D01*
X66871445Y-69522786D01*
X67046421Y-69550500D01*
X67046422Y-69550500D01*
X67223578Y-69550500D01*
X67223579Y-69550500D01*
X67398555Y-69522786D01*
X67567042Y-69468042D01*
X67724890Y-69387614D01*
X67868214Y-69283483D01*
X67993483Y-69158214D01*
X68097614Y-69014890D01*
X68178042Y-68857042D01*
X68232786Y-68688555D01*
X68260500Y-68513579D01*
X68260500Y-68336421D01*
X85054500Y-68336421D01*
X85054500Y-68513578D01*
X85082214Y-68688556D01*
X85136956Y-68857039D01*
X85136957Y-68857042D01*
X85217386Y-69014890D01*
X85321517Y-69158214D01*
X85446786Y-69283483D01*
X85590110Y-69387614D01*
X85658577Y-69422500D01*
X85747957Y-69468042D01*
X85747960Y-69468043D01*
X85832201Y-69495414D01*
X85916445Y-69522786D01*
X86091421Y-69550500D01*
X86091422Y-69550500D01*
X86268578Y-69550500D01*
X86268579Y-69550500D01*
X86443555Y-69522786D01*
X86612042Y-69468042D01*
X86769890Y-69387614D01*
X86913214Y-69283483D01*
X87038483Y-69158214D01*
X87142614Y-69014890D01*
X87223042Y-68857042D01*
X87277786Y-68688555D01*
X87305500Y-68513579D01*
X87305500Y-68336421D01*
X87296165Y-68277486D01*
X89009500Y-68277486D01*
X89009500Y-68572513D01*
X89024778Y-68688555D01*
X89048007Y-68864993D01*
X89124361Y-69149951D01*
X89124364Y-69149961D01*
X89237254Y-69422500D01*
X89237258Y-69422510D01*
X89384761Y-69677993D01*
X89564352Y-69912040D01*
X89564358Y-69912047D01*
X89772952Y-70120641D01*
X89772959Y-70120647D01*
X90007006Y-70300238D01*
X90262489Y-70447741D01*
X90262490Y-70447741D01*
X90262493Y-70447743D01*
X90535048Y-70560639D01*
X90820007Y-70636993D01*
X91112494Y-70675500D01*
X91112501Y-70675500D01*
X91407499Y-70675500D01*
X91407506Y-70675500D01*
X91699993Y-70636993D01*
X91984952Y-70560639D01*
X92257507Y-70447743D01*
X92512994Y-70300238D01*
X92747042Y-70120646D01*
X92955646Y-69912042D01*
X93135238Y-69677994D01*
X93282743Y-69422507D01*
X93395639Y-69149952D01*
X93471993Y-68864993D01*
X93510500Y-68572506D01*
X93510500Y-68336421D01*
X95214500Y-68336421D01*
X95214500Y-68513578D01*
X95242214Y-68688556D01*
X95296956Y-68857039D01*
X95296957Y-68857042D01*
X95377386Y-69014890D01*
X95481517Y-69158214D01*
X95606786Y-69283483D01*
X95750110Y-69387614D01*
X95818577Y-69422500D01*
X95907957Y-69468042D01*
X95907960Y-69468043D01*
X95992201Y-69495414D01*
X96076445Y-69522786D01*
X96251421Y-69550500D01*
X96251422Y-69550500D01*
X96428578Y-69550500D01*
X96428579Y-69550500D01*
X96603555Y-69522786D01*
X96772042Y-69468042D01*
X96929890Y-69387614D01*
X97073214Y-69283483D01*
X97198483Y-69158214D01*
X97302614Y-69014890D01*
X97383042Y-68857042D01*
X97437786Y-68688555D01*
X97465500Y-68513579D01*
X97465500Y-68336421D01*
X97437786Y-68161445D01*
X97383042Y-67992958D01*
X97383042Y-67992957D01*
X97302613Y-67835109D01*
X97299618Y-67830987D01*
X97198483Y-67691786D01*
X97073214Y-67566517D01*
X96929890Y-67462386D01*
X96772042Y-67381957D01*
X96772039Y-67381956D01*
X96603556Y-67327214D01*
X96516067Y-67313357D01*
X96428579Y-67299500D01*
X96251421Y-67299500D01*
X96193095Y-67308738D01*
X96076443Y-67327214D01*
X95907960Y-67381956D01*
X95907957Y-67381957D01*
X95750109Y-67462386D01*
X95668338Y-67521796D01*
X95606786Y-67566517D01*
X95606784Y-67566519D01*
X95606783Y-67566519D01*
X95481519Y-67691783D01*
X95481519Y-67691784D01*
X95481517Y-67691786D01*
X95436796Y-67753338D01*
X95377386Y-67835109D01*
X95296957Y-67992957D01*
X95296956Y-67992960D01*
X95242214Y-68161443D01*
X95214500Y-68336421D01*
X93510500Y-68336421D01*
X93510500Y-68277494D01*
X93471993Y-67985007D01*
X93395639Y-67700048D01*
X93394615Y-67697577D01*
X93340329Y-67566519D01*
X93282743Y-67427493D01*
X93256453Y-67381958D01*
X93135238Y-67172006D01*
X92955647Y-66937959D01*
X92955641Y-66937952D01*
X92747047Y-66729358D01*
X92747040Y-66729352D01*
X92512993Y-66549761D01*
X92257510Y-66402258D01*
X92257500Y-66402254D01*
X91984961Y-66289364D01*
X91984954Y-66289362D01*
X91984952Y-66289361D01*
X91699993Y-66213007D01*
X91651113Y-66206571D01*
X91407513Y-66174500D01*
X91407506Y-66174500D01*
X91112494Y-66174500D01*
X91112486Y-66174500D01*
X90834085Y-66211153D01*
X90820007Y-66213007D01*
X90535048Y-66289361D01*
X90535038Y-66289364D01*
X90262499Y-66402254D01*
X90262489Y-66402258D01*
X90007006Y-66549761D01*
X89772959Y-66729352D01*
X89772952Y-66729358D01*
X89564358Y-66937952D01*
X89564352Y-66937959D01*
X89384761Y-67172006D01*
X89237258Y-67427489D01*
X89237254Y-67427499D01*
X89124364Y-67700038D01*
X89124361Y-67700048D01*
X89088172Y-67835110D01*
X89048008Y-67985004D01*
X89048006Y-67985015D01*
X89009500Y-68277486D01*
X87296165Y-68277486D01*
X87277786Y-68161445D01*
X87223042Y-67992958D01*
X87223040Y-67992952D01*
X87140513Y-67830987D01*
X87127616Y-67762317D01*
X87153892Y-67697577D01*
X87210998Y-67657319D01*
X87267181Y-67651752D01*
X87326564Y-67659570D01*
X87333612Y-67660498D01*
X87333628Y-67660500D01*
X87333635Y-67660500D01*
X87566365Y-67660500D01*
X87566372Y-67660500D01*
X87797126Y-67630121D01*
X88021940Y-67569882D01*
X88079953Y-67545852D01*
X88236960Y-67480819D01*
X88236963Y-67480817D01*
X88236969Y-67480815D01*
X88438532Y-67364442D01*
X88623181Y-67222756D01*
X88787756Y-67058181D01*
X88929442Y-66873532D01*
X89045815Y-66671969D01*
X89134882Y-66456940D01*
X89195121Y-66232126D01*
X89225500Y-66001372D01*
X89225500Y-65768628D01*
X89195121Y-65537874D01*
X89134882Y-65313060D01*
X89134879Y-65313052D01*
X89045819Y-65098039D01*
X89045811Y-65098023D01*
X88929446Y-64896475D01*
X88929442Y-64896468D01*
X88787756Y-64711819D01*
X88787751Y-64711813D01*
X88623186Y-64547248D01*
X88623179Y-64547242D01*
X88438540Y-64405564D01*
X88438538Y-64405562D01*
X88438532Y-64405558D01*
X88438527Y-64405555D01*
X88438524Y-64405553D01*
X88236976Y-64289188D01*
X88236960Y-64289180D01*
X88021947Y-64200120D01*
X87797122Y-64139878D01*
X87566382Y-64109501D01*
X87566377Y-64109500D01*
X87566372Y-64109500D01*
X87333628Y-64109500D01*
X87333622Y-64109500D01*
X87333617Y-64109501D01*
X87102877Y-64139878D01*
X86878052Y-64200120D01*
X86663039Y-64289180D01*
X86663023Y-64289188D01*
X86461475Y-64405553D01*
X86461459Y-64405564D01*
X86276820Y-64547242D01*
X86276813Y-64547248D01*
X86112248Y-64711813D01*
X86112242Y-64711820D01*
X85970564Y-64896459D01*
X85970553Y-64896475D01*
X85854188Y-65098023D01*
X85854180Y-65098039D01*
X85765120Y-65313052D01*
X85704878Y-65537877D01*
X85674501Y-65768617D01*
X85674500Y-65768634D01*
X85674500Y-66001365D01*
X85674501Y-66001382D01*
X85704878Y-66232122D01*
X85765120Y-66456947D01*
X85854180Y-66671960D01*
X85854188Y-66671976D01*
X85970553Y-66873524D01*
X85970564Y-66873540D01*
X86112242Y-67058179D01*
X86112248Y-67058186D01*
X86145636Y-67091574D01*
X86179121Y-67152897D01*
X86174137Y-67222589D01*
X86132265Y-67278522D01*
X86077353Y-67301728D01*
X85916443Y-67327214D01*
X85747960Y-67381956D01*
X85747957Y-67381957D01*
X85590109Y-67462386D01*
X85508338Y-67521796D01*
X85446786Y-67566517D01*
X85446784Y-67566519D01*
X85446783Y-67566519D01*
X85321519Y-67691783D01*
X85321519Y-67691784D01*
X85321517Y-67691786D01*
X85276796Y-67753338D01*
X85217386Y-67835109D01*
X85136957Y-67992957D01*
X85136956Y-67992960D01*
X85082214Y-68161443D01*
X85054500Y-68336421D01*
X68260500Y-68336421D01*
X68232786Y-68161445D01*
X68178042Y-67992958D01*
X68178042Y-67992957D01*
X68097613Y-67835109D01*
X68094618Y-67830987D01*
X67993483Y-67691786D01*
X67868214Y-67566517D01*
X67724890Y-67462386D01*
X67567042Y-67381957D01*
X67567039Y-67381956D01*
X67398556Y-67327214D01*
X67311067Y-67313357D01*
X67223579Y-67299500D01*
X67046421Y-67299500D01*
X66988095Y-67308738D01*
X66871443Y-67327214D01*
X66702960Y-67381956D01*
X66702957Y-67381957D01*
X66545109Y-67462386D01*
X66463338Y-67521796D01*
X66401786Y-67566517D01*
X66401784Y-67566519D01*
X66401783Y-67566519D01*
X66276519Y-67691783D01*
X66276519Y-67691784D01*
X66276517Y-67691786D01*
X66231796Y-67753338D01*
X66172386Y-67835109D01*
X66091957Y-67992957D01*
X66091956Y-67992960D01*
X66037214Y-68161443D01*
X66009500Y-68336421D01*
X64305500Y-68336421D01*
X64305500Y-68277494D01*
X64266993Y-67985007D01*
X64190639Y-67700048D01*
X64189615Y-67697577D01*
X64135329Y-67566519D01*
X64077743Y-67427493D01*
X64051453Y-67381958D01*
X63930238Y-67172006D01*
X63750647Y-66937959D01*
X63750641Y-66937952D01*
X63542047Y-66729358D01*
X63542040Y-66729352D01*
X63307993Y-66549761D01*
X63052510Y-66402258D01*
X63052500Y-66402254D01*
X62779961Y-66289364D01*
X62779954Y-66289362D01*
X62779952Y-66289361D01*
X62494993Y-66213007D01*
X62446113Y-66206571D01*
X62202513Y-66174500D01*
X62202506Y-66174500D01*
X61907494Y-66174500D01*
X61907486Y-66174500D01*
X61629085Y-66211153D01*
X61615007Y-66213007D01*
X61330048Y-66289361D01*
X61330038Y-66289364D01*
X61057499Y-66402254D01*
X61057489Y-66402258D01*
X60802006Y-66549761D01*
X60567959Y-66729352D01*
X60567952Y-66729358D01*
X60359358Y-66937952D01*
X60359352Y-66937959D01*
X60179761Y-67172006D01*
X60032258Y-67427489D01*
X60032254Y-67427499D01*
X59919364Y-67700038D01*
X59919361Y-67700048D01*
X59883172Y-67835110D01*
X59843008Y-67985004D01*
X59843006Y-67985015D01*
X59804500Y-68277486D01*
X58091165Y-68277486D01*
X58072786Y-68161445D01*
X58018042Y-67992958D01*
X58018040Y-67992952D01*
X57935513Y-67830987D01*
X57922616Y-67762317D01*
X57948892Y-67697577D01*
X58005998Y-67657319D01*
X58062181Y-67651752D01*
X58121564Y-67659570D01*
X58128612Y-67660498D01*
X58128628Y-67660500D01*
X58128635Y-67660500D01*
X58361365Y-67660500D01*
X58361372Y-67660500D01*
X58592126Y-67630121D01*
X58816940Y-67569882D01*
X58874953Y-67545852D01*
X59031960Y-67480819D01*
X59031963Y-67480817D01*
X59031969Y-67480815D01*
X59233532Y-67364442D01*
X59418181Y-67222756D01*
X59582756Y-67058181D01*
X59724442Y-66873532D01*
X59840815Y-66671969D01*
X59929882Y-66456940D01*
X59990121Y-66232126D01*
X60020500Y-66001372D01*
X60020500Y-65768628D01*
X59990121Y-65537874D01*
X59929882Y-65313060D01*
X59929879Y-65313052D01*
X59840819Y-65098039D01*
X59840811Y-65098023D01*
X59724446Y-64896475D01*
X59724442Y-64896468D01*
X59582756Y-64711819D01*
X59582751Y-64711813D01*
X59418186Y-64547248D01*
X59418179Y-64547242D01*
X59233540Y-64405564D01*
X59233538Y-64405562D01*
X59233532Y-64405558D01*
X59233527Y-64405555D01*
X59233524Y-64405553D01*
X59031976Y-64289188D01*
X59031960Y-64289180D01*
X58816947Y-64200120D01*
X58592122Y-64139878D01*
X58361382Y-64109501D01*
X58361377Y-64109500D01*
X58361372Y-64109500D01*
X58128628Y-64109500D01*
X58128622Y-64109500D01*
X58128617Y-64109501D01*
X57897877Y-64139878D01*
X57673052Y-64200120D01*
X57458039Y-64289180D01*
X57458023Y-64289188D01*
X57256475Y-64405553D01*
X57256459Y-64405564D01*
X57071820Y-64547242D01*
X57071813Y-64547248D01*
X56907248Y-64711813D01*
X56907242Y-64711820D01*
X56765564Y-64896459D01*
X56765553Y-64896475D01*
X56649188Y-65098023D01*
X56649180Y-65098039D01*
X56560120Y-65313052D01*
X56499878Y-65537877D01*
X56469501Y-65768617D01*
X56469500Y-65768634D01*
X56469500Y-66001365D01*
X56469501Y-66001382D01*
X56499878Y-66232122D01*
X56560120Y-66456947D01*
X56649180Y-66671960D01*
X56649188Y-66671976D01*
X56765553Y-66873524D01*
X56765564Y-66873540D01*
X56907242Y-67058179D01*
X56907248Y-67058186D01*
X56940636Y-67091574D01*
X56974121Y-67152897D01*
X56969137Y-67222589D01*
X56927265Y-67278522D01*
X56872353Y-67301728D01*
X56711443Y-67327214D01*
X56542960Y-67381956D01*
X56542957Y-67381957D01*
X56385109Y-67462386D01*
X56303338Y-67521796D01*
X56241786Y-67566517D01*
X56241784Y-67566519D01*
X56241783Y-67566519D01*
X56116519Y-67691783D01*
X56116519Y-67691784D01*
X56116517Y-67691786D01*
X56071796Y-67753338D01*
X56012386Y-67835109D01*
X55931957Y-67992957D01*
X55931956Y-67992960D01*
X55877214Y-68161443D01*
X55849500Y-68336421D01*
X39055500Y-68336421D01*
X39027786Y-68161445D01*
X38973042Y-67992958D01*
X38973042Y-67992957D01*
X38892613Y-67835109D01*
X38889618Y-67830987D01*
X38788483Y-67691786D01*
X38663214Y-67566517D01*
X38519890Y-67462386D01*
X38362042Y-67381957D01*
X38362039Y-67381956D01*
X38193556Y-67327214D01*
X38106067Y-67313357D01*
X38018579Y-67299500D01*
X37841421Y-67299500D01*
X37783095Y-67308738D01*
X37666443Y-67327214D01*
X37497960Y-67381956D01*
X37497957Y-67381957D01*
X37340109Y-67462386D01*
X37258338Y-67521796D01*
X37196786Y-67566517D01*
X37196784Y-67566519D01*
X37196783Y-67566519D01*
X37071519Y-67691783D01*
X37071519Y-67691784D01*
X37071517Y-67691786D01*
X37026796Y-67753338D01*
X36967386Y-67835109D01*
X36886957Y-67992957D01*
X36886956Y-67992960D01*
X36832214Y-68161443D01*
X36804500Y-68336421D01*
X35100500Y-68336421D01*
X35100500Y-68277494D01*
X35061993Y-67985007D01*
X34985639Y-67700048D01*
X34984615Y-67697577D01*
X34930329Y-67566519D01*
X34872743Y-67427493D01*
X34846453Y-67381958D01*
X34725238Y-67172006D01*
X34545647Y-66937959D01*
X34545641Y-66937952D01*
X34337047Y-66729358D01*
X34337040Y-66729352D01*
X34102993Y-66549761D01*
X33847510Y-66402258D01*
X33847500Y-66402254D01*
X33574961Y-66289364D01*
X33574954Y-66289362D01*
X33574952Y-66289361D01*
X33289993Y-66213007D01*
X33241113Y-66206571D01*
X32997513Y-66174500D01*
X32997506Y-66174500D01*
X32702494Y-66174500D01*
X32702486Y-66174500D01*
X32424085Y-66211153D01*
X32410007Y-66213007D01*
X32125048Y-66289361D01*
X32125038Y-66289364D01*
X31852499Y-66402254D01*
X31852489Y-66402258D01*
X31597006Y-66549761D01*
X31362959Y-66729352D01*
X31362952Y-66729358D01*
X31154358Y-66937952D01*
X31154352Y-66937959D01*
X30974761Y-67172006D01*
X30827258Y-67427489D01*
X30827254Y-67427499D01*
X30714364Y-67700038D01*
X30714361Y-67700048D01*
X30678172Y-67835110D01*
X30638008Y-67985004D01*
X30638006Y-67985015D01*
X30599500Y-68277486D01*
X28886165Y-68277486D01*
X28867786Y-68161445D01*
X28813042Y-67992958D01*
X28813040Y-67992952D01*
X28730513Y-67830987D01*
X28717616Y-67762317D01*
X28743892Y-67697577D01*
X28800998Y-67657319D01*
X28857181Y-67651752D01*
X28916564Y-67659570D01*
X28923612Y-67660498D01*
X28923628Y-67660500D01*
X28923635Y-67660500D01*
X29156365Y-67660500D01*
X29156372Y-67660500D01*
X29387126Y-67630121D01*
X29611940Y-67569882D01*
X29669953Y-67545852D01*
X29826960Y-67480819D01*
X29826963Y-67480817D01*
X29826969Y-67480815D01*
X30028532Y-67364442D01*
X30213181Y-67222756D01*
X30377756Y-67058181D01*
X30519442Y-66873532D01*
X30635815Y-66671969D01*
X30724882Y-66456940D01*
X30785121Y-66232126D01*
X30815500Y-66001372D01*
X30815500Y-65768628D01*
X30785121Y-65537874D01*
X30724882Y-65313060D01*
X30724879Y-65313052D01*
X30635819Y-65098039D01*
X30635811Y-65098023D01*
X30519446Y-64896475D01*
X30519442Y-64896468D01*
X30377756Y-64711819D01*
X30377751Y-64711813D01*
X30213186Y-64547248D01*
X30213179Y-64547242D01*
X30028540Y-64405564D01*
X30028538Y-64405562D01*
X30028532Y-64405558D01*
X30028527Y-64405555D01*
X30028524Y-64405553D01*
X29826976Y-64289188D01*
X29826960Y-64289180D01*
X29611947Y-64200120D01*
X29387122Y-64139878D01*
X29156382Y-64109501D01*
X29156377Y-64109500D01*
X29156372Y-64109500D01*
X28923628Y-64109500D01*
X28923622Y-64109500D01*
X28923617Y-64109501D01*
X28692877Y-64139878D01*
X28468052Y-64200120D01*
X28253039Y-64289180D01*
X28253023Y-64289188D01*
X28051475Y-64405553D01*
X28051459Y-64405564D01*
X27866820Y-64547242D01*
X27866813Y-64547248D01*
X27702248Y-64711813D01*
X27702242Y-64711820D01*
X27560564Y-64896459D01*
X27560553Y-64896475D01*
X27444188Y-65098023D01*
X27444180Y-65098039D01*
X27355120Y-65313052D01*
X27294878Y-65537877D01*
X27264501Y-65768617D01*
X27264500Y-65768634D01*
X27264500Y-66001365D01*
X27264501Y-66001382D01*
X27294878Y-66232122D01*
X27355120Y-66456947D01*
X27444180Y-66671960D01*
X27444188Y-66671976D01*
X27560553Y-66873524D01*
X27560564Y-66873540D01*
X27702242Y-67058179D01*
X27702248Y-67058186D01*
X27735636Y-67091574D01*
X27769121Y-67152897D01*
X27764137Y-67222589D01*
X27722265Y-67278522D01*
X27667353Y-67301728D01*
X27506443Y-67327214D01*
X27337960Y-67381956D01*
X27337957Y-67381957D01*
X27180109Y-67462386D01*
X27098338Y-67521796D01*
X27036786Y-67566517D01*
X27036784Y-67566519D01*
X27036783Y-67566519D01*
X26911519Y-67691783D01*
X26911519Y-67691784D01*
X26911517Y-67691786D01*
X26866796Y-67753338D01*
X26807386Y-67835109D01*
X26726957Y-67992957D01*
X26726956Y-67992960D01*
X26672214Y-68161443D01*
X26644500Y-68336421D01*
X13850500Y-68336421D01*
X13850500Y-63228634D01*
X33614500Y-63228634D01*
X33614500Y-63461365D01*
X33614501Y-63461382D01*
X33644878Y-63692122D01*
X33705120Y-63916947D01*
X33794180Y-64131960D01*
X33794188Y-64131976D01*
X33910553Y-64333524D01*
X33910564Y-64333540D01*
X34052242Y-64518179D01*
X34052248Y-64518186D01*
X34216813Y-64682751D01*
X34216820Y-64682757D01*
X34254696Y-64711820D01*
X34401468Y-64824442D01*
X34401475Y-64824446D01*
X34603023Y-64940811D01*
X34603039Y-64940819D01*
X34818052Y-65029879D01*
X34818054Y-65029879D01*
X34818060Y-65029882D01*
X35042874Y-65090121D01*
X35273628Y-65120500D01*
X35273635Y-65120500D01*
X35506365Y-65120500D01*
X35506372Y-65120500D01*
X35737126Y-65090121D01*
X35961940Y-65029882D01*
X36019953Y-65005852D01*
X36176960Y-64940819D01*
X36176963Y-64940817D01*
X36176969Y-64940815D01*
X36378532Y-64824442D01*
X36563181Y-64682756D01*
X36727756Y-64518181D01*
X36869442Y-64333532D01*
X36985815Y-64131969D01*
X36995122Y-64109501D01*
X37074879Y-63916947D01*
X37074878Y-63916947D01*
X37074882Y-63916940D01*
X37135121Y-63692126D01*
X37165500Y-63461372D01*
X37165500Y-63228634D01*
X62819500Y-63228634D01*
X62819500Y-63461365D01*
X62819501Y-63461382D01*
X62849878Y-63692122D01*
X62910120Y-63916947D01*
X62999180Y-64131960D01*
X62999188Y-64131976D01*
X63115553Y-64333524D01*
X63115564Y-64333540D01*
X63257242Y-64518179D01*
X63257248Y-64518186D01*
X63421813Y-64682751D01*
X63421820Y-64682757D01*
X63459696Y-64711820D01*
X63606468Y-64824442D01*
X63606475Y-64824446D01*
X63808023Y-64940811D01*
X63808039Y-64940819D01*
X64023052Y-65029879D01*
X64023054Y-65029879D01*
X64023060Y-65029882D01*
X64247874Y-65090121D01*
X64478628Y-65120500D01*
X64478635Y-65120500D01*
X64711365Y-65120500D01*
X64711372Y-65120500D01*
X64942126Y-65090121D01*
X65166940Y-65029882D01*
X65224953Y-65005852D01*
X65381960Y-64940819D01*
X65381963Y-64940817D01*
X65381969Y-64940815D01*
X65583532Y-64824442D01*
X65768181Y-64682756D01*
X65932756Y-64518181D01*
X66074442Y-64333532D01*
X66190815Y-64131969D01*
X66200122Y-64109501D01*
X66279879Y-63916947D01*
X66279878Y-63916947D01*
X66279882Y-63916940D01*
X66340121Y-63692126D01*
X66370500Y-63461372D01*
X66370500Y-63228634D01*
X92024500Y-63228634D01*
X92024500Y-63461365D01*
X92024501Y-63461382D01*
X92054878Y-63692122D01*
X92115120Y-63916947D01*
X92204180Y-64131960D01*
X92204188Y-64131976D01*
X92320553Y-64333524D01*
X92320564Y-64333540D01*
X92462242Y-64518179D01*
X92462248Y-64518186D01*
X92626813Y-64682751D01*
X92626820Y-64682757D01*
X92664696Y-64711820D01*
X92811468Y-64824442D01*
X92811475Y-64824446D01*
X93013023Y-64940811D01*
X93013039Y-64940819D01*
X93228052Y-65029879D01*
X93228054Y-65029879D01*
X93228060Y-65029882D01*
X93452874Y-65090121D01*
X93683628Y-65120500D01*
X93683635Y-65120500D01*
X93916365Y-65120500D01*
X93916372Y-65120500D01*
X94147126Y-65090121D01*
X94371940Y-65029882D01*
X94429953Y-65005852D01*
X94586960Y-64940819D01*
X94586963Y-64940817D01*
X94586969Y-64940815D01*
X94788532Y-64824442D01*
X94973181Y-64682756D01*
X95137756Y-64518181D01*
X95279442Y-64333532D01*
X95395815Y-64131969D01*
X95405122Y-64109501D01*
X95484879Y-63916947D01*
X95484878Y-63916947D01*
X95484882Y-63916940D01*
X95545121Y-63692126D01*
X95575500Y-63461372D01*
X95575500Y-63228628D01*
X95545121Y-62997874D01*
X95484882Y-62773060D01*
X95484879Y-62773052D01*
X95395819Y-62558039D01*
X95395811Y-62558023D01*
X95279446Y-62356475D01*
X95279442Y-62356468D01*
X95137756Y-62171819D01*
X95137751Y-62171813D01*
X94973186Y-62007248D01*
X94973179Y-62007242D01*
X94788540Y-61865564D01*
X94788538Y-61865562D01*
X94788532Y-61865558D01*
X94788527Y-61865555D01*
X94788524Y-61865553D01*
X94586976Y-61749188D01*
X94586960Y-61749180D01*
X94371947Y-61660120D01*
X94147122Y-61599878D01*
X93916382Y-61569501D01*
X93916377Y-61569500D01*
X93916372Y-61569500D01*
X93683628Y-61569500D01*
X93683622Y-61569500D01*
X93683617Y-61569501D01*
X93452877Y-61599878D01*
X93228052Y-61660120D01*
X93013039Y-61749180D01*
X93013023Y-61749188D01*
X92811475Y-61865553D01*
X92811459Y-61865564D01*
X92626820Y-62007242D01*
X92626813Y-62007248D01*
X92462248Y-62171813D01*
X92462242Y-62171820D01*
X92320564Y-62356459D01*
X92320553Y-62356475D01*
X92204188Y-62558023D01*
X92204180Y-62558039D01*
X92115120Y-62773052D01*
X92054878Y-62997877D01*
X92024501Y-63228617D01*
X92024500Y-63228634D01*
X66370500Y-63228634D01*
X66370500Y-63228628D01*
X66340121Y-62997874D01*
X66279882Y-62773060D01*
X66279879Y-62773052D01*
X66190819Y-62558039D01*
X66190811Y-62558023D01*
X66074446Y-62356475D01*
X66074442Y-62356468D01*
X65932756Y-62171819D01*
X65932751Y-62171813D01*
X65768186Y-62007248D01*
X65768179Y-62007242D01*
X65583540Y-61865564D01*
X65583538Y-61865562D01*
X65583532Y-61865558D01*
X65583527Y-61865555D01*
X65583524Y-61865553D01*
X65381976Y-61749188D01*
X65381960Y-61749180D01*
X65166947Y-61660120D01*
X64942122Y-61599878D01*
X64711382Y-61569501D01*
X64711377Y-61569500D01*
X64711372Y-61569500D01*
X64478628Y-61569500D01*
X64478622Y-61569500D01*
X64478617Y-61569501D01*
X64247877Y-61599878D01*
X64023052Y-61660120D01*
X63808039Y-61749180D01*
X63808023Y-61749188D01*
X63606475Y-61865553D01*
X63606459Y-61865564D01*
X63421820Y-62007242D01*
X63421813Y-62007248D01*
X63257248Y-62171813D01*
X63257242Y-62171820D01*
X63115564Y-62356459D01*
X63115553Y-62356475D01*
X62999188Y-62558023D01*
X62999180Y-62558039D01*
X62910120Y-62773052D01*
X62849878Y-62997877D01*
X62819501Y-63228617D01*
X62819500Y-63228634D01*
X37165500Y-63228634D01*
X37165500Y-63228628D01*
X37135121Y-62997874D01*
X37074882Y-62773060D01*
X37074879Y-62773052D01*
X36985819Y-62558039D01*
X36985811Y-62558023D01*
X36869446Y-62356475D01*
X36869442Y-62356468D01*
X36727756Y-62171819D01*
X36727751Y-62171813D01*
X36563186Y-62007248D01*
X36563179Y-62007242D01*
X36378540Y-61865564D01*
X36378538Y-61865562D01*
X36378532Y-61865558D01*
X36378527Y-61865555D01*
X36378524Y-61865553D01*
X36176976Y-61749188D01*
X36176960Y-61749180D01*
X35961947Y-61660120D01*
X35737122Y-61599878D01*
X35506382Y-61569501D01*
X35506377Y-61569500D01*
X35506372Y-61569500D01*
X35273628Y-61569500D01*
X35273622Y-61569500D01*
X35273617Y-61569501D01*
X35042877Y-61599878D01*
X34818052Y-61660120D01*
X34603039Y-61749180D01*
X34603023Y-61749188D01*
X34401475Y-61865553D01*
X34401459Y-61865564D01*
X34216820Y-62007242D01*
X34216813Y-62007248D01*
X34052248Y-62171813D01*
X34052242Y-62171820D01*
X33910564Y-62356459D01*
X33910553Y-62356475D01*
X33794188Y-62558023D01*
X33794180Y-62558039D01*
X33705120Y-62773052D01*
X33644878Y-62997877D01*
X33614501Y-63228617D01*
X33614500Y-63228634D01*
X13850500Y-63228634D01*
X13850500Y-53998711D01*
X16199500Y-53998711D01*
X16199500Y-54241288D01*
X16231161Y-54481785D01*
X16293947Y-54716104D01*
X16386773Y-54940205D01*
X16386776Y-54940212D01*
X16508064Y-55150289D01*
X16508066Y-55150292D01*
X16508067Y-55150293D01*
X16655733Y-55342736D01*
X16655739Y-55342743D01*
X16827256Y-55514260D01*
X16827262Y-55514265D01*
X17019711Y-55661936D01*
X17229788Y-55783224D01*
X17453900Y-55876054D01*
X17688211Y-55938838D01*
X17868586Y-55962584D01*
X17928711Y-55970500D01*
X17928712Y-55970500D01*
X18171289Y-55970500D01*
X18219388Y-55964167D01*
X18411789Y-55938838D01*
X18646100Y-55876054D01*
X18870212Y-55783224D01*
X19080289Y-55661936D01*
X19272738Y-55514265D01*
X19444265Y-55342738D01*
X19591936Y-55150289D01*
X19713224Y-54940212D01*
X19806054Y-54716100D01*
X19868838Y-54481789D01*
X19900500Y-54241288D01*
X19900500Y-53998712D01*
X19900500Y-53998711D01*
X104219500Y-53998711D01*
X104219500Y-54241288D01*
X104251161Y-54481785D01*
X104313947Y-54716104D01*
X104406773Y-54940205D01*
X104406776Y-54940212D01*
X104528064Y-55150289D01*
X104528066Y-55150292D01*
X104528067Y-55150293D01*
X104675733Y-55342736D01*
X104675739Y-55342743D01*
X104847256Y-55514260D01*
X104847262Y-55514265D01*
X105039711Y-55661936D01*
X105249788Y-55783224D01*
X105473900Y-55876054D01*
X105708211Y-55938838D01*
X105888586Y-55962584D01*
X105948711Y-55970500D01*
X105948712Y-55970500D01*
X106191289Y-55970500D01*
X106239388Y-55964167D01*
X106431789Y-55938838D01*
X106666100Y-55876054D01*
X106890212Y-55783224D01*
X107100289Y-55661936D01*
X107292738Y-55514265D01*
X107464265Y-55342738D01*
X107611936Y-55150289D01*
X107733224Y-54940212D01*
X107826054Y-54716100D01*
X107888838Y-54481789D01*
X107920500Y-54241288D01*
X107920500Y-53998712D01*
X107888838Y-53758211D01*
X107826054Y-53523900D01*
X107733224Y-53299788D01*
X107611936Y-53089711D01*
X107464265Y-52897262D01*
X107464260Y-52897256D01*
X107292743Y-52725739D01*
X107292736Y-52725733D01*
X107100293Y-52578067D01*
X107100292Y-52578066D01*
X107100289Y-52578064D01*
X106890212Y-52456776D01*
X106890205Y-52456773D01*
X106666104Y-52363947D01*
X106431785Y-52301161D01*
X106191289Y-52269500D01*
X106191288Y-52269500D01*
X105948712Y-52269500D01*
X105948711Y-52269500D01*
X105708214Y-52301161D01*
X105473895Y-52363947D01*
X105249794Y-52456773D01*
X105249785Y-52456777D01*
X105039706Y-52578067D01*
X104847263Y-52725733D01*
X104847256Y-52725739D01*
X104675739Y-52897256D01*
X104675733Y-52897263D01*
X104528067Y-53089706D01*
X104406777Y-53299785D01*
X104406773Y-53299794D01*
X104313947Y-53523895D01*
X104251161Y-53758214D01*
X104219500Y-53998711D01*
X19900500Y-53998711D01*
X19868838Y-53758211D01*
X19806054Y-53523900D01*
X19713224Y-53299788D01*
X19591936Y-53089711D01*
X19444265Y-52897262D01*
X19444260Y-52897256D01*
X19272743Y-52725739D01*
X19272736Y-52725733D01*
X19080293Y-52578067D01*
X19080292Y-52578066D01*
X19080289Y-52578064D01*
X18870212Y-52456776D01*
X18870205Y-52456773D01*
X18646104Y-52363947D01*
X18411785Y-52301161D01*
X18171289Y-52269500D01*
X18171288Y-52269500D01*
X17928712Y-52269500D01*
X17928711Y-52269500D01*
X17688214Y-52301161D01*
X17453895Y-52363947D01*
X17229794Y-52456773D01*
X17229785Y-52456777D01*
X17019706Y-52578067D01*
X16827263Y-52725733D01*
X16827256Y-52725739D01*
X16655739Y-52897256D01*
X16655733Y-52897263D01*
X16508067Y-53089706D01*
X16386777Y-53299785D01*
X16386773Y-53299794D01*
X16293947Y-53523895D01*
X16231161Y-53758214D01*
X16199500Y-53998711D01*
X13850500Y-53998711D01*
X13850500Y-50044500D01*
X13870185Y-49977461D01*
X13922989Y-49931706D01*
X13974500Y-49920500D01*
X42775890Y-49920500D01*
X42775892Y-49920500D01*
X42903186Y-49886392D01*
X43017314Y-49820500D01*
X43110500Y-49727314D01*
X43176392Y-49613186D01*
X43210500Y-49485892D01*
X43210500Y-46683713D01*
X61569500Y-46683713D01*
X61569500Y-46896286D01*
X61602753Y-47106239D01*
X61668444Y-47308414D01*
X61764951Y-47497820D01*
X61889890Y-47669786D01*
X62040213Y-47820109D01*
X62212179Y-47945048D01*
X62212181Y-47945049D01*
X62212184Y-47945051D01*
X62401588Y-48041557D01*
X62603757Y-48107246D01*
X62813713Y-48140500D01*
X62813714Y-48140500D01*
X63026286Y-48140500D01*
X63026287Y-48140500D01*
X63236243Y-48107246D01*
X63438412Y-48041557D01*
X63627816Y-47945051D01*
X63649789Y-47929086D01*
X63799786Y-47820109D01*
X63799788Y-47820106D01*
X63799792Y-47820104D01*
X63950104Y-47669792D01*
X63950106Y-47669788D01*
X63950109Y-47669786D01*
X64075048Y-47497820D01*
X64075047Y-47497820D01*
X64075051Y-47497816D01*
X64171557Y-47308412D01*
X64237246Y-47106243D01*
X64270500Y-46896287D01*
X64270500Y-46683713D01*
X104769500Y-46683713D01*
X104769500Y-46896286D01*
X104802753Y-47106239D01*
X104868444Y-47308414D01*
X104964951Y-47497820D01*
X105089890Y-47669786D01*
X105240213Y-47820109D01*
X105412179Y-47945048D01*
X105412181Y-47945049D01*
X105412184Y-47945051D01*
X105601588Y-48041557D01*
X105803757Y-48107246D01*
X106013713Y-48140500D01*
X106013714Y-48140500D01*
X106226286Y-48140500D01*
X106226287Y-48140500D01*
X106436243Y-48107246D01*
X106638412Y-48041557D01*
X106827816Y-47945051D01*
X106849789Y-47929086D01*
X106999786Y-47820109D01*
X106999788Y-47820106D01*
X106999792Y-47820104D01*
X107150104Y-47669792D01*
X107150106Y-47669788D01*
X107150109Y-47669786D01*
X107275048Y-47497820D01*
X107275047Y-47497820D01*
X107275051Y-47497816D01*
X107371557Y-47308412D01*
X107437246Y-47106243D01*
X107470500Y-46896287D01*
X107470500Y-46683713D01*
X107437246Y-46473757D01*
X107371557Y-46271588D01*
X107275051Y-46082184D01*
X107275049Y-46082181D01*
X107275048Y-46082179D01*
X107150109Y-45910213D01*
X106999786Y-45759890D01*
X106827820Y-45634951D01*
X106638414Y-45538444D01*
X106638413Y-45538443D01*
X106638412Y-45538443D01*
X106436243Y-45472754D01*
X106436241Y-45472753D01*
X106436240Y-45472753D01*
X106274957Y-45447208D01*
X106226287Y-45439500D01*
X106013713Y-45439500D01*
X105965042Y-45447208D01*
X105803760Y-45472753D01*
X105601585Y-45538444D01*
X105412179Y-45634951D01*
X105240213Y-45759890D01*
X105089890Y-45910213D01*
X104964951Y-46082179D01*
X104868444Y-46271585D01*
X104802753Y-46473760D01*
X104769500Y-46683713D01*
X64270500Y-46683713D01*
X64237246Y-46473757D01*
X64171557Y-46271588D01*
X64075051Y-46082184D01*
X64075049Y-46082181D01*
X64075048Y-46082179D01*
X63950109Y-45910213D01*
X63799786Y-45759890D01*
X63627820Y-45634951D01*
X63438414Y-45538444D01*
X63438413Y-45538443D01*
X63438412Y-45538443D01*
X63236243Y-45472754D01*
X63236241Y-45472753D01*
X63236240Y-45472753D01*
X63074957Y-45447208D01*
X63026287Y-45439500D01*
X62813713Y-45439500D01*
X62765042Y-45447208D01*
X62603760Y-45472753D01*
X62401585Y-45538444D01*
X62212179Y-45634951D01*
X62040213Y-45759890D01*
X61889890Y-45910213D01*
X61764951Y-46082179D01*
X61668444Y-46271585D01*
X61602753Y-46473760D01*
X61569500Y-46683713D01*
X43210500Y-46683713D01*
X43210500Y-31798920D01*
X49119499Y-31798920D01*
X49148340Y-31943907D01*
X49148343Y-31943917D01*
X49179770Y-32019788D01*
X49204916Y-32080495D01*
X49221770Y-32105719D01*
X49230085Y-32118164D01*
X49287049Y-32203418D01*
X49287052Y-32203421D01*
X51894824Y-34811192D01*
X51928309Y-34872515D01*
X51929616Y-34918271D01*
X51914500Y-35013707D01*
X51914500Y-35013713D01*
X51914500Y-35226287D01*
X51924534Y-35289644D01*
X51944925Y-35418385D01*
X51947754Y-35436243D01*
X51995184Y-35582218D01*
X52013444Y-35638414D01*
X52109951Y-35827820D01*
X52234890Y-35999786D01*
X52385213Y-36150109D01*
X52557179Y-36275048D01*
X52557181Y-36275049D01*
X52557184Y-36275051D01*
X52566493Y-36279794D01*
X52617290Y-36327766D01*
X52634087Y-36395587D01*
X52611552Y-36461722D01*
X52566505Y-36500760D01*
X52557446Y-36505376D01*
X52557440Y-36505380D01*
X52503282Y-36544727D01*
X52503282Y-36544728D01*
X53135591Y-37177037D01*
X53072007Y-37194075D01*
X52957993Y-37259901D01*
X52864901Y-37352993D01*
X52799075Y-37467007D01*
X52782037Y-37530591D01*
X52149728Y-36898282D01*
X52149727Y-36898282D01*
X52110380Y-36952439D01*
X52013904Y-37141782D01*
X51948242Y-37343869D01*
X51948242Y-37343872D01*
X51915000Y-37553753D01*
X51915000Y-37766246D01*
X51948242Y-37976127D01*
X51948242Y-37976130D01*
X52013904Y-38178217D01*
X52110375Y-38367550D01*
X52149728Y-38421716D01*
X52782037Y-37789408D01*
X52799075Y-37852993D01*
X52864901Y-37967007D01*
X52957993Y-38060099D01*
X53072007Y-38125925D01*
X53135590Y-38142962D01*
X52503282Y-38775269D01*
X52503282Y-38775270D01*
X52557449Y-38814624D01*
X52746782Y-38911095D01*
X52948870Y-38976757D01*
X53158754Y-39010000D01*
X53371246Y-39010000D01*
X53581127Y-38976757D01*
X53581130Y-38976757D01*
X53783217Y-38911095D01*
X53972554Y-38814622D01*
X54026716Y-38775270D01*
X54026717Y-38775270D01*
X53394408Y-38142962D01*
X53457993Y-38125925D01*
X53572007Y-38060099D01*
X53665099Y-37967007D01*
X53730925Y-37852993D01*
X53747962Y-37789408D01*
X54380270Y-38421717D01*
X54380270Y-38421716D01*
X54419622Y-38367554D01*
X54516095Y-38178217D01*
X54581757Y-37976130D01*
X54581757Y-37976127D01*
X54615000Y-37766246D01*
X54615000Y-37553753D01*
X54581757Y-37343872D01*
X54581757Y-37343869D01*
X54516095Y-37141782D01*
X54419624Y-36952449D01*
X54380270Y-36898282D01*
X54380269Y-36898282D01*
X53747962Y-37530590D01*
X53730925Y-37467007D01*
X53665099Y-37352993D01*
X53572007Y-37259901D01*
X53457993Y-37194075D01*
X53394409Y-37177037D01*
X54026716Y-36544728D01*
X53972547Y-36505373D01*
X53972547Y-36505372D01*
X53963500Y-36500763D01*
X53912706Y-36452788D01*
X53895912Y-36384966D01*
X53918451Y-36318832D01*
X53963508Y-36279793D01*
X53972816Y-36275051D01*
X54073973Y-36201557D01*
X54144786Y-36150109D01*
X54144788Y-36150106D01*
X54144792Y-36150104D01*
X54295104Y-35999792D01*
X54295106Y-35999788D01*
X54295109Y-35999786D01*
X54420048Y-35827820D01*
X54420047Y-35827820D01*
X54420051Y-35827816D01*
X54516557Y-35638412D01*
X54582246Y-35436243D01*
X54615500Y-35226287D01*
X54615500Y-35013713D01*
X54582246Y-34803757D01*
X54516557Y-34601588D01*
X54420051Y-34412184D01*
X54420049Y-34412181D01*
X54420048Y-34412179D01*
X54295109Y-34240213D01*
X54144786Y-34089890D01*
X53972820Y-33964951D01*
X53972115Y-33964591D01*
X53964054Y-33960485D01*
X53913259Y-33912512D01*
X53896463Y-33844692D01*
X53918999Y-33778556D01*
X53964054Y-33739515D01*
X53972816Y-33735051D01*
X54110830Y-33634779D01*
X54144786Y-33610109D01*
X54144788Y-33610106D01*
X54144792Y-33610104D01*
X54295104Y-33459792D01*
X54295107Y-33459788D01*
X54351903Y-33381615D01*
X54407233Y-33338949D01*
X54452221Y-33330500D01*
X70735770Y-33330500D01*
X70802809Y-33350185D01*
X70823451Y-33366819D01*
X72097823Y-34641191D01*
X73367824Y-35911191D01*
X73401309Y-35972514D01*
X73402616Y-36018270D01*
X73387500Y-36113707D01*
X73387500Y-36326286D01*
X73415865Y-36505380D01*
X73420754Y-36536243D01*
X73444788Y-36610213D01*
X73486444Y-36738414D01*
X73582951Y-36927820D01*
X73707890Y-37099786D01*
X73858213Y-37250109D01*
X74030182Y-37375050D01*
X74038946Y-37379516D01*
X74089742Y-37427491D01*
X74106536Y-37495312D01*
X74083998Y-37561447D01*
X74038946Y-37600484D01*
X74030182Y-37604949D01*
X73858213Y-37729890D01*
X73707890Y-37880213D01*
X73582951Y-38052179D01*
X73486444Y-38241585D01*
X73420753Y-38443760D01*
X73408661Y-38520109D01*
X73387500Y-38653713D01*
X73387500Y-38866287D01*
X73420754Y-39076243D01*
X73444788Y-39150213D01*
X73486444Y-39278414D01*
X73582951Y-39467820D01*
X73707890Y-39639786D01*
X73858213Y-39790109D01*
X74030182Y-39915050D01*
X74038946Y-39919516D01*
X74089742Y-39967491D01*
X74106536Y-40035312D01*
X74083998Y-40101447D01*
X74038946Y-40140484D01*
X74030182Y-40144949D01*
X73858213Y-40269890D01*
X73707890Y-40420213D01*
X73582951Y-40592179D01*
X73486444Y-40781585D01*
X73420753Y-40983760D01*
X73408661Y-41060109D01*
X73387500Y-41193713D01*
X73387500Y-41406287D01*
X73420754Y-41616243D01*
X73444788Y-41690213D01*
X73486444Y-41818414D01*
X73582951Y-42007820D01*
X73707890Y-42179786D01*
X73858213Y-42330109D01*
X74030182Y-42455050D01*
X74038946Y-42459516D01*
X74089742Y-42507491D01*
X74106536Y-42575312D01*
X74083998Y-42641447D01*
X74038946Y-42680484D01*
X74030182Y-42684949D01*
X73858213Y-42809890D01*
X73707890Y-42960213D01*
X73582951Y-43132179D01*
X73486444Y-43321585D01*
X73420753Y-43523760D01*
X73387500Y-43733713D01*
X73387500Y-43946286D01*
X73420753Y-44156239D01*
X73486444Y-44358414D01*
X73582951Y-44547820D01*
X73707890Y-44719786D01*
X73858213Y-44870109D01*
X74030179Y-44995048D01*
X74030181Y-44995049D01*
X74030184Y-44995051D01*
X74219588Y-45091557D01*
X74421757Y-45157246D01*
X74631713Y-45190500D01*
X74631714Y-45190500D01*
X74844286Y-45190500D01*
X74844287Y-45190500D01*
X75054243Y-45157246D01*
X75256412Y-45091557D01*
X75445816Y-44995051D01*
X75467789Y-44979086D01*
X75617786Y-44870109D01*
X75617788Y-44870106D01*
X75617792Y-44870104D01*
X75768104Y-44719792D01*
X75768106Y-44719788D01*
X75768109Y-44719786D01*
X75893048Y-44547820D01*
X75893047Y-44547820D01*
X75893051Y-44547816D01*
X75989557Y-44358412D01*
X76055246Y-44156243D01*
X76088500Y-43946287D01*
X76088500Y-43733713D01*
X76055246Y-43523757D01*
X75989557Y-43321588D01*
X75893051Y-43132184D01*
X75893049Y-43132181D01*
X75893048Y-43132179D01*
X75768109Y-42960213D01*
X75617786Y-42809890D01*
X75445820Y-42684951D01*
X75445115Y-42684591D01*
X75437054Y-42680485D01*
X75386259Y-42632512D01*
X75369463Y-42564692D01*
X75391999Y-42498556D01*
X75437054Y-42459515D01*
X75445816Y-42455051D01*
X75565261Y-42368270D01*
X75617786Y-42330109D01*
X75617788Y-42330106D01*
X75617792Y-42330104D01*
X75768104Y-42179792D01*
X75768106Y-42179788D01*
X75768109Y-42179786D01*
X75893048Y-42007820D01*
X75893047Y-42007820D01*
X75893051Y-42007816D01*
X75989557Y-41818412D01*
X76055246Y-41616243D01*
X76088500Y-41406287D01*
X76088500Y-41193713D01*
X76055246Y-40983757D01*
X75989557Y-40781588D01*
X75893051Y-40592184D01*
X75893049Y-40592181D01*
X75893048Y-40592179D01*
X75768109Y-40420213D01*
X75617786Y-40269890D01*
X75445820Y-40144951D01*
X75445115Y-40144591D01*
X75437054Y-40140485D01*
X75386259Y-40092512D01*
X75369463Y-40024692D01*
X75391999Y-39958556D01*
X75437054Y-39919515D01*
X75445816Y-39915051D01*
X75565258Y-39828272D01*
X75617786Y-39790109D01*
X75617788Y-39790106D01*
X75617792Y-39790104D01*
X75768104Y-39639792D01*
X75768106Y-39639788D01*
X75768109Y-39639786D01*
X75893048Y-39467820D01*
X75893047Y-39467820D01*
X75893051Y-39467816D01*
X75989557Y-39278412D01*
X76055246Y-39076243D01*
X76088500Y-38866287D01*
X76088500Y-38653713D01*
X76055246Y-38443757D01*
X75989557Y-38241588D01*
X75893051Y-38052184D01*
X75893049Y-38052181D01*
X75893048Y-38052179D01*
X75768109Y-37880213D01*
X75617786Y-37729890D01*
X75445820Y-37604951D01*
X75445115Y-37604591D01*
X75437054Y-37600485D01*
X75386259Y-37552512D01*
X75369463Y-37484692D01*
X75391999Y-37418556D01*
X75437054Y-37379515D01*
X75445816Y-37375051D01*
X75488735Y-37343869D01*
X75617786Y-37250109D01*
X75617788Y-37250106D01*
X75617792Y-37250104D01*
X75768104Y-37099792D01*
X75768106Y-37099788D01*
X75768109Y-37099786D01*
X75893048Y-36927820D01*
X75893047Y-36927820D01*
X75893051Y-36927816D01*
X75989557Y-36738412D01*
X76055246Y-36536243D01*
X76088500Y-36326287D01*
X76088500Y-36113713D01*
X76055246Y-35903757D01*
X75989557Y-35701588D01*
X75893051Y-35512184D01*
X75893049Y-35512181D01*
X75893048Y-35512179D01*
X75768109Y-35340213D01*
X75617786Y-35189890D01*
X75445820Y-35064951D01*
X75445115Y-35064591D01*
X75437054Y-35060485D01*
X75386259Y-35012512D01*
X75369463Y-34944692D01*
X75391999Y-34878556D01*
X75437054Y-34839515D01*
X75445816Y-34835051D01*
X75565258Y-34748272D01*
X75617786Y-34710109D01*
X75617788Y-34710106D01*
X75617792Y-34710104D01*
X75768104Y-34559792D01*
X75768106Y-34559788D01*
X75768109Y-34559786D01*
X75893048Y-34387820D01*
X75893047Y-34387820D01*
X75893051Y-34387816D01*
X75989557Y-34198412D01*
X76055246Y-33996243D01*
X76088500Y-33786287D01*
X76088500Y-33573713D01*
X76055246Y-33363757D01*
X75989557Y-33161588D01*
X75893051Y-32972184D01*
X75893049Y-32972181D01*
X75893048Y-32972179D01*
X75768109Y-32800213D01*
X75617786Y-32649890D01*
X75445820Y-32524951D01*
X75445115Y-32524591D01*
X75437054Y-32520485D01*
X75386259Y-32472512D01*
X75369463Y-32404692D01*
X75391999Y-32338556D01*
X75437054Y-32299515D01*
X75445816Y-32295051D01*
X75571935Y-32203421D01*
X75617786Y-32170109D01*
X75617788Y-32170106D01*
X75617792Y-32170104D01*
X75768104Y-32019792D01*
X75768106Y-32019788D01*
X75768109Y-32019786D01*
X75893048Y-31847820D01*
X75893047Y-31847820D01*
X75893051Y-31847816D01*
X75989557Y-31658412D01*
X76055246Y-31456243D01*
X76088500Y-31246287D01*
X76088500Y-31033713D01*
X76055246Y-30823757D01*
X75989557Y-30621588D01*
X75893051Y-30432184D01*
X75893049Y-30432181D01*
X75893048Y-30432179D01*
X75768109Y-30260213D01*
X75617786Y-30109890D01*
X75445820Y-29984951D01*
X75445115Y-29984591D01*
X75437054Y-29980485D01*
X75386259Y-29932512D01*
X75369463Y-29864692D01*
X75391999Y-29798556D01*
X75437054Y-29759515D01*
X75445816Y-29755051D01*
X75565258Y-29668272D01*
X75617786Y-29630109D01*
X75617788Y-29630106D01*
X75617792Y-29630104D01*
X75768104Y-29479792D01*
X75768106Y-29479788D01*
X75768109Y-29479786D01*
X75893048Y-29307820D01*
X75893047Y-29307820D01*
X75893051Y-29307816D01*
X75989557Y-29118412D01*
X76055246Y-28916243D01*
X76088500Y-28706287D01*
X76088500Y-28493713D01*
X76073382Y-28398268D01*
X76082336Y-28328979D01*
X76108171Y-28291195D01*
X81392548Y-23006819D01*
X81453871Y-22973334D01*
X81480229Y-22970500D01*
X88300500Y-22970500D01*
X88367539Y-22990185D01*
X88413294Y-23042989D01*
X88424500Y-23094500D01*
X88424500Y-24417870D01*
X88424501Y-24417876D01*
X88430908Y-24477483D01*
X88481202Y-24612328D01*
X88481206Y-24612335D01*
X88567452Y-24727544D01*
X88567455Y-24727547D01*
X88682664Y-24813793D01*
X88682671Y-24813797D01*
X88814082Y-24862810D01*
X88870016Y-24904681D01*
X88894433Y-24970145D01*
X88879582Y-25038418D01*
X88858431Y-25066673D01*
X88744889Y-25180215D01*
X88619951Y-25352179D01*
X88523444Y-25541585D01*
X88457753Y-25743760D01*
X88424500Y-25953713D01*
X88424500Y-26166286D01*
X88441712Y-26274962D01*
X88457754Y-26376243D01*
X88481788Y-26450213D01*
X88523444Y-26578414D01*
X88619951Y-26767820D01*
X88744890Y-26939786D01*
X88895213Y-27090109D01*
X89067182Y-27215050D01*
X89075946Y-27219516D01*
X89126742Y-27267491D01*
X89143536Y-27335312D01*
X89120998Y-27401447D01*
X89075946Y-27440484D01*
X89067182Y-27444949D01*
X88895213Y-27569890D01*
X88744890Y-27720213D01*
X88619951Y-27892179D01*
X88523444Y-28081585D01*
X88457753Y-28283760D01*
X88439679Y-28397876D01*
X88424500Y-28493713D01*
X88424500Y-28706287D01*
X88457754Y-28916243D01*
X88500133Y-29046673D01*
X88523444Y-29118414D01*
X88619951Y-29307820D01*
X88744890Y-29479786D01*
X88895213Y-29630109D01*
X89067182Y-29755050D01*
X89075946Y-29759516D01*
X89126742Y-29807491D01*
X89143536Y-29875312D01*
X89120998Y-29941447D01*
X89075946Y-29980484D01*
X89067182Y-29984949D01*
X88895213Y-30109890D01*
X88744890Y-30260213D01*
X88619951Y-30432179D01*
X88523444Y-30621585D01*
X88457753Y-30823760D01*
X88424500Y-31033713D01*
X88424500Y-31246286D01*
X88456836Y-31450451D01*
X88457754Y-31456243D01*
X88481788Y-31530213D01*
X88523444Y-31658414D01*
X88619951Y-31847820D01*
X88744890Y-32019786D01*
X88895213Y-32170109D01*
X89067182Y-32295050D01*
X89075946Y-32299516D01*
X89126742Y-32347491D01*
X89143536Y-32415312D01*
X89120998Y-32481447D01*
X89075946Y-32520484D01*
X89067182Y-32524949D01*
X88895213Y-32649890D01*
X88744890Y-32800213D01*
X88619951Y-32972179D01*
X88523444Y-33161585D01*
X88457753Y-33363760D01*
X88424500Y-33573713D01*
X88424500Y-33786286D01*
X88452090Y-33960486D01*
X88457754Y-33996243D01*
X88481788Y-34070213D01*
X88523444Y-34198414D01*
X88619951Y-34387820D01*
X88744890Y-34559786D01*
X88895213Y-34710109D01*
X89067182Y-34835050D01*
X89075946Y-34839516D01*
X89126742Y-34887491D01*
X89143536Y-34955312D01*
X89120998Y-35021447D01*
X89075946Y-35060484D01*
X89067182Y-35064949D01*
X88895213Y-35189890D01*
X88744890Y-35340213D01*
X88619951Y-35512179D01*
X88523444Y-35701585D01*
X88457753Y-35903760D01*
X88424500Y-36113713D01*
X88424500Y-36326286D01*
X88452865Y-36505380D01*
X88457754Y-36536243D01*
X88481788Y-36610213D01*
X88523444Y-36738414D01*
X88619951Y-36927820D01*
X88744890Y-37099786D01*
X88895213Y-37250109D01*
X89067182Y-37375050D01*
X89075946Y-37379516D01*
X89126742Y-37427491D01*
X89143536Y-37495312D01*
X89120998Y-37561447D01*
X89075946Y-37600484D01*
X89067182Y-37604949D01*
X88895213Y-37729890D01*
X88744890Y-37880213D01*
X88619951Y-38052179D01*
X88523444Y-38241585D01*
X88457753Y-38443760D01*
X88445661Y-38520109D01*
X88424500Y-38653713D01*
X88424500Y-38866287D01*
X88457754Y-39076243D01*
X88481788Y-39150213D01*
X88523444Y-39278414D01*
X88619951Y-39467820D01*
X88744890Y-39639786D01*
X88895213Y-39790109D01*
X89067182Y-39915050D01*
X89075946Y-39919516D01*
X89126742Y-39967491D01*
X89143536Y-40035312D01*
X89120998Y-40101447D01*
X89075946Y-40140484D01*
X89067182Y-40144949D01*
X88895213Y-40269890D01*
X88744890Y-40420213D01*
X88619951Y-40592179D01*
X88523444Y-40781585D01*
X88457753Y-40983760D01*
X88445661Y-41060109D01*
X88424500Y-41193713D01*
X88424500Y-41406287D01*
X88457754Y-41616243D01*
X88481788Y-41690213D01*
X88523444Y-41818414D01*
X88619951Y-42007820D01*
X88744890Y-42179786D01*
X88895213Y-42330109D01*
X89067182Y-42455050D01*
X89075946Y-42459516D01*
X89126742Y-42507491D01*
X89143536Y-42575312D01*
X89120998Y-42641447D01*
X89075946Y-42680484D01*
X89067182Y-42684949D01*
X88895213Y-42809890D01*
X88744890Y-42960213D01*
X88619951Y-43132179D01*
X88523444Y-43321585D01*
X88457753Y-43523760D01*
X88424500Y-43733713D01*
X88424500Y-43946286D01*
X88457753Y-44156239D01*
X88523444Y-44358414D01*
X88619951Y-44547820D01*
X88744890Y-44719786D01*
X88895213Y-44870109D01*
X89067179Y-44995048D01*
X89067181Y-44995049D01*
X89067184Y-44995051D01*
X89256588Y-45091557D01*
X89458757Y-45157246D01*
X89668713Y-45190500D01*
X89668714Y-45190500D01*
X89881286Y-45190500D01*
X89881287Y-45190500D01*
X90091243Y-45157246D01*
X90293412Y-45091557D01*
X90482816Y-44995051D01*
X90504789Y-44979086D01*
X90654786Y-44870109D01*
X90654788Y-44870106D01*
X90654792Y-44870104D01*
X90805104Y-44719792D01*
X90805106Y-44719788D01*
X90805109Y-44719786D01*
X90930048Y-44547820D01*
X90930047Y-44547820D01*
X90930051Y-44547816D01*
X91026557Y-44358412D01*
X91092246Y-44156243D01*
X91125500Y-43946287D01*
X91125500Y-43733713D01*
X91092246Y-43523757D01*
X91026557Y-43321588D01*
X90930051Y-43132184D01*
X90930049Y-43132181D01*
X90930048Y-43132179D01*
X90805109Y-42960213D01*
X90654786Y-42809890D01*
X90482820Y-42684951D01*
X90482115Y-42684591D01*
X90474054Y-42680485D01*
X90423259Y-42632512D01*
X90406463Y-42564692D01*
X90428999Y-42498556D01*
X90474054Y-42459515D01*
X90482816Y-42455051D01*
X90602261Y-42368270D01*
X90654786Y-42330109D01*
X90654788Y-42330106D01*
X90654792Y-42330104D01*
X90805104Y-42179792D01*
X90805106Y-42179788D01*
X90805109Y-42179786D01*
X90930048Y-42007820D01*
X90930047Y-42007820D01*
X90930051Y-42007816D01*
X91026557Y-41818412D01*
X91092246Y-41616243D01*
X91125500Y-41406287D01*
X91125500Y-41193713D01*
X91092246Y-40983757D01*
X91026557Y-40781588D01*
X90930051Y-40592184D01*
X90930049Y-40592181D01*
X90930048Y-40592179D01*
X90805109Y-40420213D01*
X90654786Y-40269890D01*
X90482820Y-40144951D01*
X90482115Y-40144591D01*
X90474054Y-40140485D01*
X90423259Y-40092512D01*
X90406463Y-40024692D01*
X90428999Y-39958556D01*
X90474054Y-39919515D01*
X90482816Y-39915051D01*
X90602258Y-39828272D01*
X90654786Y-39790109D01*
X90654788Y-39790106D01*
X90654792Y-39790104D01*
X90805104Y-39639792D01*
X90805106Y-39639788D01*
X90805109Y-39639786D01*
X90930048Y-39467820D01*
X90930047Y-39467820D01*
X90930051Y-39467816D01*
X91026557Y-39278412D01*
X91092246Y-39076243D01*
X91125500Y-38866287D01*
X91125500Y-38653713D01*
X91092246Y-38443757D01*
X91026557Y-38241588D01*
X90930051Y-38052184D01*
X90930049Y-38052181D01*
X90930048Y-38052179D01*
X90805109Y-37880213D01*
X90654786Y-37729890D01*
X90482820Y-37604951D01*
X90482115Y-37604591D01*
X90474054Y-37600485D01*
X90423259Y-37552512D01*
X90406463Y-37484692D01*
X90428999Y-37418556D01*
X90474054Y-37379515D01*
X90482816Y-37375051D01*
X90525735Y-37343869D01*
X90654786Y-37250109D01*
X90654788Y-37250106D01*
X90654792Y-37250104D01*
X90805104Y-37099792D01*
X90805108Y-37099786D01*
X90861903Y-37021615D01*
X90917233Y-36978949D01*
X90962221Y-36970500D01*
X100362770Y-36970500D01*
X100429809Y-36990185D01*
X100450451Y-37006819D01*
X105704824Y-42261191D01*
X105738309Y-42322514D01*
X105739616Y-42368270D01*
X105724500Y-42463707D01*
X105724500Y-42463713D01*
X105724500Y-42676287D01*
X105757754Y-42886243D01*
X105781788Y-42960213D01*
X105823444Y-43088414D01*
X105919951Y-43277820D01*
X106044890Y-43449786D01*
X106195213Y-43600109D01*
X106367179Y-43725048D01*
X106367181Y-43725049D01*
X106367184Y-43725051D01*
X106556588Y-43821557D01*
X106758757Y-43887246D01*
X106968713Y-43920500D01*
X106968714Y-43920500D01*
X107181286Y-43920500D01*
X107181287Y-43920500D01*
X107391243Y-43887246D01*
X107593412Y-43821557D01*
X107782816Y-43725051D01*
X107804789Y-43709086D01*
X107954786Y-43600109D01*
X107954788Y-43600106D01*
X107954792Y-43600104D01*
X108105104Y-43449792D01*
X108105106Y-43449788D01*
X108105109Y-43449786D01*
X108230048Y-43277820D01*
X108230047Y-43277820D01*
X108230051Y-43277816D01*
X108326557Y-43088412D01*
X108392246Y-42886243D01*
X108425500Y-42676287D01*
X108425500Y-42463713D01*
X108392246Y-42253757D01*
X108326557Y-42051588D01*
X108230051Y-41862184D01*
X108230049Y-41862181D01*
X108230048Y-41862179D01*
X108105109Y-41690213D01*
X107954786Y-41539890D01*
X107782820Y-41414951D01*
X107782115Y-41414591D01*
X107774054Y-41410485D01*
X107723259Y-41362512D01*
X107706463Y-41294692D01*
X107728999Y-41228556D01*
X107774054Y-41189515D01*
X107782816Y-41185051D01*
X107804789Y-41169086D01*
X107954786Y-41060109D01*
X107954788Y-41060106D01*
X107954792Y-41060104D01*
X108105104Y-40909792D01*
X108105106Y-40909788D01*
X108105109Y-40909786D01*
X108230048Y-40737820D01*
X108230047Y-40737820D01*
X108230051Y-40737816D01*
X108326557Y-40548412D01*
X108392246Y-40346243D01*
X108425500Y-40136287D01*
X108425500Y-39923713D01*
X108392246Y-39713757D01*
X108326557Y-39511588D01*
X108230051Y-39322184D01*
X108230049Y-39322181D01*
X108230048Y-39322179D01*
X108105109Y-39150213D01*
X107954786Y-38999890D01*
X107782820Y-38874951D01*
X107782115Y-38874591D01*
X107774054Y-38870485D01*
X107723259Y-38822512D01*
X107706463Y-38754692D01*
X107728999Y-38688556D01*
X107774054Y-38649515D01*
X107782816Y-38645051D01*
X107804789Y-38629086D01*
X107954786Y-38520109D01*
X107954788Y-38520106D01*
X107954792Y-38520104D01*
X108105104Y-38369792D01*
X108105106Y-38369788D01*
X108105109Y-38369786D01*
X108230048Y-38197820D01*
X108230047Y-38197820D01*
X108230051Y-38197816D01*
X108326557Y-38008412D01*
X108392246Y-37806243D01*
X108425500Y-37596287D01*
X108425500Y-37383713D01*
X108392246Y-37173757D01*
X108326557Y-36971588D01*
X108230051Y-36782184D01*
X108230049Y-36782181D01*
X108230048Y-36782179D01*
X108105109Y-36610213D01*
X107954786Y-36459890D01*
X107782820Y-36334951D01*
X107782115Y-36334591D01*
X107774054Y-36330485D01*
X107723259Y-36282512D01*
X107706463Y-36214692D01*
X107728999Y-36148556D01*
X107774054Y-36109515D01*
X107782816Y-36105051D01*
X107927694Y-35999792D01*
X107954786Y-35980109D01*
X107954788Y-35980106D01*
X107954792Y-35980104D01*
X108105104Y-35829792D01*
X108105106Y-35829788D01*
X108105109Y-35829786D01*
X108230048Y-35657820D01*
X108230047Y-35657820D01*
X108230051Y-35657816D01*
X108326557Y-35468412D01*
X108392246Y-35266243D01*
X108425500Y-35056287D01*
X108425500Y-34843713D01*
X108392246Y-34633757D01*
X108326557Y-34431588D01*
X108230051Y-34242184D01*
X108230049Y-34242181D01*
X108230048Y-34242179D01*
X108105109Y-34070213D01*
X107954786Y-33919890D01*
X107782820Y-33794951D01*
X107782115Y-33794591D01*
X107774054Y-33790485D01*
X107723259Y-33742512D01*
X107706463Y-33674692D01*
X107728999Y-33608556D01*
X107774054Y-33569515D01*
X107782816Y-33565051D01*
X107927694Y-33459792D01*
X107954786Y-33440109D01*
X107954788Y-33440106D01*
X107954792Y-33440104D01*
X108105104Y-33289792D01*
X108105106Y-33289788D01*
X108105109Y-33289786D01*
X108230048Y-33117820D01*
X108230047Y-33117820D01*
X108230051Y-33117816D01*
X108326557Y-32928412D01*
X108392246Y-32726243D01*
X108425500Y-32516287D01*
X108425500Y-32303713D01*
X108392246Y-32093757D01*
X108326557Y-31891588D01*
X108230051Y-31702184D01*
X108230049Y-31702181D01*
X108230048Y-31702179D01*
X108105109Y-31530213D01*
X107954786Y-31379890D01*
X107782820Y-31254951D01*
X107782115Y-31254591D01*
X107774054Y-31250485D01*
X107723259Y-31202512D01*
X107706463Y-31134692D01*
X107728999Y-31068556D01*
X107774054Y-31029515D01*
X107782816Y-31025051D01*
X107927694Y-30919792D01*
X107954786Y-30900109D01*
X107954788Y-30900106D01*
X107954792Y-30900104D01*
X108105104Y-30749792D01*
X108105106Y-30749788D01*
X108105109Y-30749786D01*
X108230048Y-30577820D01*
X108230047Y-30577820D01*
X108230051Y-30577816D01*
X108326557Y-30388412D01*
X108392246Y-30186243D01*
X108425500Y-29976287D01*
X108425500Y-29763713D01*
X108392246Y-29553757D01*
X108326557Y-29351588D01*
X108230051Y-29162184D01*
X108230049Y-29162181D01*
X108230048Y-29162179D01*
X108105109Y-28990213D01*
X107954786Y-28839890D01*
X107782820Y-28714951D01*
X107782115Y-28714591D01*
X107774054Y-28710485D01*
X107723259Y-28662512D01*
X107706463Y-28594692D01*
X107728999Y-28528556D01*
X107774054Y-28489515D01*
X107782816Y-28485051D01*
X107902258Y-28398272D01*
X107954786Y-28360109D01*
X107954788Y-28360106D01*
X107954792Y-28360104D01*
X108105104Y-28209792D01*
X108105106Y-28209788D01*
X108105109Y-28209786D01*
X108230048Y-28037820D01*
X108230047Y-28037820D01*
X108230051Y-28037816D01*
X108326557Y-27848412D01*
X108392246Y-27646243D01*
X108425500Y-27436287D01*
X108425500Y-27223713D01*
X108392246Y-27013757D01*
X108326557Y-26811588D01*
X108230051Y-26622184D01*
X108230049Y-26622181D01*
X108230048Y-26622179D01*
X108105109Y-26450213D01*
X107991181Y-26336285D01*
X107957696Y-26274962D01*
X107962680Y-26205270D01*
X108004552Y-26149337D01*
X108035529Y-26132422D01*
X108167086Y-26083354D01*
X108167093Y-26083350D01*
X108282187Y-25997190D01*
X108282190Y-25997187D01*
X108368350Y-25882093D01*
X108368354Y-25882086D01*
X108418596Y-25747379D01*
X108418598Y-25747372D01*
X108424999Y-25687844D01*
X108425000Y-25687827D01*
X108425000Y-25040000D01*
X107508012Y-25040000D01*
X107540925Y-24982993D01*
X107575000Y-24855826D01*
X107575000Y-24724174D01*
X107540925Y-24597007D01*
X107508012Y-24540000D01*
X108425000Y-24540000D01*
X108425000Y-23892172D01*
X108424999Y-23892155D01*
X108418598Y-23832627D01*
X108418596Y-23832620D01*
X108368354Y-23697913D01*
X108368350Y-23697906D01*
X108282190Y-23582812D01*
X108282187Y-23582809D01*
X108167093Y-23496649D01*
X108167086Y-23496645D01*
X108032379Y-23446403D01*
X108032372Y-23446401D01*
X107972844Y-23440000D01*
X107325000Y-23440000D01*
X107325000Y-24356988D01*
X107267993Y-24324075D01*
X107140826Y-24290000D01*
X107009174Y-24290000D01*
X106882007Y-24324075D01*
X106825000Y-24356988D01*
X106825000Y-23440000D01*
X106177155Y-23440000D01*
X106117627Y-23446401D01*
X106117620Y-23446403D01*
X105982913Y-23496645D01*
X105982906Y-23496649D01*
X105867812Y-23582809D01*
X105867809Y-23582812D01*
X105781649Y-23697906D01*
X105781645Y-23697913D01*
X105731403Y-23832620D01*
X105731401Y-23832627D01*
X105725000Y-23892155D01*
X105725000Y-24619269D01*
X105705315Y-24686308D01*
X105652511Y-24732063D01*
X105583353Y-24742007D01*
X105519797Y-24712982D01*
X105513319Y-24706950D01*
X102443421Y-21637052D01*
X102443414Y-21637046D01*
X102369729Y-21587812D01*
X102369729Y-21587813D01*
X102320491Y-21554913D01*
X102183917Y-21498343D01*
X102183907Y-21498340D01*
X102038920Y-21469500D01*
X102038918Y-21469500D01*
X81044082Y-21469500D01*
X81044076Y-21469500D01*
X81015242Y-21475234D01*
X81015243Y-21475235D01*
X80899093Y-21498339D01*
X80899083Y-21498342D01*
X80819081Y-21531479D01*
X80819082Y-21531480D01*
X80762506Y-21554915D01*
X80762503Y-21554917D01*
X80748904Y-21564003D01*
X80694876Y-21600104D01*
X80694875Y-21600105D01*
X80639586Y-21637046D01*
X80639581Y-21637050D01*
X76292197Y-25984432D01*
X76230874Y-26017917D01*
X76161182Y-26012933D01*
X76105249Y-25971061D01*
X76082043Y-25916148D01*
X76054758Y-25743874D01*
X76054757Y-25743869D01*
X75989095Y-25541782D01*
X75892624Y-25352449D01*
X75853270Y-25298282D01*
X75853269Y-25298282D01*
X75220962Y-25930589D01*
X75203925Y-25867007D01*
X75138099Y-25752993D01*
X75045007Y-25659901D01*
X74930993Y-25594075D01*
X74867409Y-25577037D01*
X75537627Y-24906818D01*
X75598950Y-24873333D01*
X75625307Y-24870499D01*
X75635872Y-24870499D01*
X75695483Y-24864091D01*
X75830331Y-24813796D01*
X75945546Y-24727546D01*
X76031796Y-24612331D01*
X76082091Y-24477483D01*
X76088500Y-24417873D01*
X76088499Y-22622128D01*
X76082091Y-22562517D01*
X76037117Y-22441936D01*
X76031797Y-22427671D01*
X76031793Y-22427664D01*
X75945547Y-22312455D01*
X75945544Y-22312452D01*
X75830335Y-22226206D01*
X75830328Y-22226202D01*
X75695482Y-22175908D01*
X75695483Y-22175908D01*
X75635883Y-22169501D01*
X75635881Y-22169500D01*
X75635873Y-22169500D01*
X75635864Y-22169500D01*
X73840129Y-22169500D01*
X73840123Y-22169501D01*
X73780516Y-22175908D01*
X73645671Y-22226202D01*
X73645664Y-22226206D01*
X73530455Y-22312452D01*
X73530452Y-22312455D01*
X73444206Y-22427664D01*
X73444202Y-22427671D01*
X73393908Y-22562517D01*
X73387501Y-22622116D01*
X73387501Y-22622123D01*
X73387500Y-22622135D01*
X73387500Y-24417870D01*
X73387501Y-24417876D01*
X73393908Y-24477483D01*
X73444202Y-24612328D01*
X73444206Y-24612335D01*
X73530452Y-24727544D01*
X73530455Y-24727547D01*
X73645664Y-24813793D01*
X73645671Y-24813797D01*
X73690618Y-24830561D01*
X73780517Y-24864091D01*
X73840127Y-24870500D01*
X73850685Y-24870499D01*
X73917723Y-24890179D01*
X73938372Y-24906818D01*
X74608591Y-25577037D01*
X74545007Y-25594075D01*
X74430993Y-25659901D01*
X74337901Y-25752993D01*
X74272075Y-25867007D01*
X74255037Y-25930591D01*
X73622728Y-25298282D01*
X73622727Y-25298282D01*
X73583380Y-25352439D01*
X73486904Y-25541782D01*
X73421242Y-25743869D01*
X73421242Y-25743872D01*
X73393955Y-25916151D01*
X73364025Y-25979286D01*
X73304714Y-26016217D01*
X73234851Y-26015219D01*
X73183801Y-25984434D01*
X72953867Y-25754500D01*
X71923542Y-24724174D01*
X71496421Y-24297052D01*
X71496420Y-24297051D01*
X71486144Y-24290185D01*
X71413517Y-24241658D01*
X71413516Y-24241657D01*
X71373500Y-24214919D01*
X71373488Y-24214912D01*
X71236917Y-24158343D01*
X71236907Y-24158340D01*
X71091920Y-24129500D01*
X71091918Y-24129500D01*
X49943918Y-24129500D01*
X49796082Y-24129500D01*
X49796080Y-24129500D01*
X49651092Y-24158340D01*
X49651082Y-24158343D01*
X49514511Y-24214912D01*
X49514498Y-24214919D01*
X49391584Y-24297048D01*
X49391580Y-24297051D01*
X49287051Y-24401580D01*
X49287048Y-24401584D01*
X49204919Y-24524498D01*
X49204912Y-24524511D01*
X49148343Y-24661082D01*
X49148340Y-24661092D01*
X49119500Y-24806079D01*
X49119500Y-24806082D01*
X49119500Y-31798918D01*
X49119500Y-31798920D01*
X49119499Y-31798920D01*
X43210500Y-31798920D01*
X43210500Y-20778712D01*
X45559500Y-20778712D01*
X45559500Y-21021288D01*
X45591162Y-21261789D01*
X45595458Y-21277820D01*
X45653947Y-21496104D01*
X45712328Y-21637048D01*
X45746776Y-21720212D01*
X45868064Y-21930289D01*
X45868066Y-21930292D01*
X45868067Y-21930293D01*
X46015733Y-22122736D01*
X46015739Y-22122743D01*
X46187256Y-22294260D01*
X46187263Y-22294266D01*
X46300321Y-22381018D01*
X46379711Y-22441936D01*
X46589788Y-22563224D01*
X46813900Y-22656054D01*
X47048211Y-22718838D01*
X47228586Y-22742584D01*
X47288711Y-22750500D01*
X47288712Y-22750500D01*
X47531289Y-22750500D01*
X47579388Y-22744167D01*
X47771789Y-22718838D01*
X48006100Y-22656054D01*
X48230212Y-22563224D01*
X48440289Y-22441936D01*
X48632738Y-22294265D01*
X48804265Y-22122738D01*
X48951936Y-21930289D01*
X49073224Y-21720212D01*
X49166054Y-21496100D01*
X49228838Y-21261789D01*
X49260500Y-21021288D01*
X49260500Y-20778712D01*
X49228838Y-20538211D01*
X49208876Y-20463713D01*
X61569500Y-20463713D01*
X61569500Y-20676286D01*
X61602753Y-20886239D01*
X61668444Y-21088414D01*
X61764951Y-21277820D01*
X61889890Y-21449786D01*
X62040213Y-21600109D01*
X62212179Y-21725048D01*
X62212181Y-21725049D01*
X62212184Y-21725051D01*
X62401588Y-21821557D01*
X62603757Y-21887246D01*
X62813713Y-21920500D01*
X62813714Y-21920500D01*
X63026286Y-21920500D01*
X63026287Y-21920500D01*
X63236243Y-21887246D01*
X63438412Y-21821557D01*
X63627816Y-21725051D01*
X63649789Y-21709086D01*
X63799786Y-21600109D01*
X63799792Y-21600104D01*
X63868417Y-21531479D01*
X63950104Y-21449792D01*
X63950106Y-21449788D01*
X63950109Y-21449786D01*
X64075048Y-21277820D01*
X64075047Y-21277820D01*
X64075051Y-21277816D01*
X64171557Y-21088412D01*
X64237246Y-20886243D01*
X64270500Y-20676287D01*
X64270500Y-20463713D01*
X104769500Y-20463713D01*
X104769500Y-20676286D01*
X104802753Y-20886239D01*
X104868444Y-21088414D01*
X104964951Y-21277820D01*
X105089890Y-21449786D01*
X105240213Y-21600109D01*
X105412179Y-21725048D01*
X105412181Y-21725049D01*
X105412184Y-21725051D01*
X105601588Y-21821557D01*
X105803757Y-21887246D01*
X106013713Y-21920500D01*
X106013714Y-21920500D01*
X106226286Y-21920500D01*
X106226287Y-21920500D01*
X106436243Y-21887246D01*
X106638412Y-21821557D01*
X106827816Y-21725051D01*
X106849789Y-21709086D01*
X106999786Y-21600109D01*
X106999792Y-21600104D01*
X107068417Y-21531479D01*
X107150104Y-21449792D01*
X107150106Y-21449788D01*
X107150109Y-21449786D01*
X107275048Y-21277820D01*
X107275047Y-21277820D01*
X107275051Y-21277816D01*
X107371557Y-21088412D01*
X107437246Y-20886243D01*
X107470500Y-20676287D01*
X107470500Y-20463713D01*
X107437246Y-20253757D01*
X107371557Y-20051588D01*
X107275051Y-19862184D01*
X107275049Y-19862181D01*
X107275048Y-19862179D01*
X107150109Y-19690213D01*
X106999786Y-19539890D01*
X106827820Y-19414951D01*
X106638414Y-19318444D01*
X106638413Y-19318443D01*
X106638412Y-19318443D01*
X106436243Y-19252754D01*
X106436241Y-19252753D01*
X106436240Y-19252753D01*
X106274957Y-19227208D01*
X106226287Y-19219500D01*
X106013713Y-19219500D01*
X105965042Y-19227208D01*
X105803760Y-19252753D01*
X105601585Y-19318444D01*
X105412179Y-19414951D01*
X105240213Y-19539890D01*
X105089890Y-19690213D01*
X104964951Y-19862179D01*
X104868444Y-20051585D01*
X104802753Y-20253760D01*
X104769500Y-20463713D01*
X64270500Y-20463713D01*
X64237246Y-20253757D01*
X64171557Y-20051588D01*
X64075051Y-19862184D01*
X64075049Y-19862181D01*
X64075048Y-19862179D01*
X63950109Y-19690213D01*
X63799786Y-19539890D01*
X63627820Y-19414951D01*
X63438414Y-19318444D01*
X63438413Y-19318443D01*
X63438412Y-19318443D01*
X63236243Y-19252754D01*
X63236241Y-19252753D01*
X63236240Y-19252753D01*
X63074957Y-19227208D01*
X63026287Y-19219500D01*
X62813713Y-19219500D01*
X62765042Y-19227208D01*
X62603760Y-19252753D01*
X62401585Y-19318444D01*
X62212179Y-19414951D01*
X62040213Y-19539890D01*
X61889890Y-19690213D01*
X61764951Y-19862179D01*
X61668444Y-20051585D01*
X61602753Y-20253760D01*
X61569500Y-20463713D01*
X49208876Y-20463713D01*
X49166054Y-20303900D01*
X49073224Y-20079788D01*
X48951936Y-19869711D01*
X48804265Y-19677262D01*
X48804260Y-19677256D01*
X48632743Y-19505739D01*
X48632736Y-19505733D01*
X48440293Y-19358067D01*
X48440292Y-19358066D01*
X48440289Y-19358064D01*
X48230212Y-19236776D01*
X48188504Y-19219500D01*
X48006104Y-19143947D01*
X47771785Y-19081161D01*
X47531289Y-19049500D01*
X47531288Y-19049500D01*
X47288712Y-19049500D01*
X47288711Y-19049500D01*
X47048214Y-19081161D01*
X46813895Y-19143947D01*
X46589794Y-19236773D01*
X46589785Y-19236777D01*
X46379706Y-19358067D01*
X46187263Y-19505733D01*
X46187256Y-19505739D01*
X46015739Y-19677256D01*
X46015733Y-19677263D01*
X45868067Y-19869706D01*
X45746777Y-20079785D01*
X45746773Y-20079794D01*
X45653947Y-20303895D01*
X45591161Y-20538214D01*
X45572984Y-20676286D01*
X45559500Y-20778712D01*
X43210500Y-20778712D01*
X43210500Y-16824500D01*
X43230185Y-16757461D01*
X43282989Y-16711706D01*
X43334500Y-16700500D01*
X110145500Y-16700500D01*
X110212539Y-16720185D01*
G37*
%TD.AperFunction*%
%TD*%
M02*
