M48
; DRILL file KiCad 10.0.5 date 2026-08-12T02:30:00
; FORMAT={-:-/ absolute / metric / decimal}
; #@! TF.CreationDate,2026-08-12T02:30:00+02:00
; #@! TF.GenerationSoftware,Kicad,Pcbnew,10.0.5
; #@! TF.FileFunction,NonPlated,1,2,NPTH
FMAT,2
METRIC
; #@! TA.AperFunction,NonPlated,NPTH,ComponentDrill
T1C1.750
; #@! TA.AperFunction,NonPlated,NPTH,ComponentDrill
T2C2.200
; #@! TA.AperFunction,NonPlated,NPTH,ComponentDrill
T3C3.050
; #@! TA.AperFunction,NonPlated,NPTH,ComponentDrill
T4C3.200
; #@! TA.AperFunction,NonPlated,NPTH,ComponentDrill
T5C4.000
%
G90
G05
T1
X27.77Y-68.425
X27.77Y-95.63
X37.93Y-68.425
X37.93Y-95.63
X56.975Y-68.425
X56.975Y-95.63
X67.135Y-68.425
X67.135Y-95.63
X86.18Y-68.425
X86.18Y-95.63
X96.34Y-68.425
X96.34Y-95.63
T2
X62.92Y-20.57
X62.92Y-46.79
X106.12Y-20.57
X106.12Y-46.79
T3
X29.04Y-65.885
X29.04Y-93.09
X35.39Y-63.345
X35.39Y-90.55
X58.245Y-65.885
X58.245Y-93.09
X64.595Y-63.345
X64.595Y-90.55
X87.45Y-65.885
X87.45Y-93.09
X93.8Y-63.345
X93.8Y-90.55
T4
X18.05Y-54.12
X18.05Y-102.46
X47.41Y-20.9
X106.07Y-54.12
X106.07Y-102.46
T5
X32.85Y-68.425
X32.85Y-95.63
X62.055Y-68.425
X62.055Y-95.63
X91.26Y-68.425
X91.26Y-95.63
M30
