%TF.GenerationSoftware,KiCad,Pcbnew,10.0.5*%
%TF.CreationDate,2026-08-12T02:29:58+02:00*%
%TF.ProjectId,Keypad,4b657970-6164-42e6-9b69-6361645f7063,1.0*%
%TF.SameCoordinates,Original*%
%TF.FileFunction,Soldermask,Top*%
%TF.FilePolarity,Negative*%
%FSLAX46Y46*%
G04 Gerber Fmt 4.6, Leading zero omitted, Abs format (unit mm)*
G04 Created by KiCad (PCBNEW 10.0.5) date 2026-08-12 02:29:58*
%MOMM*%
%LPD*%
G01*
G04 APERTURE LIST*
%ADD10C,1.750000*%
%ADD11C,3.050000*%
%ADD12C,4.000000*%
%ADD13C,1.700000*%
%ADD14R,1.700000X1.700000*%
%ADD15C,2.200000*%
%ADD16C,3.200000*%
G04 APERTURE END LIST*
D10*
%TO.C,SW2*%
X56975000Y-68425000D03*
D11*
X58245000Y-65885000D03*
D12*
X62055000Y-68425000D03*
D11*
X64595000Y-63345000D03*
D10*
X67135000Y-68425000D03*
%TD*%
%TO.C,SW5*%
X67135000Y-95630000D03*
D11*
X64595000Y-90550000D03*
D12*
X62055000Y-95630000D03*
D11*
X58245000Y-93090000D03*
D10*
X56975000Y-95630000D03*
%TD*%
D13*
%TO.C,ESP_RS1*%
X74738000Y-43840000D03*
X74738000Y-41300000D03*
X74738000Y-38760000D03*
X74738000Y-36220000D03*
X74738000Y-33680000D03*
X74738000Y-31140000D03*
X74738000Y-28600000D03*
X74738000Y-26060000D03*
D14*
X74738000Y-23520000D03*
%TD*%
%TO.C,ESP_LS1*%
X89775000Y-23520000D03*
D13*
X89775000Y-26060000D03*
X89775000Y-28600000D03*
X89775000Y-31140000D03*
X89775000Y-33680000D03*
X89775000Y-36220000D03*
X89775000Y-38760000D03*
X89775000Y-41300000D03*
X89775000Y-43840000D03*
%TD*%
D15*
%TO.C,REF\u002A\u002A*%
X62920000Y-20570000D03*
%TD*%
%TO.C,REF\u002A\u002A*%
X62920000Y-46790000D03*
%TD*%
D13*
%TO.C,TFT1*%
X107075000Y-42570000D03*
X107075000Y-40030000D03*
X107075000Y-37490000D03*
X107075000Y-34950000D03*
X107075000Y-32410000D03*
X107075000Y-29870000D03*
X107075000Y-27330000D03*
D14*
X107075000Y-24790000D03*
%TD*%
D15*
%TO.C,REF\u002A\u002A*%
X106120000Y-46790000D03*
%TD*%
D16*
%TO.C,REF\u002A\u002A*%
X47410000Y-20900000D03*
%TD*%
%TO.C,REF\u002A\u002A*%
X18050000Y-54120000D03*
%TD*%
%TO.C,REF\u002A\u002A*%
X106070000Y-54120000D03*
%TD*%
%TO.C,REF\u002A\u002A*%
X18050000Y-102460000D03*
%TD*%
%TO.C,REF\u002A\u002A*%
X106070000Y-102460000D03*
%TD*%
D10*
%TO.C,SW1*%
X27770000Y-68425000D03*
D11*
X29040000Y-65885000D03*
D12*
X32850000Y-68425000D03*
D11*
X35390000Y-63345000D03*
D10*
X37930000Y-68425000D03*
%TD*%
%TO.C,SW6*%
X86180000Y-95630000D03*
D11*
X87450000Y-93090000D03*
D12*
X91260000Y-95630000D03*
D11*
X93800000Y-90550000D03*
D10*
X96340000Y-95630000D03*
%TD*%
D14*
%TO.C,RE1*%
X53265000Y-27500000D03*
D13*
X53265000Y-30040000D03*
X53265000Y-32580000D03*
X53265000Y-35120000D03*
X53265000Y-37660000D03*
%TD*%
D10*
%TO.C,SW4*%
X27770000Y-95630000D03*
D11*
X29040000Y-93090000D03*
D12*
X32850000Y-95630000D03*
D11*
X35390000Y-90550000D03*
D10*
X37930000Y-95630000D03*
%TD*%
%TO.C,SW3*%
X86180000Y-68425000D03*
D11*
X87450000Y-65885000D03*
D12*
X91260000Y-68425000D03*
D11*
X93800000Y-63345000D03*
D10*
X96340000Y-68425000D03*
%TD*%
D15*
%TO.C,REF\u002A\u002A*%
X106120000Y-20570000D03*
%TD*%
M02*
