%TF.GenerationSoftware,KiCad,Pcbnew,10.0.5*%
%TF.CreationDate,2026-08-12T02:29:58+02:00*%
%TF.ProjectId,Keypad,4b657970-6164-42e6-9b69-6361645f7063,1.0*%
%TF.SameCoordinates,Original*%
%TF.FileFunction,Copper,L2,Bot*%
%TF.FilePolarity,Positive*%
%FSLAX46Y46*%
G04 Gerber Fmt 4.6, Leading zero omitted, Abs format (unit mm)*
G04 Created by KiCad (PCBNEW 10.0.5) date 2026-08-12 02:29:58*
%MOMM*%
%LPD*%
G01*
G04 APERTURE LIST*
G04 Aperture macros list*
%AMRoundRect*
0 Rectangle with rounded corners*
0 $1 Rounding radius*
0 $2 $3 $4 $5 $6 $7 $8 $9 X,Y pos of 4 corners*
0 Add a 4 corners polygon primitive as box body*
4,1,4,$2,$3,$4,$5,$6,$7,$8,$9,$2,$3,0*
0 Add four circle primitives for the rounded corners*
1,1,$1+$1,$2,$3*
1,1,$1+$1,$4,$5*
1,1,$1+$1,$6,$7*
1,1,$1+$1,$8,$9*
0 Add four rect primitives between the rounded corners*
20,1,$1+$1,$2,$3,$4,$5,0*
20,1,$1+$1,$4,$5,$6,$7,0*
20,1,$1+$1,$6,$7,$8,$9,0*
20,1,$1+$1,$8,$9,$2,$3,0*%
G04 Aperture macros list end*
%TA.AperFunction,SMDPad,CuDef*%
%ADD10RoundRect,0.250000X-1.025000X-1.000000X1.025000X-1.000000X1.025000X1.000000X-1.025000X1.000000X0*%
%TD*%
%TA.AperFunction,ComponentPad*%
%ADD11C,1.700000*%
%TD*%
%TA.AperFunction,ComponentPad*%
%ADD12R,1.700000X1.700000*%
%TD*%
%TA.AperFunction,Conductor*%
%ADD13C,0.500000*%
%TD*%
G04 APERTURE END LIST*
D10*
%TO.P,SW2,1,1_1*%
%TO.N,/GND*%
X54970000Y-65885000D03*
%TO.P,SW2,2,2_2*%
%TO.N,/RX_SW2*%
X67897000Y-63345000D03*
%TD*%
%TO.P,SW5,2,2_2*%
%TO.N,/GP9_SW5*%
X67897000Y-90550000D03*
%TO.P,SW5,1,1_1*%
%TO.N,/GND*%
X54970000Y-93090000D03*
%TD*%
D11*
%TO.P,ESP_RS1,9,Pin_9_9*%
%TO.N,/GP8_SW6*%
X74738000Y-43840000D03*
%TO.P,ESP_RS1,8,Pin_8_8*%
%TO.N,/GP9_SW5*%
X74738000Y-41300000D03*
%TO.P,ESP_RS1,7,Pin_7_7*%
%TO.N,/GP10_SW4*%
X74738000Y-38760000D03*
%TO.P,ESP_RS1,6,Pin_6_6*%
%TO.N,/GP11_SW*%
X74738000Y-36220000D03*
%TO.P,ESP_RS1,5,Pin_5_5*%
%TO.N,/GP12_DT*%
X74738000Y-33680000D03*
%TO.P,ESP_RS1,4,Pin_4_4*%
%TO.N,/GP13_CLK*%
X74738000Y-31140000D03*
%TO.P,ESP_RS1,3,Pin_3_3*%
%TO.N,/3V3*%
X74738000Y-28600000D03*
%TO.P,ESP_RS1,2,Pin_2_2*%
%TO.N,/GND*%
X74738000Y-26060000D03*
D12*
%TO.P,ESP_RS1,1,Pin_1_1*%
%TO.N,/5V*%
X74738000Y-23520000D03*
%TD*%
%TO.P,ESP_LS1,1,Pin_1_1*%
%TO.N,/GP7_SCL*%
X89775000Y-23520000D03*
D11*
%TO.P,ESP_LS1,2,Pin_2_2*%
%TO.N,/GP6_SDA*%
X89775000Y-26060000D03*
%TO.P,ESP_LS1,3,Pin_3_3*%
%TO.N,/GP5_RES*%
X89775000Y-28600000D03*
%TO.P,ESP_LS1,4,Pin_4_4*%
%TO.N,/GP4_DC*%
X89775000Y-31140000D03*
%TO.P,ESP_LS1,5,Pin_5_5*%
%TO.N,/GP3_CS*%
X89775000Y-33680000D03*
%TO.P,ESP_LS1,6,Pin_6_6*%
%TO.N,/GP2_BLK*%
X89775000Y-36220000D03*
%TO.P,ESP_LS1,7,Pin_7_7*%
%TO.N,/GP1_SW3*%
X89775000Y-38760000D03*
%TO.P,ESP_LS1,8,Pin_8_8*%
%TO.N,/RX_SW2*%
X89775000Y-41300000D03*
%TO.P,ESP_LS1,9,Pin_9_9*%
%TO.N,/TX_SW1*%
X89775000Y-43840000D03*
%TD*%
%TO.P,TFT1,8,Pin_8_8*%
%TO.N,/GP2_BLK*%
X107075000Y-42570000D03*
%TO.P,TFT1,7,Pin_7_7*%
%TO.N,/GP3_CS*%
X107075000Y-40030000D03*
%TO.P,TFT1,6,Pin_6_6*%
%TO.N,/GP4_DC*%
X107075000Y-37490000D03*
%TO.P,TFT1,5,Pin_5_5*%
%TO.N,/GP5_RES*%
X107075000Y-34950000D03*
%TO.P,TFT1,4,Pin_4_4*%
%TO.N,/GP6_SDA*%
X107075000Y-32410000D03*
%TO.P,TFT1,3,Pin_3_3*%
%TO.N,/GP7_SCL*%
X107075000Y-29870000D03*
%TO.P,TFT1,2,Pin_2_2*%
%TO.N,/3V3*%
X107075000Y-27330000D03*
D12*
%TO.P,TFT1,1,Pin_1_1*%
%TO.N,/GND*%
X107075000Y-24790000D03*
%TD*%
D10*
%TO.P,SW1,1,1_1*%
%TO.N,/GND*%
X25765000Y-65885000D03*
%TO.P,SW1,2,2_2*%
%TO.N,/TX_SW1*%
X38692000Y-63345000D03*
%TD*%
%TO.P,SW6,1,1_1*%
%TO.N,/GND*%
X84175000Y-93090000D03*
%TO.P,SW6,2,2_2*%
%TO.N,/GP8_SW6*%
X97102000Y-90550000D03*
%TD*%
D12*
%TO.P,RE1,1,Pin_1_1*%
%TO.N,/GP13_CLK*%
X53265000Y-27500000D03*
D11*
%TO.P,RE1,2,Pin_2_2*%
%TO.N,/GP12_DT*%
X53265000Y-30040000D03*
%TO.P,RE1,3,Pin_3_3*%
%TO.N,/GP11_SW*%
X53265000Y-32580000D03*
%TO.P,RE1,4,Pin_4_4*%
%TO.N,/3V3*%
X53265000Y-35120000D03*
%TO.P,RE1,5,Pin_5_5*%
%TO.N,/GND*%
X53265000Y-37660000D03*
%TD*%
D10*
%TO.P,SW4,1,1_1*%
%TO.N,/GND*%
X25765000Y-93090000D03*
%TO.P,SW4,2,2_2*%
%TO.N,/GP10_SW4*%
X38692000Y-90550000D03*
%TD*%
%TO.P,SW3,1,1_1*%
%TO.N,/GND*%
X84175000Y-65885000D03*
%TO.P,SW3,2,2_2*%
%TO.N,/GP1_SW3*%
X97102000Y-63345000D03*
%TD*%
%TO.N,/GP9_SW5*%
D13*
X73320000Y-59180000D02*
X73310000Y-59170000D01*
X73410000Y-59180000D02*
X73320000Y-59180000D01*
X57307000Y-80162558D02*
X67897000Y-90752558D01*
X73438000Y-59152000D02*
X73410000Y-59180000D01*
%TO.N,/GP10_SW4*%
X74738000Y-38760000D02*
X72220000Y-41278000D01*
%TO.N,/GP9_SW5*%
X74738000Y-41300000D02*
X73438000Y-42600000D01*
%TO.N,/GP10_SW4*%
X72220000Y-41278000D02*
X72220000Y-58470000D01*
X72220000Y-58470000D02*
X21610100Y-58470001D01*
X36667000Y-88525000D02*
X38692000Y-90550000D01*
X21610100Y-58470001D02*
X20790000Y-59290102D01*
X20790000Y-59290102D02*
X20790000Y-79139900D01*
X20790000Y-79139900D02*
X30175100Y-88525000D01*
X30175100Y-88525000D02*
X36667000Y-88525000D01*
%TO.N,/GP9_SW5*%
X21490000Y-78849950D02*
X22600050Y-79960000D01*
X73438000Y-42600000D02*
X73438000Y-59152000D01*
X73310000Y-59170000D02*
X21900050Y-59170000D01*
X21900050Y-59170000D02*
X21490000Y-59580051D01*
X21490000Y-59580051D02*
X21490000Y-78849950D01*
X22600050Y-79960000D02*
X57307000Y-79960000D01*
%TO.N,/GP8_SW6*%
X22190000Y-59870000D02*
X22190000Y-78560000D01*
X74738000Y-43840000D02*
X74738000Y-59880000D01*
X22190000Y-78560000D02*
X22890000Y-79260000D01*
X74738000Y-59880000D02*
X22200000Y-59880000D01*
X22200000Y-59880000D02*
X22190000Y-59870000D01*
X22890000Y-79260000D02*
X85812000Y-79260000D01*
X85812000Y-79260000D02*
X97102000Y-90550000D01*
%TO.N,/TX_SW1*%
X89775000Y-60555000D02*
X89800000Y-60580000D01*
X89775000Y-43840000D02*
X89775000Y-60555000D01*
X89800000Y-60580000D02*
X43240000Y-60580000D01*
X43240000Y-60580000D02*
X40475000Y-63345000D01*
X40475000Y-63345000D02*
X38692000Y-63345000D01*
%TO.N,/RX_SW2*%
X95510000Y-47035000D02*
X95510000Y-57900000D01*
X89775000Y-41300000D02*
X95510000Y-47035000D01*
X95510000Y-57900000D02*
X95340000Y-57900000D01*
X95340000Y-57900000D02*
X89895000Y-63345000D01*
X89895000Y-63345000D02*
X67897000Y-63345000D01*
%TO.N,/GP1_SW3*%
X97102000Y-63345000D02*
X97102000Y-46087000D01*
X97102000Y-46087000D02*
X89775000Y-38760000D01*
%TD*%
%TA.AperFunction,Conductor*%
%TO.N,/GND*%
G36*
X110212539Y-16720185D02*
G01*
X110258294Y-16772989D01*
X110269500Y-16824500D01*
X110269500Y-106535500D01*
X110249815Y-106602539D01*
X110197011Y-106648294D01*
X110145500Y-106659500D01*
X13974500Y-106659500D01*
X13907461Y-106639815D01*
X13861706Y-106587011D01*
X13850500Y-106535500D01*
X13850500Y-102338711D01*
X16199500Y-102338711D01*
X16199500Y-102581288D01*
X16231161Y-102821785D01*
X16293947Y-103056104D01*
X16386773Y-103280205D01*
X16386776Y-103280212D01*
X16508064Y-103490289D01*
X16508066Y-103490292D01*
X16508067Y-103490293D01*
X16655733Y-103682736D01*
X16655739Y-103682743D01*
X16827256Y-103854260D01*
X16827262Y-103854265D01*
X17019711Y-104001936D01*
X17229788Y-104123224D01*
X17453900Y-104216054D01*
X17688211Y-104278838D01*
X17868586Y-104302584D01*
X17928711Y-104310500D01*
X17928712Y-104310500D01*
X18171289Y-104310500D01*
X18219388Y-104304167D01*
X18411789Y-104278838D01*
X18646100Y-104216054D01*
X18870212Y-104123224D01*
X19080289Y-104001936D01*
X19272738Y-103854265D01*
X19444265Y-103682738D01*
X19591936Y-103490289D01*
X19713224Y-103280212D01*
X19806054Y-103056100D01*
X19868838Y-102821789D01*
X19900500Y-102581288D01*
X19900500Y-102338712D01*
X19900500Y-102338711D01*
X104219500Y-102338711D01*
X104219500Y-102581288D01*
X104251161Y-102821785D01*
X104313947Y-103056104D01*
X104406773Y-103280205D01*
X104406776Y-103280212D01*
X104528064Y-103490289D01*
X104528066Y-103490292D01*
X104528067Y-103490293D01*
X104675733Y-103682736D01*
X104675739Y-103682743D01*
X104847256Y-103854260D01*
X104847262Y-103854265D01*
X105039711Y-104001936D01*
X105249788Y-104123224D01*
X105473900Y-104216054D01*
X105708211Y-104278838D01*
X105888586Y-104302584D01*
X105948711Y-104310500D01*
X105948712Y-104310500D01*
X106191289Y-104310500D01*
X106239388Y-104304167D01*
X106431789Y-104278838D01*
X106666100Y-104216054D01*
X106890212Y-104123224D01*
X107100289Y-104001936D01*
X107292738Y-103854265D01*
X107464265Y-103682738D01*
X107611936Y-103490289D01*
X107733224Y-103280212D01*
X107826054Y-103056100D01*
X107888838Y-102821789D01*
X107920500Y-102581288D01*
X107920500Y-102338712D01*
X107888838Y-102098211D01*
X107826054Y-101863900D01*
X107733224Y-101639788D01*
X107611936Y-101429711D01*
X107464265Y-101237262D01*
X107464260Y-101237256D01*
X107292743Y-101065739D01*
X107292736Y-101065733D01*
X107100293Y-100918067D01*
X107100292Y-100918066D01*
X107100289Y-100918064D01*
X106890212Y-100796776D01*
X106890205Y-100796773D01*
X106666104Y-100703947D01*
X106431785Y-100641161D01*
X106191289Y-100609500D01*
X106191288Y-100609500D01*
X105948712Y-100609500D01*
X105948711Y-100609500D01*
X105708214Y-100641161D01*
X105473895Y-100703947D01*
X105249794Y-100796773D01*
X105249785Y-100796777D01*
X105039706Y-100918067D01*
X104847263Y-101065733D01*
X104847256Y-101065739D01*
X104675739Y-101237256D01*
X104675733Y-101237263D01*
X104528067Y-101429706D01*
X104406777Y-101639785D01*
X104406773Y-101639794D01*
X104313947Y-101863895D01*
X104251161Y-102098214D01*
X104219500Y-102338711D01*
X19900500Y-102338711D01*
X19868838Y-102098211D01*
X19806054Y-101863900D01*
X19713224Y-101639788D01*
X19591936Y-101429711D01*
X19444265Y-101237262D01*
X19444260Y-101237256D01*
X19272743Y-101065739D01*
X19272736Y-101065733D01*
X19080293Y-100918067D01*
X19080292Y-100918066D01*
X19080289Y-100918064D01*
X18870212Y-100796776D01*
X18870205Y-100796773D01*
X18646104Y-100703947D01*
X18411785Y-100641161D01*
X18171289Y-100609500D01*
X18171288Y-100609500D01*
X17928712Y-100609500D01*
X17928711Y-100609500D01*
X17688214Y-100641161D01*
X17453895Y-100703947D01*
X17229794Y-100796773D01*
X17229785Y-100796777D01*
X17019706Y-100918067D01*
X16827263Y-101065733D01*
X16827256Y-101065739D01*
X16655739Y-101237256D01*
X16655733Y-101237263D01*
X16508067Y-101429706D01*
X16386777Y-101639785D01*
X16386773Y-101639794D01*
X16293947Y-101863895D01*
X16231161Y-102098214D01*
X16199500Y-102338711D01*
X13850500Y-102338711D01*
X13850500Y-94139986D01*
X23990001Y-94139986D01*
X24000494Y-94242697D01*
X24055641Y-94409119D01*
X24055643Y-94409124D01*
X24147684Y-94558345D01*
X24271654Y-94682315D01*
X24420875Y-94774356D01*
X24420880Y-94774358D01*
X24587302Y-94829505D01*
X24587309Y-94829506D01*
X24690019Y-94839999D01*
X25514999Y-94839999D01*
X25515000Y-94839998D01*
X25515000Y-93340000D01*
X23990001Y-93340000D01*
X23990001Y-94139986D01*
X13850500Y-94139986D01*
X13850500Y-92040013D01*
X23990000Y-92040013D01*
X23990000Y-92840000D01*
X25515000Y-92840000D01*
X25515000Y-91340000D01*
X26015000Y-91340000D01*
X26015000Y-94839999D01*
X26709411Y-94839999D01*
X26776450Y-94859684D01*
X26822205Y-94912488D01*
X26832149Y-94981646D01*
X26809730Y-95036883D01*
X26807387Y-95040107D01*
X26726957Y-95197957D01*
X26726956Y-95197960D01*
X26672214Y-95366443D01*
X26644500Y-95541421D01*
X26644500Y-95718578D01*
X26672214Y-95893556D01*
X26726956Y-96062039D01*
X26726957Y-96062042D01*
X26807386Y-96219890D01*
X26911517Y-96363214D01*
X27036786Y-96488483D01*
X27180110Y-96592614D01*
X27248577Y-96627500D01*
X27337957Y-96673042D01*
X27337960Y-96673043D01*
X27422201Y-96700414D01*
X27506445Y-96727786D01*
X27681421Y-96755500D01*
X27681422Y-96755500D01*
X27858578Y-96755500D01*
X27858579Y-96755500D01*
X28033555Y-96727786D01*
X28202042Y-96673042D01*
X28359890Y-96592614D01*
X28503214Y-96488483D01*
X28628483Y-96363214D01*
X28732614Y-96219890D01*
X28813042Y-96062042D01*
X28867786Y-95893555D01*
X28895500Y-95718579D01*
X28895500Y-95541421D01*
X28886165Y-95482486D01*
X30599500Y-95482486D01*
X30599500Y-95777513D01*
X30614778Y-95893555D01*
X30638007Y-96069993D01*
X30714361Y-96354951D01*
X30714364Y-96354961D01*
X30827254Y-96627500D01*
X30827258Y-96627510D01*
X30974761Y-96882993D01*
X31154352Y-97117040D01*
X31154358Y-97117047D01*
X31362952Y-97325641D01*
X31362959Y-97325647D01*
X31597006Y-97505238D01*
X31852489Y-97652741D01*
X31852490Y-97652741D01*
X31852493Y-97652743D01*
X32125048Y-97765639D01*
X32410007Y-97841993D01*
X32702494Y-97880500D01*
X32702501Y-97880500D01*
X32997499Y-97880500D01*
X32997506Y-97880500D01*
X33289993Y-97841993D01*
X33574952Y-97765639D01*
X33847507Y-97652743D01*
X34102994Y-97505238D01*
X34337042Y-97325646D01*
X34545646Y-97117042D01*
X34725238Y-96882994D01*
X34872743Y-96627507D01*
X34985639Y-96354952D01*
X35061993Y-96069993D01*
X35100500Y-95777506D01*
X35100500Y-95541421D01*
X36804500Y-95541421D01*
X36804500Y-95718578D01*
X36832214Y-95893556D01*
X36886956Y-96062039D01*
X36886957Y-96062042D01*
X36967386Y-96219890D01*
X37071517Y-96363214D01*
X37196786Y-96488483D01*
X37340110Y-96592614D01*
X37408577Y-96627500D01*
X37497957Y-96673042D01*
X37497960Y-96673043D01*
X37582201Y-96700414D01*
X37666445Y-96727786D01*
X37841421Y-96755500D01*
X37841422Y-96755500D01*
X38018578Y-96755500D01*
X38018579Y-96755500D01*
X38193555Y-96727786D01*
X38362042Y-96673042D01*
X38519890Y-96592614D01*
X38663214Y-96488483D01*
X38788483Y-96363214D01*
X38892614Y-96219890D01*
X38973042Y-96062042D01*
X39027786Y-95893555D01*
X39055500Y-95718579D01*
X39055500Y-95541421D01*
X39027786Y-95366445D01*
X38973042Y-95197958D01*
X38973042Y-95197957D01*
X38892613Y-95040109D01*
X38850137Y-94981646D01*
X38788483Y-94896786D01*
X38663214Y-94771517D01*
X38519890Y-94667386D01*
X38362042Y-94586957D01*
X38362039Y-94586956D01*
X38193556Y-94532214D01*
X38106067Y-94518357D01*
X38018579Y-94504500D01*
X37841421Y-94504500D01*
X37783095Y-94513738D01*
X37666443Y-94532214D01*
X37497960Y-94586956D01*
X37497957Y-94586957D01*
X37340109Y-94667386D01*
X37258338Y-94726796D01*
X37196786Y-94771517D01*
X37196784Y-94771519D01*
X37196783Y-94771519D01*
X37071519Y-94896783D01*
X37071519Y-94896784D01*
X37071517Y-94896786D01*
X37060109Y-94912488D01*
X36967386Y-95040109D01*
X36886957Y-95197957D01*
X36886956Y-95197960D01*
X36832214Y-95366443D01*
X36804500Y-95541421D01*
X35100500Y-95541421D01*
X35100500Y-95482494D01*
X35061993Y-95190007D01*
X34985639Y-94905048D01*
X34984615Y-94902577D01*
X34931505Y-94774358D01*
X34872743Y-94632493D01*
X34846453Y-94586958D01*
X34725238Y-94377006D01*
X34545647Y-94142959D01*
X34545641Y-94142952D01*
X34542675Y-94139986D01*
X53195001Y-94139986D01*
X53205494Y-94242697D01*
X53260641Y-94409119D01*
X53260643Y-94409124D01*
X53352684Y-94558345D01*
X53476654Y-94682315D01*
X53625875Y-94774356D01*
X53625880Y-94774358D01*
X53792302Y-94829505D01*
X53792309Y-94829506D01*
X53895019Y-94839999D01*
X54719999Y-94839999D01*
X54720000Y-94839998D01*
X54720000Y-93340000D01*
X53195001Y-93340000D01*
X53195001Y-94139986D01*
X34542675Y-94139986D01*
X34337047Y-93934358D01*
X34337040Y-93934352D01*
X34102993Y-93754761D01*
X33847510Y-93607258D01*
X33847500Y-93607254D01*
X33574961Y-93494364D01*
X33574954Y-93494362D01*
X33574952Y-93494361D01*
X33289993Y-93418007D01*
X33289987Y-93418006D01*
X33289982Y-93418005D01*
X33248584Y-93412555D01*
X33192367Y-93405154D01*
X32997513Y-93379500D01*
X32997506Y-93379500D01*
X32702494Y-93379500D01*
X32702486Y-93379500D01*
X32424085Y-93416153D01*
X32410007Y-93418007D01*
X32125048Y-93494361D01*
X32125038Y-93494364D01*
X31852499Y-93607254D01*
X31852489Y-93607258D01*
X31597006Y-93754761D01*
X31362959Y-93934352D01*
X31362952Y-93934358D01*
X31154358Y-94142952D01*
X31154352Y-94142959D01*
X30974761Y-94377006D01*
X30827258Y-94632489D01*
X30827254Y-94632499D01*
X30714364Y-94905038D01*
X30714361Y-94905048D01*
X30678172Y-95040110D01*
X30638008Y-95190004D01*
X30638006Y-95190015D01*
X30599500Y-95482486D01*
X28886165Y-95482486D01*
X28867786Y-95366445D01*
X28813042Y-95197958D01*
X28813040Y-95197952D01*
X28730513Y-95035987D01*
X28717616Y-94967317D01*
X28743892Y-94902577D01*
X28800998Y-94862319D01*
X28857181Y-94856752D01*
X28916564Y-94864570D01*
X28923612Y-94865498D01*
X28923628Y-94865500D01*
X28923635Y-94865500D01*
X29156365Y-94865500D01*
X29156372Y-94865500D01*
X29387126Y-94835121D01*
X29611940Y-94774882D01*
X29669953Y-94750852D01*
X29826960Y-94685819D01*
X29826963Y-94685817D01*
X29826969Y-94685815D01*
X30028532Y-94569442D01*
X30213181Y-94427756D01*
X30377756Y-94263181D01*
X30519442Y-94078532D01*
X30635815Y-93876969D01*
X30724882Y-93661940D01*
X30785121Y-93437126D01*
X30815500Y-93206372D01*
X30815500Y-92973628D01*
X30785121Y-92742874D01*
X30724882Y-92518060D01*
X30724879Y-92518052D01*
X30635819Y-92303039D01*
X30635811Y-92303023D01*
X30519446Y-92101475D01*
X30519442Y-92101468D01*
X30397841Y-91942994D01*
X30377757Y-91916820D01*
X30377751Y-91916813D01*
X30213186Y-91752248D01*
X30213179Y-91752242D01*
X30028540Y-91610564D01*
X30028538Y-91610562D01*
X30028532Y-91610558D01*
X30028527Y-91610555D01*
X30028524Y-91610553D01*
X29826976Y-91494188D01*
X29826960Y-91494180D01*
X29611947Y-91405120D01*
X29408077Y-91350493D01*
X29387126Y-91344879D01*
X29387125Y-91344878D01*
X29387122Y-91344878D01*
X29156382Y-91314501D01*
X29156377Y-91314500D01*
X29156372Y-91314500D01*
X28923628Y-91314500D01*
X28923622Y-91314500D01*
X28923617Y-91314501D01*
X28692877Y-91344878D01*
X28468052Y-91405120D01*
X28253039Y-91494180D01*
X28253023Y-91494188D01*
X28051475Y-91610553D01*
X28051459Y-91610564D01*
X27866821Y-91752241D01*
X27709552Y-91909510D01*
X27648229Y-91942994D01*
X27578537Y-91938010D01*
X27522604Y-91896138D01*
X27504165Y-91860832D01*
X27474358Y-91770880D01*
X27474356Y-91770875D01*
X27382315Y-91621654D01*
X27258345Y-91497684D01*
X27109124Y-91405643D01*
X27109119Y-91405641D01*
X26942697Y-91350494D01*
X26942690Y-91350493D01*
X26839986Y-91340000D01*
X26015000Y-91340000D01*
X25515000Y-91340000D01*
X24690028Y-91340000D01*
X24690012Y-91340001D01*
X24587302Y-91350494D01*
X24420880Y-91405641D01*
X24420875Y-91405643D01*
X24271654Y-91497684D01*
X24147684Y-91621654D01*
X24055643Y-91770875D01*
X24055641Y-91770880D01*
X24000494Y-91937302D01*
X24000493Y-91937309D01*
X23990000Y-92040013D01*
X13850500Y-92040013D01*
X13850500Y-79213820D01*
X20039499Y-79213820D01*
X20068340Y-79358807D01*
X20068343Y-79358817D01*
X20124914Y-79495392D01*
X20157812Y-79544627D01*
X20157813Y-79544630D01*
X20207046Y-79618314D01*
X20207052Y-79618321D01*
X29696684Y-89107952D01*
X29696686Y-89107954D01*
X29726158Y-89127645D01*
X29770370Y-89157186D01*
X29819605Y-89190084D01*
X29819606Y-89190084D01*
X29819607Y-89190085D01*
X29819609Y-89190086D01*
X29873103Y-89212244D01*
X29873104Y-89212244D01*
X29956188Y-89246659D01*
X30072341Y-89269763D01*
X30091568Y-89273587D01*
X30101181Y-89275500D01*
X30101182Y-89275500D01*
X30101183Y-89275500D01*
X30249018Y-89275500D01*
X33878542Y-89275500D01*
X33945581Y-89295185D01*
X33991336Y-89347989D01*
X34001280Y-89417147D01*
X33976919Y-89474984D01*
X33957726Y-89499998D01*
X33910559Y-89561467D01*
X33910553Y-89561475D01*
X33794188Y-89763023D01*
X33794180Y-89763039D01*
X33705120Y-89978052D01*
X33644878Y-90202877D01*
X33614501Y-90433617D01*
X33614500Y-90433634D01*
X33614500Y-90666365D01*
X33614501Y-90666382D01*
X33644878Y-90897122D01*
X33705120Y-91121947D01*
X33794180Y-91336960D01*
X33794188Y-91336976D01*
X33910553Y-91538524D01*
X33910564Y-91538540D01*
X34052242Y-91723179D01*
X34052248Y-91723186D01*
X34216813Y-91887751D01*
X34216820Y-91887757D01*
X34254696Y-91916820D01*
X34401468Y-92029442D01*
X34401475Y-92029446D01*
X34603023Y-92145811D01*
X34603039Y-92145819D01*
X34818052Y-92234879D01*
X34818054Y-92234879D01*
X34818060Y-92234882D01*
X35042874Y-92295121D01*
X35273628Y-92325500D01*
X35273635Y-92325500D01*
X35506365Y-92325500D01*
X35506372Y-92325500D01*
X35737126Y-92295121D01*
X35961940Y-92234882D01*
X36019953Y-92210852D01*
X36176960Y-92145819D01*
X36176963Y-92145817D01*
X36176969Y-92145815D01*
X36378532Y-92029442D01*
X36563181Y-91887756D01*
X36727756Y-91723181D01*
X36729151Y-91721363D01*
X36729706Y-91720957D01*
X36730432Y-91720130D01*
X36730617Y-91720292D01*
X36785575Y-91680155D01*
X36855321Y-91675995D01*
X36916244Y-91710202D01*
X36945239Y-91757836D01*
X36982186Y-91869333D01*
X36982187Y-91869336D01*
X36993549Y-91887756D01*
X37074288Y-92018656D01*
X37198344Y-92142712D01*
X37347666Y-92234814D01*
X37514203Y-92289999D01*
X37616991Y-92300500D01*
X39767008Y-92300499D01*
X39869797Y-92289999D01*
X40036334Y-92234814D01*
X40185656Y-92142712D01*
X40288355Y-92040013D01*
X53195000Y-92040013D01*
X53195000Y-92840000D01*
X54720000Y-92840000D01*
X54720000Y-91340000D01*
X55220000Y-91340000D01*
X55220000Y-94839999D01*
X55914411Y-94839999D01*
X55981450Y-94859684D01*
X56027205Y-94912488D01*
X56037149Y-94981646D01*
X56014730Y-95036883D01*
X56012387Y-95040107D01*
X55931957Y-95197957D01*
X55931956Y-95197960D01*
X55877214Y-95366443D01*
X55849500Y-95541421D01*
X55849500Y-95718578D01*
X55877214Y-95893556D01*
X55931956Y-96062039D01*
X55931957Y-96062042D01*
X56012386Y-96219890D01*
X56116517Y-96363214D01*
X56241786Y-96488483D01*
X56385110Y-96592614D01*
X56453577Y-96627500D01*
X56542957Y-96673042D01*
X56542960Y-96673043D01*
X56627201Y-96700414D01*
X56711445Y-96727786D01*
X56886421Y-96755500D01*
X56886422Y-96755500D01*
X57063578Y-96755500D01*
X57063579Y-96755500D01*
X57238555Y-96727786D01*
X57407042Y-96673042D01*
X57564890Y-96592614D01*
X57708214Y-96488483D01*
X57833483Y-96363214D01*
X57937614Y-96219890D01*
X58018042Y-96062042D01*
X58072786Y-95893555D01*
X58100500Y-95718579D01*
X58100500Y-95541421D01*
X58091165Y-95482486D01*
X59804500Y-95482486D01*
X59804500Y-95777513D01*
X59819778Y-95893555D01*
X59843007Y-96069993D01*
X59919361Y-96354951D01*
X59919364Y-96354961D01*
X60032254Y-96627500D01*
X60032258Y-96627510D01*
X60179761Y-96882993D01*
X60359352Y-97117040D01*
X60359358Y-97117047D01*
X60567952Y-97325641D01*
X60567959Y-97325647D01*
X60802006Y-97505238D01*
X61057489Y-97652741D01*
X61057490Y-97652741D01*
X61057493Y-97652743D01*
X61330048Y-97765639D01*
X61615007Y-97841993D01*
X61907494Y-97880500D01*
X61907501Y-97880500D01*
X62202499Y-97880500D01*
X62202506Y-97880500D01*
X62494993Y-97841993D01*
X62779952Y-97765639D01*
X63052507Y-97652743D01*
X63307994Y-97505238D01*
X63542042Y-97325646D01*
X63750646Y-97117042D01*
X63930238Y-96882994D01*
X64077743Y-96627507D01*
X64190639Y-96354952D01*
X64266993Y-96069993D01*
X64305500Y-95777506D01*
X64305500Y-95541421D01*
X66009500Y-95541421D01*
X66009500Y-95718578D01*
X66037214Y-95893556D01*
X66091956Y-96062039D01*
X66091957Y-96062042D01*
X66172386Y-96219890D01*
X66276517Y-96363214D01*
X66401786Y-96488483D01*
X66545110Y-96592614D01*
X66613577Y-96627500D01*
X66702957Y-96673042D01*
X66702960Y-96673043D01*
X66787201Y-96700414D01*
X66871445Y-96727786D01*
X67046421Y-96755500D01*
X67046422Y-96755500D01*
X67223578Y-96755500D01*
X67223579Y-96755500D01*
X67398555Y-96727786D01*
X67567042Y-96673042D01*
X67724890Y-96592614D01*
X67868214Y-96488483D01*
X67993483Y-96363214D01*
X68097614Y-96219890D01*
X68178042Y-96062042D01*
X68232786Y-95893555D01*
X68260500Y-95718579D01*
X68260500Y-95541421D01*
X68232786Y-95366445D01*
X68178042Y-95197958D01*
X68178042Y-95197957D01*
X68097613Y-95040109D01*
X68055137Y-94981646D01*
X67993483Y-94896786D01*
X67868214Y-94771517D01*
X67724890Y-94667386D01*
X67567042Y-94586957D01*
X67567039Y-94586956D01*
X67398556Y-94532214D01*
X67311067Y-94518357D01*
X67223579Y-94504500D01*
X67046421Y-94504500D01*
X66988095Y-94513738D01*
X66871443Y-94532214D01*
X66702960Y-94586956D01*
X66702957Y-94586957D01*
X66545109Y-94667386D01*
X66463338Y-94726796D01*
X66401786Y-94771517D01*
X66401784Y-94771519D01*
X66401783Y-94771519D01*
X66276519Y-94896783D01*
X66276519Y-94896784D01*
X66276517Y-94896786D01*
X66265109Y-94912488D01*
X66172386Y-95040109D01*
X66091957Y-95197957D01*
X66091956Y-95197960D01*
X66037214Y-95366443D01*
X66009500Y-95541421D01*
X64305500Y-95541421D01*
X64305500Y-95482494D01*
X64266993Y-95190007D01*
X64190639Y-94905048D01*
X64189615Y-94902577D01*
X64136505Y-94774358D01*
X64077743Y-94632493D01*
X64051453Y-94586958D01*
X63930238Y-94377006D01*
X63750647Y-94142959D01*
X63750641Y-94142952D01*
X63747675Y-94139986D01*
X82400001Y-94139986D01*
X82410494Y-94242697D01*
X82465641Y-94409119D01*
X82465643Y-94409124D01*
X82557684Y-94558345D01*
X82681654Y-94682315D01*
X82830875Y-94774356D01*
X82830880Y-94774358D01*
X82997302Y-94829505D01*
X82997309Y-94829506D01*
X83100019Y-94839999D01*
X83924999Y-94839999D01*
X83925000Y-94839998D01*
X83925000Y-93340000D01*
X82400001Y-93340000D01*
X82400001Y-94139986D01*
X63747675Y-94139986D01*
X63542047Y-93934358D01*
X63542040Y-93934352D01*
X63307993Y-93754761D01*
X63052510Y-93607258D01*
X63052500Y-93607254D01*
X62779961Y-93494364D01*
X62779954Y-93494362D01*
X62779952Y-93494361D01*
X62494993Y-93418007D01*
X62494987Y-93418006D01*
X62494982Y-93418005D01*
X62453584Y-93412555D01*
X62397367Y-93405154D01*
X62202513Y-93379500D01*
X62202506Y-93379500D01*
X61907494Y-93379500D01*
X61907486Y-93379500D01*
X61629085Y-93416153D01*
X61615007Y-93418007D01*
X61330048Y-93494361D01*
X61330038Y-93494364D01*
X61057499Y-93607254D01*
X61057489Y-93607258D01*
X60802006Y-93754761D01*
X60567959Y-93934352D01*
X60567952Y-93934358D01*
X60359358Y-94142952D01*
X60359352Y-94142959D01*
X60179761Y-94377006D01*
X60032258Y-94632489D01*
X60032254Y-94632499D01*
X59919364Y-94905038D01*
X59919361Y-94905048D01*
X59883172Y-95040110D01*
X59843008Y-95190004D01*
X59843006Y-95190015D01*
X59804500Y-95482486D01*
X58091165Y-95482486D01*
X58072786Y-95366445D01*
X58018042Y-95197958D01*
X58018040Y-95197952D01*
X57935513Y-95035987D01*
X57922616Y-94967317D01*
X57948892Y-94902577D01*
X58005998Y-94862319D01*
X58062181Y-94856752D01*
X58121564Y-94864570D01*
X58128612Y-94865498D01*
X58128628Y-94865500D01*
X58128635Y-94865500D01*
X58361365Y-94865500D01*
X58361372Y-94865500D01*
X58592126Y-94835121D01*
X58816940Y-94774882D01*
X58874953Y-94750852D01*
X59031960Y-94685819D01*
X59031963Y-94685817D01*
X59031969Y-94685815D01*
X59233532Y-94569442D01*
X59418181Y-94427756D01*
X59582756Y-94263181D01*
X59724442Y-94078532D01*
X59840815Y-93876969D01*
X59929882Y-93661940D01*
X59990121Y-93437126D01*
X60020500Y-93206372D01*
X60020500Y-92973628D01*
X59990121Y-92742874D01*
X59929882Y-92518060D01*
X59929879Y-92518052D01*
X59840819Y-92303039D01*
X59840811Y-92303023D01*
X59724446Y-92101475D01*
X59724442Y-92101468D01*
X59602841Y-91942994D01*
X59582757Y-91916820D01*
X59582751Y-91916813D01*
X59418186Y-91752248D01*
X59418179Y-91752242D01*
X59233540Y-91610564D01*
X59233538Y-91610562D01*
X59233532Y-91610558D01*
X59233527Y-91610555D01*
X59233524Y-91610553D01*
X59031976Y-91494188D01*
X59031960Y-91494180D01*
X58816947Y-91405120D01*
X58613077Y-91350493D01*
X58592126Y-91344879D01*
X58592125Y-91344878D01*
X58592122Y-91344878D01*
X58361382Y-91314501D01*
X58361377Y-91314500D01*
X58361372Y-91314500D01*
X58128628Y-91314500D01*
X58128622Y-91314500D01*
X58128617Y-91314501D01*
X57897877Y-91344878D01*
X57673052Y-91405120D01*
X57458039Y-91494180D01*
X57458023Y-91494188D01*
X57256475Y-91610553D01*
X57256459Y-91610564D01*
X57071821Y-91752241D01*
X56914552Y-91909510D01*
X56853229Y-91942994D01*
X56783537Y-91938010D01*
X56727604Y-91896138D01*
X56709165Y-91860832D01*
X56679358Y-91770880D01*
X56679356Y-91770875D01*
X56587315Y-91621654D01*
X56463345Y-91497684D01*
X56314124Y-91405643D01*
X56314119Y-91405641D01*
X56147697Y-91350494D01*
X56147690Y-91350493D01*
X56044986Y-91340000D01*
X55220000Y-91340000D01*
X54720000Y-91340000D01*
X53895028Y-91340000D01*
X53895012Y-91340001D01*
X53792302Y-91350494D01*
X53625880Y-91405641D01*
X53625875Y-91405643D01*
X53476654Y-91497684D01*
X53352684Y-91621654D01*
X53260643Y-91770875D01*
X53260641Y-91770880D01*
X53205494Y-91937302D01*
X53205493Y-91937309D01*
X53195000Y-92040013D01*
X40288355Y-92040013D01*
X40309712Y-92018656D01*
X40401814Y-91869334D01*
X40456999Y-91702797D01*
X40467500Y-91600009D01*
X40467499Y-89499992D01*
X40456999Y-89397203D01*
X40401814Y-89230666D01*
X40309712Y-89081344D01*
X40185656Y-88957288D01*
X40036334Y-88865186D01*
X39869797Y-88810001D01*
X39869795Y-88810000D01*
X39767016Y-88799500D01*
X39767009Y-88799500D01*
X38054230Y-88799500D01*
X37987191Y-88779815D01*
X37966549Y-88763181D01*
X37145421Y-87942052D01*
X37145414Y-87942046D01*
X37071729Y-87892812D01*
X37071729Y-87892813D01*
X37022491Y-87859913D01*
X36885917Y-87803343D01*
X36885907Y-87803340D01*
X36740920Y-87774500D01*
X36740918Y-87774500D01*
X30537330Y-87774500D01*
X30470291Y-87754815D01*
X30449649Y-87738181D01*
X23633649Y-80922181D01*
X23600164Y-80860858D01*
X23605148Y-80791166D01*
X23647020Y-80735233D01*
X23712484Y-80710816D01*
X23721330Y-80710500D01*
X56742212Y-80710500D01*
X56809251Y-80730185D01*
X56829893Y-80746819D01*
X64645894Y-88562819D01*
X64679379Y-88624142D01*
X64674395Y-88693834D01*
X64632523Y-88749767D01*
X64567059Y-88774184D01*
X64558213Y-88774500D01*
X64478628Y-88774500D01*
X64478622Y-88774500D01*
X64478617Y-88774501D01*
X64247877Y-88804878D01*
X64023052Y-88865120D01*
X63808039Y-88954180D01*
X63808023Y-88954188D01*
X63606475Y-89070553D01*
X63606459Y-89070564D01*
X63421820Y-89212242D01*
X63421813Y-89212248D01*
X63257248Y-89376813D01*
X63257242Y-89376820D01*
X63115564Y-89561459D01*
X63115553Y-89561475D01*
X62999188Y-89763023D01*
X62999180Y-89763039D01*
X62910120Y-89978052D01*
X62849878Y-90202877D01*
X62819501Y-90433617D01*
X62819500Y-90433634D01*
X62819500Y-90666365D01*
X62819501Y-90666382D01*
X62849878Y-90897122D01*
X62910120Y-91121947D01*
X62999180Y-91336960D01*
X62999188Y-91336976D01*
X63115553Y-91538524D01*
X63115564Y-91538540D01*
X63257242Y-91723179D01*
X63257248Y-91723186D01*
X63421813Y-91887751D01*
X63421820Y-91887757D01*
X63459696Y-91916820D01*
X63606468Y-92029442D01*
X63606475Y-92029446D01*
X63808023Y-92145811D01*
X63808039Y-92145819D01*
X64023052Y-92234879D01*
X64023054Y-92234879D01*
X64023060Y-92234882D01*
X64247874Y-92295121D01*
X64478628Y-92325500D01*
X64478635Y-92325500D01*
X64711365Y-92325500D01*
X64711372Y-92325500D01*
X64942126Y-92295121D01*
X65166940Y-92234882D01*
X65224953Y-92210852D01*
X65381960Y-92145819D01*
X65381963Y-92145817D01*
X65381969Y-92145815D01*
X65583532Y-92029442D01*
X65768181Y-91887756D01*
X65932756Y-91723181D01*
X65934151Y-91721363D01*
X65934706Y-91720957D01*
X65935432Y-91720130D01*
X65935617Y-91720292D01*
X65990575Y-91680155D01*
X66060321Y-91675995D01*
X66121244Y-91710202D01*
X66150239Y-91757836D01*
X66187186Y-91869333D01*
X66187187Y-91869336D01*
X66198549Y-91887756D01*
X66279288Y-92018656D01*
X66403344Y-92142712D01*
X66552666Y-92234814D01*
X66719203Y-92289999D01*
X66821991Y-92300500D01*
X68972008Y-92300499D01*
X69074797Y-92289999D01*
X69241334Y-92234814D01*
X69390656Y-92142712D01*
X69493355Y-92040013D01*
X82400000Y-92040013D01*
X82400000Y-92840000D01*
X83925000Y-92840000D01*
X83925000Y-91340000D01*
X84425000Y-91340000D01*
X84425000Y-94839999D01*
X85119411Y-94839999D01*
X85186450Y-94859684D01*
X85232205Y-94912488D01*
X85242149Y-94981646D01*
X85219730Y-95036883D01*
X85217387Y-95040107D01*
X85136957Y-95197957D01*
X85136956Y-95197960D01*
X85082214Y-95366443D01*
X85054500Y-95541421D01*
X85054500Y-95718578D01*
X85082214Y-95893556D01*
X85136956Y-96062039D01*
X85136957Y-96062042D01*
X85217386Y-96219890D01*
X85321517Y-96363214D01*
X85446786Y-96488483D01*
X85590110Y-96592614D01*
X85658577Y-96627500D01*
X85747957Y-96673042D01*
X85747960Y-96673043D01*
X85832201Y-96700414D01*
X85916445Y-96727786D01*
X86091421Y-96755500D01*
X86091422Y-96755500D01*
X86268578Y-96755500D01*
X86268579Y-96755500D01*
X86443555Y-96727786D01*
X86612042Y-96673042D01*
X86769890Y-96592614D01*
X86913214Y-96488483D01*
X87038483Y-96363214D01*
X87142614Y-96219890D01*
X87223042Y-96062042D01*
X87277786Y-95893555D01*
X87305500Y-95718579D01*
X87305500Y-95541421D01*
X87296165Y-95482486D01*
X89009500Y-95482486D01*
X89009500Y-95777513D01*
X89024778Y-95893555D01*
X89048007Y-96069993D01*
X89124361Y-96354951D01*
X89124364Y-96354961D01*
X89237254Y-96627500D01*
X89237258Y-96627510D01*
X89384761Y-96882993D01*
X89564352Y-97117040D01*
X89564358Y-97117047D01*
X89772952Y-97325641D01*
X89772959Y-97325647D01*
X90007006Y-97505238D01*
X90262489Y-97652741D01*
X90262490Y-97652741D01*
X90262493Y-97652743D01*
X90535048Y-97765639D01*
X90820007Y-97841993D01*
X91112494Y-97880500D01*
X91112501Y-97880500D01*
X91407499Y-97880500D01*
X91407506Y-97880500D01*
X91699993Y-97841993D01*
X91984952Y-97765639D01*
X92257507Y-97652743D01*
X92512994Y-97505238D01*
X92747042Y-97325646D01*
X92955646Y-97117042D01*
X93135238Y-96882994D01*
X93282743Y-96627507D01*
X93395639Y-96354952D01*
X93471993Y-96069993D01*
X93510500Y-95777506D01*
X93510500Y-95541421D01*
X95214500Y-95541421D01*
X95214500Y-95718578D01*
X95242214Y-95893556D01*
X95296956Y-96062039D01*
X95296957Y-96062042D01*
X95377386Y-96219890D01*
X95481517Y-96363214D01*
X95606786Y-96488483D01*
X95750110Y-96592614D01*
X95818577Y-96627500D01*
X95907957Y-96673042D01*
X95907960Y-96673043D01*
X95992201Y-96700414D01*
X96076445Y-96727786D01*
X96251421Y-96755500D01*
X96251422Y-96755500D01*
X96428578Y-96755500D01*
X96428579Y-96755500D01*
X96603555Y-96727786D01*
X96772042Y-96673042D01*
X96929890Y-96592614D01*
X97073214Y-96488483D01*
X97198483Y-96363214D01*
X97302614Y-96219890D01*
X97383042Y-96062042D01*
X97437786Y-95893555D01*
X97465500Y-95718579D01*
X97465500Y-95541421D01*
X97437786Y-95366445D01*
X97383042Y-95197958D01*
X97383042Y-95197957D01*
X97302613Y-95040109D01*
X97260137Y-94981646D01*
X97198483Y-94896786D01*
X97073214Y-94771517D01*
X96929890Y-94667386D01*
X96772042Y-94586957D01*
X96772039Y-94586956D01*
X96603556Y-94532214D01*
X96516067Y-94518357D01*
X96428579Y-94504500D01*
X96251421Y-94504500D01*
X96193095Y-94513738D01*
X96076443Y-94532214D01*
X95907960Y-94586956D01*
X95907957Y-94586957D01*
X95750109Y-94667386D01*
X95668338Y-94726796D01*
X95606786Y-94771517D01*
X95606784Y-94771519D01*
X95606783Y-94771519D01*
X95481519Y-94896783D01*
X95481519Y-94896784D01*
X95481517Y-94896786D01*
X95470109Y-94912488D01*
X95377386Y-95040109D01*
X95296957Y-95197957D01*
X95296956Y-95197960D01*
X95242214Y-95366443D01*
X95214500Y-95541421D01*
X93510500Y-95541421D01*
X93510500Y-95482494D01*
X93471993Y-95190007D01*
X93395639Y-94905048D01*
X93394615Y-94902577D01*
X93341505Y-94774358D01*
X93282743Y-94632493D01*
X93256453Y-94586958D01*
X93135238Y-94377006D01*
X92955647Y-94142959D01*
X92955641Y-94142952D01*
X92747047Y-93934358D01*
X92747040Y-93934352D01*
X92512993Y-93754761D01*
X92257510Y-93607258D01*
X92257500Y-93607254D01*
X91984961Y-93494364D01*
X91984954Y-93494362D01*
X91984952Y-93494361D01*
X91699993Y-93418007D01*
X91651113Y-93411571D01*
X91407513Y-93379500D01*
X91407506Y-93379500D01*
X91112494Y-93379500D01*
X91112486Y-93379500D01*
X90834085Y-93416153D01*
X90820007Y-93418007D01*
X90535048Y-93494361D01*
X90535038Y-93494364D01*
X90262499Y-93607254D01*
X90262489Y-93607258D01*
X90007006Y-93754761D01*
X89772959Y-93934352D01*
X89772952Y-93934358D01*
X89564358Y-94142952D01*
X89564352Y-94142959D01*
X89384761Y-94377006D01*
X89237258Y-94632489D01*
X89237254Y-94632499D01*
X89124364Y-94905038D01*
X89124361Y-94905048D01*
X89088172Y-95040110D01*
X89048008Y-95190004D01*
X89048006Y-95190015D01*
X89009500Y-95482486D01*
X87296165Y-95482486D01*
X87277786Y-95366445D01*
X87223042Y-95197958D01*
X87223040Y-95197952D01*
X87140513Y-95035987D01*
X87127616Y-94967317D01*
X87153892Y-94902577D01*
X87210998Y-94862319D01*
X87267181Y-94856752D01*
X87326564Y-94864570D01*
X87333612Y-94865498D01*
X87333628Y-94865500D01*
X87333635Y-94865500D01*
X87566365Y-94865500D01*
X87566372Y-94865500D01*
X87797126Y-94835121D01*
X88021940Y-94774882D01*
X88079953Y-94750852D01*
X88236960Y-94685819D01*
X88236963Y-94685817D01*
X88236969Y-94685815D01*
X88438532Y-94569442D01*
X88623181Y-94427756D01*
X88787756Y-94263181D01*
X88929442Y-94078532D01*
X89045815Y-93876969D01*
X89134882Y-93661940D01*
X89195121Y-93437126D01*
X89225500Y-93206372D01*
X89225500Y-92973628D01*
X89195121Y-92742874D01*
X89134882Y-92518060D01*
X89134879Y-92518052D01*
X89045819Y-92303039D01*
X89045811Y-92303023D01*
X88929446Y-92101475D01*
X88929442Y-92101468D01*
X88807841Y-91942994D01*
X88787757Y-91916820D01*
X88787751Y-91916813D01*
X88623186Y-91752248D01*
X88623179Y-91752242D01*
X88438540Y-91610564D01*
X88438538Y-91610562D01*
X88438532Y-91610558D01*
X88438527Y-91610555D01*
X88438524Y-91610553D01*
X88236976Y-91494188D01*
X88236960Y-91494180D01*
X88021947Y-91405120D01*
X87818077Y-91350493D01*
X87797126Y-91344879D01*
X87797125Y-91344878D01*
X87797122Y-91344878D01*
X87566382Y-91314501D01*
X87566377Y-91314500D01*
X87566372Y-91314500D01*
X87333628Y-91314500D01*
X87333622Y-91314500D01*
X87333617Y-91314501D01*
X87102877Y-91344878D01*
X86878052Y-91405120D01*
X86663039Y-91494180D01*
X86663023Y-91494188D01*
X86461475Y-91610553D01*
X86461459Y-91610564D01*
X86276821Y-91752241D01*
X86119552Y-91909510D01*
X86058229Y-91942994D01*
X85988537Y-91938010D01*
X85932604Y-91896138D01*
X85914165Y-91860832D01*
X85884358Y-91770880D01*
X85884356Y-91770875D01*
X85792315Y-91621654D01*
X85668345Y-91497684D01*
X85519124Y-91405643D01*
X85519119Y-91405641D01*
X85352697Y-91350494D01*
X85352690Y-91350493D01*
X85249986Y-91340000D01*
X84425000Y-91340000D01*
X83925000Y-91340000D01*
X83100028Y-91340000D01*
X83100012Y-91340001D01*
X82997302Y-91350494D01*
X82830880Y-91405641D01*
X82830875Y-91405643D01*
X82681654Y-91497684D01*
X82557684Y-91621654D01*
X82465643Y-91770875D01*
X82465641Y-91770880D01*
X82410494Y-91937302D01*
X82410493Y-91937309D01*
X82400000Y-92040013D01*
X69493355Y-92040013D01*
X69514712Y-92018656D01*
X69606814Y-91869334D01*
X69661999Y-91702797D01*
X69672500Y-91600009D01*
X69672499Y-89499992D01*
X69661999Y-89397203D01*
X69606814Y-89230666D01*
X69514712Y-89081344D01*
X69390656Y-88957288D01*
X69241334Y-88865186D01*
X69074797Y-88810001D01*
X69074795Y-88810000D01*
X68972016Y-88799500D01*
X68972009Y-88799500D01*
X67056672Y-88799500D01*
X66989633Y-88779815D01*
X66968991Y-88763181D01*
X58427991Y-80222181D01*
X58394506Y-80160858D01*
X58399490Y-80091166D01*
X58441362Y-80035233D01*
X58506826Y-80010816D01*
X58515672Y-80010500D01*
X85449770Y-80010500D01*
X85516809Y-80030185D01*
X85537451Y-80046819D01*
X94059709Y-88569076D01*
X94093194Y-88630399D01*
X94088210Y-88700091D01*
X94046338Y-88756024D01*
X93980874Y-88780441D01*
X93955843Y-88779696D01*
X93916382Y-88774501D01*
X93916377Y-88774500D01*
X93916372Y-88774500D01*
X93683628Y-88774500D01*
X93683622Y-88774500D01*
X93683617Y-88774501D01*
X93452877Y-88804878D01*
X93228052Y-88865120D01*
X93013039Y-88954180D01*
X93013023Y-88954188D01*
X92811475Y-89070553D01*
X92811459Y-89070564D01*
X92626820Y-89212242D01*
X92626813Y-89212248D01*
X92462248Y-89376813D01*
X92462242Y-89376820D01*
X92320564Y-89561459D01*
X92320553Y-89561475D01*
X92204188Y-89763023D01*
X92204180Y-89763039D01*
X92115120Y-89978052D01*
X92054878Y-90202877D01*
X92024501Y-90433617D01*
X92024500Y-90433634D01*
X92024500Y-90666365D01*
X92024501Y-90666382D01*
X92054878Y-90897122D01*
X92115120Y-91121947D01*
X92204180Y-91336960D01*
X92204188Y-91336976D01*
X92320553Y-91538524D01*
X92320564Y-91538540D01*
X92462242Y-91723179D01*
X92462248Y-91723186D01*
X92626813Y-91887751D01*
X92626820Y-91887757D01*
X92664696Y-91916820D01*
X92811468Y-92029442D01*
X92811475Y-92029446D01*
X93013023Y-92145811D01*
X93013039Y-92145819D01*
X93228052Y-92234879D01*
X93228054Y-92234879D01*
X93228060Y-92234882D01*
X93452874Y-92295121D01*
X93683628Y-92325500D01*
X93683635Y-92325500D01*
X93916365Y-92325500D01*
X93916372Y-92325500D01*
X94147126Y-92295121D01*
X94371940Y-92234882D01*
X94429953Y-92210852D01*
X94586960Y-92145819D01*
X94586963Y-92145817D01*
X94586969Y-92145815D01*
X94788532Y-92029442D01*
X94973181Y-91887756D01*
X95137756Y-91723181D01*
X95139151Y-91721363D01*
X95139706Y-91720957D01*
X95140432Y-91720130D01*
X95140617Y-91720292D01*
X95195575Y-91680155D01*
X95265321Y-91675995D01*
X95326244Y-91710202D01*
X95355239Y-91757836D01*
X95392186Y-91869333D01*
X95392187Y-91869336D01*
X95403549Y-91887756D01*
X95484288Y-92018656D01*
X95608344Y-92142712D01*
X95757666Y-92234814D01*
X95924203Y-92289999D01*
X96026991Y-92300500D01*
X98177008Y-92300499D01*
X98279797Y-92289999D01*
X98446334Y-92234814D01*
X98595656Y-92142712D01*
X98719712Y-92018656D01*
X98811814Y-91869334D01*
X98866999Y-91702797D01*
X98877500Y-91600009D01*
X98877499Y-89499992D01*
X98866999Y-89397203D01*
X98811814Y-89230666D01*
X98719712Y-89081344D01*
X98595656Y-88957288D01*
X98446334Y-88865186D01*
X98279797Y-88810001D01*
X98279795Y-88810000D01*
X98177016Y-88799500D01*
X98177009Y-88799500D01*
X96464229Y-88799500D01*
X96397190Y-88779815D01*
X96376548Y-88763181D01*
X86290421Y-78677052D01*
X86290414Y-78677046D01*
X86216729Y-78627812D01*
X86216729Y-78627813D01*
X86167491Y-78594913D01*
X86030917Y-78538343D01*
X86030907Y-78538340D01*
X85885920Y-78509500D01*
X85885918Y-78509500D01*
X23252229Y-78509500D01*
X23185190Y-78489815D01*
X23164548Y-78473181D01*
X22976819Y-78285451D01*
X22943334Y-78224128D01*
X22940500Y-78197770D01*
X22940500Y-66934986D01*
X23990001Y-66934986D01*
X24000494Y-67037697D01*
X24055641Y-67204119D01*
X24055643Y-67204124D01*
X24147684Y-67353345D01*
X24271654Y-67477315D01*
X24420875Y-67569356D01*
X24420880Y-67569358D01*
X24587302Y-67624505D01*
X24587309Y-67624506D01*
X24690019Y-67634999D01*
X25514999Y-67634999D01*
X25515000Y-67634998D01*
X25515000Y-66135000D01*
X23990001Y-66135000D01*
X23990001Y-66934986D01*
X22940500Y-66934986D01*
X22940500Y-64835013D01*
X23990000Y-64835013D01*
X23990000Y-65635000D01*
X25515000Y-65635000D01*
X25515000Y-64135000D01*
X26015000Y-64135000D01*
X26015000Y-67634999D01*
X26709411Y-67634999D01*
X26776450Y-67654684D01*
X26822205Y-67707488D01*
X26832149Y-67776646D01*
X26809730Y-67831883D01*
X26807387Y-67835107D01*
X26726957Y-67992957D01*
X26726956Y-67992960D01*
X26672214Y-68161443D01*
X26644500Y-68336421D01*
X26644500Y-68513578D01*
X26672214Y-68688556D01*
X26726956Y-68857039D01*
X26726957Y-68857042D01*
X26807386Y-69014890D01*
X26911517Y-69158214D01*
X27036786Y-69283483D01*
X27180110Y-69387614D01*
X27248577Y-69422500D01*
X27337957Y-69468042D01*
X27337960Y-69468043D01*
X27422201Y-69495414D01*
X27506445Y-69522786D01*
X27681421Y-69550500D01*
X27681422Y-69550500D01*
X27858578Y-69550500D01*
X27858579Y-69550500D01*
X28033555Y-69522786D01*
X28202042Y-69468042D01*
X28359890Y-69387614D01*
X28503214Y-69283483D01*
X28628483Y-69158214D01*
X28732614Y-69014890D01*
X28813042Y-68857042D01*
X28867786Y-68688555D01*
X28895500Y-68513579D01*
X28895500Y-68336421D01*
X28886165Y-68277486D01*
X30599500Y-68277486D01*
X30599500Y-68572513D01*
X30614778Y-68688555D01*
X30638007Y-68864993D01*
X30714361Y-69149951D01*
X30714364Y-69149961D01*
X30827254Y-69422500D01*
X30827258Y-69422510D01*
X30974761Y-69677993D01*
X31154352Y-69912040D01*
X31154358Y-69912047D01*
X31362952Y-70120641D01*
X31362959Y-70120647D01*
X31597006Y-70300238D01*
X31852489Y-70447741D01*
X31852490Y-70447741D01*
X31852493Y-70447743D01*
X32125048Y-70560639D01*
X32410007Y-70636993D01*
X32702494Y-70675500D01*
X32702501Y-70675500D01*
X32997499Y-70675500D01*
X32997506Y-70675500D01*
X33289993Y-70636993D01*
X33574952Y-70560639D01*
X33847507Y-70447743D01*
X34102994Y-70300238D01*
X34337042Y-70120646D01*
X34545646Y-69912042D01*
X34725238Y-69677994D01*
X34872743Y-69422507D01*
X34985639Y-69149952D01*
X35061993Y-68864993D01*
X35100500Y-68572506D01*
X35100500Y-68336421D01*
X36804500Y-68336421D01*
X36804500Y-68513578D01*
X36832214Y-68688556D01*
X36886956Y-68857039D01*
X36886957Y-68857042D01*
X36967386Y-69014890D01*
X37071517Y-69158214D01*
X37196786Y-69283483D01*
X37340110Y-69387614D01*
X37408577Y-69422500D01*
X37497957Y-69468042D01*
X37497960Y-69468043D01*
X37582201Y-69495414D01*
X37666445Y-69522786D01*
X37841421Y-69550500D01*
X37841422Y-69550500D01*
X38018578Y-69550500D01*
X38018579Y-69550500D01*
X38193555Y-69522786D01*
X38362042Y-69468042D01*
X38519890Y-69387614D01*
X38663214Y-69283483D01*
X38788483Y-69158214D01*
X38892614Y-69014890D01*
X38973042Y-68857042D01*
X39027786Y-68688555D01*
X39055500Y-68513579D01*
X39055500Y-68336421D01*
X39027786Y-68161445D01*
X38973042Y-67992958D01*
X38973042Y-67992957D01*
X38892613Y-67835109D01*
X38850137Y-67776646D01*
X38788483Y-67691786D01*
X38663214Y-67566517D01*
X38519890Y-67462386D01*
X38362042Y-67381957D01*
X38362039Y-67381956D01*
X38193556Y-67327214D01*
X38106067Y-67313357D01*
X38018579Y-67299500D01*
X37841421Y-67299500D01*
X37783095Y-67308738D01*
X37666443Y-67327214D01*
X37497960Y-67381956D01*
X37497957Y-67381957D01*
X37340109Y-67462386D01*
X37258338Y-67521796D01*
X37196786Y-67566517D01*
X37196784Y-67566519D01*
X37196783Y-67566519D01*
X37071519Y-67691783D01*
X37071519Y-67691784D01*
X37071517Y-67691786D01*
X37060109Y-67707488D01*
X36967386Y-67835109D01*
X36886957Y-67992957D01*
X36886956Y-67992960D01*
X36832214Y-68161443D01*
X36804500Y-68336421D01*
X35100500Y-68336421D01*
X35100500Y-68277494D01*
X35061993Y-67985007D01*
X34985639Y-67700048D01*
X34984615Y-67697577D01*
X34931505Y-67569358D01*
X34872743Y-67427493D01*
X34846453Y-67381958D01*
X34725238Y-67172006D01*
X34545647Y-66937959D01*
X34545641Y-66937952D01*
X34542675Y-66934986D01*
X53195001Y-66934986D01*
X53205494Y-67037697D01*
X53260641Y-67204119D01*
X53260643Y-67204124D01*
X53352684Y-67353345D01*
X53476654Y-67477315D01*
X53625875Y-67569356D01*
X53625880Y-67569358D01*
X53792302Y-67624505D01*
X53792309Y-67624506D01*
X53895019Y-67634999D01*
X54719999Y-67634999D01*
X54720000Y-67634998D01*
X54720000Y-66135000D01*
X53195001Y-66135000D01*
X53195001Y-66934986D01*
X34542675Y-66934986D01*
X34337047Y-66729358D01*
X34337040Y-66729352D01*
X34102993Y-66549761D01*
X33847510Y-66402258D01*
X33847500Y-66402254D01*
X33574961Y-66289364D01*
X33574954Y-66289362D01*
X33574952Y-66289361D01*
X33289993Y-66213007D01*
X33289987Y-66213006D01*
X33289982Y-66213005D01*
X33248584Y-66207555D01*
X33192367Y-66200154D01*
X32997513Y-66174500D01*
X32997506Y-66174500D01*
X32702494Y-66174500D01*
X32702486Y-66174500D01*
X32424085Y-66211153D01*
X32410007Y-66213007D01*
X32125048Y-66289361D01*
X32125038Y-66289364D01*
X31852499Y-66402254D01*
X31852489Y-66402258D01*
X31597006Y-66549761D01*
X31362959Y-66729352D01*
X31362952Y-66729358D01*
X31154358Y-66937952D01*
X31154352Y-66937959D01*
X30974761Y-67172006D01*
X30827258Y-67427489D01*
X30827254Y-67427499D01*
X30714364Y-67700038D01*
X30714361Y-67700048D01*
X30678172Y-67835110D01*
X30638008Y-67985004D01*
X30638006Y-67985015D01*
X30599500Y-68277486D01*
X28886165Y-68277486D01*
X28867786Y-68161445D01*
X28813042Y-67992958D01*
X28813040Y-67992952D01*
X28730513Y-67830987D01*
X28717616Y-67762317D01*
X28743892Y-67697577D01*
X28800998Y-67657319D01*
X28857181Y-67651752D01*
X28916564Y-67659570D01*
X28923612Y-67660498D01*
X28923628Y-67660500D01*
X28923635Y-67660500D01*
X29156365Y-67660500D01*
X29156372Y-67660500D01*
X29387126Y-67630121D01*
X29611940Y-67569882D01*
X29669953Y-67545852D01*
X29826960Y-67480819D01*
X29826963Y-67480817D01*
X29826969Y-67480815D01*
X30028532Y-67364442D01*
X30213181Y-67222756D01*
X30377756Y-67058181D01*
X30519442Y-66873532D01*
X30635815Y-66671969D01*
X30724882Y-66456940D01*
X30785121Y-66232126D01*
X30815500Y-66001372D01*
X30815500Y-65768628D01*
X30785121Y-65537874D01*
X30724882Y-65313060D01*
X30724879Y-65313052D01*
X30635819Y-65098039D01*
X30635811Y-65098023D01*
X30519446Y-64896475D01*
X30519442Y-64896468D01*
X30397841Y-64737994D01*
X30377757Y-64711820D01*
X30377751Y-64711813D01*
X30213186Y-64547248D01*
X30213179Y-64547242D01*
X30028540Y-64405564D01*
X30028538Y-64405562D01*
X30028532Y-64405558D01*
X30028527Y-64405555D01*
X30028524Y-64405553D01*
X29826976Y-64289188D01*
X29826960Y-64289180D01*
X29611947Y-64200120D01*
X29408077Y-64145493D01*
X29387126Y-64139879D01*
X29387125Y-64139878D01*
X29387122Y-64139878D01*
X29156382Y-64109501D01*
X29156377Y-64109500D01*
X29156372Y-64109500D01*
X28923628Y-64109500D01*
X28923622Y-64109500D01*
X28923617Y-64109501D01*
X28692877Y-64139878D01*
X28468052Y-64200120D01*
X28253039Y-64289180D01*
X28253023Y-64289188D01*
X28051475Y-64405553D01*
X28051459Y-64405564D01*
X27866821Y-64547241D01*
X27709552Y-64704510D01*
X27648229Y-64737994D01*
X27578537Y-64733010D01*
X27522604Y-64691138D01*
X27504165Y-64655832D01*
X27474358Y-64565880D01*
X27474356Y-64565875D01*
X27382315Y-64416654D01*
X27258345Y-64292684D01*
X27109124Y-64200643D01*
X27109119Y-64200641D01*
X26942697Y-64145494D01*
X26942690Y-64145493D01*
X26839986Y-64135000D01*
X26015000Y-64135000D01*
X25515000Y-64135000D01*
X24690028Y-64135000D01*
X24690012Y-64135001D01*
X24587302Y-64145494D01*
X24420880Y-64200641D01*
X24420875Y-64200643D01*
X24271654Y-64292684D01*
X24147684Y-64416654D01*
X24055643Y-64565875D01*
X24055641Y-64565880D01*
X24000494Y-64732302D01*
X24000493Y-64732309D01*
X23990000Y-64835013D01*
X22940500Y-64835013D01*
X22940500Y-60754500D01*
X22960185Y-60687461D01*
X23012989Y-60641706D01*
X23064500Y-60630500D01*
X41828771Y-60630500D01*
X41895810Y-60650185D01*
X41941565Y-60702989D01*
X41951509Y-60772147D01*
X41922484Y-60835703D01*
X41916452Y-60842181D01*
X40626387Y-62132243D01*
X40565064Y-62165728D01*
X40495372Y-62160744D01*
X40439439Y-62118872D01*
X40421000Y-62083566D01*
X40419716Y-62079691D01*
X40401814Y-62025666D01*
X40309712Y-61876344D01*
X40185656Y-61752288D01*
X40036334Y-61660186D01*
X39869797Y-61605001D01*
X39869795Y-61605000D01*
X39767010Y-61594500D01*
X37616998Y-61594500D01*
X37616981Y-61594501D01*
X37514203Y-61605000D01*
X37514200Y-61605001D01*
X37347668Y-61660185D01*
X37347663Y-61660187D01*
X37198342Y-61752289D01*
X37074289Y-61876342D01*
X36982187Y-62025663D01*
X36982186Y-62025666D01*
X36945239Y-62137164D01*
X36905466Y-62194608D01*
X36840950Y-62221431D01*
X36772174Y-62209116D01*
X36730535Y-62174778D01*
X36730432Y-62174870D01*
X36729872Y-62174231D01*
X36729151Y-62173637D01*
X36727755Y-62171817D01*
X36563186Y-62007248D01*
X36563179Y-62007242D01*
X36378540Y-61865564D01*
X36378538Y-61865562D01*
X36378532Y-61865558D01*
X36378527Y-61865555D01*
X36378524Y-61865553D01*
X36176976Y-61749188D01*
X36176960Y-61749180D01*
X35961947Y-61660120D01*
X35756237Y-61605000D01*
X35737126Y-61599879D01*
X35737125Y-61599878D01*
X35737122Y-61599878D01*
X35506382Y-61569501D01*
X35506377Y-61569500D01*
X35506372Y-61569500D01*
X35273628Y-61569500D01*
X35273622Y-61569500D01*
X35273617Y-61569501D01*
X35042877Y-61599878D01*
X34818052Y-61660120D01*
X34603039Y-61749180D01*
X34603023Y-61749188D01*
X34401475Y-61865553D01*
X34401459Y-61865564D01*
X34216820Y-62007242D01*
X34216813Y-62007248D01*
X34052248Y-62171813D01*
X34052242Y-62171820D01*
X33910564Y-62356459D01*
X33910553Y-62356475D01*
X33794188Y-62558023D01*
X33794180Y-62558039D01*
X33705120Y-62773052D01*
X33644878Y-62997877D01*
X33614501Y-63228617D01*
X33614500Y-63228634D01*
X33614500Y-63461365D01*
X33614501Y-63461382D01*
X33644878Y-63692122D01*
X33705120Y-63916947D01*
X33794180Y-64131960D01*
X33794188Y-64131976D01*
X33910553Y-64333524D01*
X33910564Y-64333540D01*
X34052242Y-64518179D01*
X34052248Y-64518186D01*
X34216813Y-64682751D01*
X34216820Y-64682757D01*
X34254696Y-64711820D01*
X34401468Y-64824442D01*
X34401475Y-64824446D01*
X34603023Y-64940811D01*
X34603039Y-64940819D01*
X34818052Y-65029879D01*
X34818054Y-65029879D01*
X34818060Y-65029882D01*
X35042874Y-65090121D01*
X35273628Y-65120500D01*
X35273635Y-65120500D01*
X35506365Y-65120500D01*
X35506372Y-65120500D01*
X35737126Y-65090121D01*
X35961940Y-65029882D01*
X36019953Y-65005852D01*
X36176960Y-64940819D01*
X36176963Y-64940817D01*
X36176969Y-64940815D01*
X36378532Y-64824442D01*
X36563181Y-64682756D01*
X36727756Y-64518181D01*
X36729151Y-64516363D01*
X36729706Y-64515957D01*
X36730432Y-64515130D01*
X36730617Y-64515292D01*
X36785575Y-64475155D01*
X36855321Y-64470995D01*
X36916244Y-64505202D01*
X36945239Y-64552836D01*
X36982186Y-64664333D01*
X36982187Y-64664336D01*
X36993549Y-64682756D01*
X37074288Y-64813656D01*
X37198344Y-64937712D01*
X37347666Y-65029814D01*
X37514203Y-65084999D01*
X37616991Y-65095500D01*
X39767008Y-65095499D01*
X39869797Y-65084999D01*
X40036334Y-65029814D01*
X40185656Y-64937712D01*
X40288355Y-64835013D01*
X53195000Y-64835013D01*
X53195000Y-65635000D01*
X54720000Y-65635000D01*
X54720000Y-64135000D01*
X55220000Y-64135000D01*
X55220000Y-67634999D01*
X55914411Y-67634999D01*
X55981450Y-67654684D01*
X56027205Y-67707488D01*
X56037149Y-67776646D01*
X56014730Y-67831883D01*
X56012387Y-67835107D01*
X55931957Y-67992957D01*
X55931956Y-67992960D01*
X55877214Y-68161443D01*
X55849500Y-68336421D01*
X55849500Y-68513578D01*
X55877214Y-68688556D01*
X55931956Y-68857039D01*
X55931957Y-68857042D01*
X56012386Y-69014890D01*
X56116517Y-69158214D01*
X56241786Y-69283483D01*
X56385110Y-69387614D01*
X56453577Y-69422500D01*
X56542957Y-69468042D01*
X56542960Y-69468043D01*
X56627201Y-69495414D01*
X56711445Y-69522786D01*
X56886421Y-69550500D01*
X56886422Y-69550500D01*
X57063578Y-69550500D01*
X57063579Y-69550500D01*
X57238555Y-69522786D01*
X57407042Y-69468042D01*
X57564890Y-69387614D01*
X57708214Y-69283483D01*
X57833483Y-69158214D01*
X57937614Y-69014890D01*
X58018042Y-68857042D01*
X58072786Y-68688555D01*
X58100500Y-68513579D01*
X58100500Y-68336421D01*
X58091165Y-68277486D01*
X59804500Y-68277486D01*
X59804500Y-68572513D01*
X59819778Y-68688555D01*
X59843007Y-68864993D01*
X59919361Y-69149951D01*
X59919364Y-69149961D01*
X60032254Y-69422500D01*
X60032258Y-69422510D01*
X60179761Y-69677993D01*
X60359352Y-69912040D01*
X60359358Y-69912047D01*
X60567952Y-70120641D01*
X60567959Y-70120647D01*
X60802006Y-70300238D01*
X61057489Y-70447741D01*
X61057490Y-70447741D01*
X61057493Y-70447743D01*
X61330048Y-70560639D01*
X61615007Y-70636993D01*
X61907494Y-70675500D01*
X61907501Y-70675500D01*
X62202499Y-70675500D01*
X62202506Y-70675500D01*
X62494993Y-70636993D01*
X62779952Y-70560639D01*
X63052507Y-70447743D01*
X63307994Y-70300238D01*
X63542042Y-70120646D01*
X63750646Y-69912042D01*
X63930238Y-69677994D01*
X64077743Y-69422507D01*
X64190639Y-69149952D01*
X64266993Y-68864993D01*
X64305500Y-68572506D01*
X64305500Y-68336421D01*
X66009500Y-68336421D01*
X66009500Y-68513578D01*
X66037214Y-68688556D01*
X66091956Y-68857039D01*
X66091957Y-68857042D01*
X66172386Y-69014890D01*
X66276517Y-69158214D01*
X66401786Y-69283483D01*
X66545110Y-69387614D01*
X66613577Y-69422500D01*
X66702957Y-69468042D01*
X66702960Y-69468043D01*
X66787201Y-69495414D01*
X66871445Y-69522786D01*
X67046421Y-69550500D01*
X67046422Y-69550500D01*
X67223578Y-69550500D01*
X67223579Y-69550500D01*
X67398555Y-69522786D01*
X67567042Y-69468042D01*
X67724890Y-69387614D01*
X67868214Y-69283483D01*
X67993483Y-69158214D01*
X68097614Y-69014890D01*
X68178042Y-68857042D01*
X68232786Y-68688555D01*
X68260500Y-68513579D01*
X68260500Y-68336421D01*
X68232786Y-68161445D01*
X68178042Y-67992958D01*
X68178042Y-67992957D01*
X68097613Y-67835109D01*
X68055137Y-67776646D01*
X67993483Y-67691786D01*
X67868214Y-67566517D01*
X67724890Y-67462386D01*
X67567042Y-67381957D01*
X67567039Y-67381956D01*
X67398556Y-67327214D01*
X67311067Y-67313357D01*
X67223579Y-67299500D01*
X67046421Y-67299500D01*
X66988095Y-67308738D01*
X66871443Y-67327214D01*
X66702960Y-67381956D01*
X66702957Y-67381957D01*
X66545109Y-67462386D01*
X66463338Y-67521796D01*
X66401786Y-67566517D01*
X66401784Y-67566519D01*
X66401783Y-67566519D01*
X66276519Y-67691783D01*
X66276519Y-67691784D01*
X66276517Y-67691786D01*
X66265109Y-67707488D01*
X66172386Y-67835109D01*
X66091957Y-67992957D01*
X66091956Y-67992960D01*
X66037214Y-68161443D01*
X66009500Y-68336421D01*
X64305500Y-68336421D01*
X64305500Y-68277494D01*
X64266993Y-67985007D01*
X64190639Y-67700048D01*
X64189615Y-67697577D01*
X64136505Y-67569358D01*
X64077743Y-67427493D01*
X64051453Y-67381958D01*
X63930238Y-67172006D01*
X63750647Y-66937959D01*
X63750641Y-66937952D01*
X63747675Y-66934986D01*
X82400001Y-66934986D01*
X82410494Y-67037697D01*
X82465641Y-67204119D01*
X82465643Y-67204124D01*
X82557684Y-67353345D01*
X82681654Y-67477315D01*
X82830875Y-67569356D01*
X82830880Y-67569358D01*
X82997302Y-67624505D01*
X82997309Y-67624506D01*
X83100019Y-67634999D01*
X83924999Y-67634999D01*
X83925000Y-67634998D01*
X83925000Y-66135000D01*
X82400001Y-66135000D01*
X82400001Y-66934986D01*
X63747675Y-66934986D01*
X63542047Y-66729358D01*
X63542040Y-66729352D01*
X63307993Y-66549761D01*
X63052510Y-66402258D01*
X63052500Y-66402254D01*
X62779961Y-66289364D01*
X62779954Y-66289362D01*
X62779952Y-66289361D01*
X62494993Y-66213007D01*
X62494987Y-66213006D01*
X62494982Y-66213005D01*
X62453584Y-66207555D01*
X62397367Y-66200154D01*
X62202513Y-66174500D01*
X62202506Y-66174500D01*
X61907494Y-66174500D01*
X61907486Y-66174500D01*
X61629085Y-66211153D01*
X61615007Y-66213007D01*
X61330048Y-66289361D01*
X61330038Y-66289364D01*
X61057499Y-66402254D01*
X61057489Y-66402258D01*
X60802006Y-66549761D01*
X60567959Y-66729352D01*
X60567952Y-66729358D01*
X60359358Y-66937952D01*
X60359352Y-66937959D01*
X60179761Y-67172006D01*
X60032258Y-67427489D01*
X60032254Y-67427499D01*
X59919364Y-67700038D01*
X59919361Y-67700048D01*
X59883172Y-67835110D01*
X59843008Y-67985004D01*
X59843006Y-67985015D01*
X59804500Y-68277486D01*
X58091165Y-68277486D01*
X58072786Y-68161445D01*
X58018042Y-67992958D01*
X58018040Y-67992952D01*
X57935513Y-67830987D01*
X57922616Y-67762317D01*
X57948892Y-67697577D01*
X58005998Y-67657319D01*
X58062181Y-67651752D01*
X58121564Y-67659570D01*
X58128612Y-67660498D01*
X58128628Y-67660500D01*
X58128635Y-67660500D01*
X58361365Y-67660500D01*
X58361372Y-67660500D01*
X58592126Y-67630121D01*
X58816940Y-67569882D01*
X58874953Y-67545852D01*
X59031960Y-67480819D01*
X59031963Y-67480817D01*
X59031969Y-67480815D01*
X59233532Y-67364442D01*
X59418181Y-67222756D01*
X59582756Y-67058181D01*
X59724442Y-66873532D01*
X59840815Y-66671969D01*
X59929882Y-66456940D01*
X59990121Y-66232126D01*
X60020500Y-66001372D01*
X60020500Y-65768628D01*
X59990121Y-65537874D01*
X59929882Y-65313060D01*
X59929879Y-65313052D01*
X59840819Y-65098039D01*
X59840811Y-65098023D01*
X59724446Y-64896475D01*
X59724442Y-64896468D01*
X59602841Y-64737994D01*
X59582757Y-64711820D01*
X59582751Y-64711813D01*
X59418186Y-64547248D01*
X59418179Y-64547242D01*
X59233540Y-64405564D01*
X59233538Y-64405562D01*
X59233532Y-64405558D01*
X59233527Y-64405555D01*
X59233524Y-64405553D01*
X59031976Y-64289188D01*
X59031960Y-64289180D01*
X58816947Y-64200120D01*
X58613077Y-64145493D01*
X58592126Y-64139879D01*
X58592125Y-64139878D01*
X58592122Y-64139878D01*
X58361382Y-64109501D01*
X58361377Y-64109500D01*
X58361372Y-64109500D01*
X58128628Y-64109500D01*
X58128622Y-64109500D01*
X58128617Y-64109501D01*
X57897877Y-64139878D01*
X57673052Y-64200120D01*
X57458039Y-64289180D01*
X57458023Y-64289188D01*
X57256475Y-64405553D01*
X57256459Y-64405564D01*
X57071821Y-64547241D01*
X56914552Y-64704510D01*
X56853229Y-64737994D01*
X56783537Y-64733010D01*
X56727604Y-64691138D01*
X56709165Y-64655832D01*
X56679358Y-64565880D01*
X56679356Y-64565875D01*
X56587315Y-64416654D01*
X56463345Y-64292684D01*
X56314124Y-64200643D01*
X56314119Y-64200641D01*
X56147697Y-64145494D01*
X56147690Y-64145493D01*
X56044986Y-64135000D01*
X55220000Y-64135000D01*
X54720000Y-64135000D01*
X53895028Y-64135000D01*
X53895012Y-64135001D01*
X53792302Y-64145494D01*
X53625880Y-64200641D01*
X53625875Y-64200643D01*
X53476654Y-64292684D01*
X53352684Y-64416654D01*
X53260643Y-64565875D01*
X53260641Y-64565880D01*
X53205494Y-64732302D01*
X53205493Y-64732309D01*
X53195000Y-64835013D01*
X40288355Y-64835013D01*
X40309712Y-64813656D01*
X40401814Y-64664334D01*
X40456999Y-64497797D01*
X40467500Y-64395009D01*
X40467500Y-64213459D01*
X40487185Y-64146420D01*
X40539989Y-64100665D01*
X40567308Y-64091842D01*
X40606692Y-64084007D01*
X40693913Y-64066658D01*
X40830495Y-64010084D01*
X40879729Y-63977186D01*
X40953416Y-63927952D01*
X43514548Y-61366818D01*
X43575871Y-61333334D01*
X43602229Y-61330500D01*
X64402139Y-61330500D01*
X64469178Y-61350185D01*
X64514933Y-61402989D01*
X64524877Y-61472147D01*
X64495852Y-61535703D01*
X64437074Y-61573477D01*
X64418324Y-61577439D01*
X64247877Y-61599878D01*
X64023052Y-61660120D01*
X63808039Y-61749180D01*
X63808023Y-61749188D01*
X63606475Y-61865553D01*
X63606459Y-61865564D01*
X63421820Y-62007242D01*
X63421813Y-62007248D01*
X63257248Y-62171813D01*
X63257242Y-62171820D01*
X63115564Y-62356459D01*
X63115553Y-62356475D01*
X62999188Y-62558023D01*
X62999180Y-62558039D01*
X62910120Y-62773052D01*
X62849878Y-62997877D01*
X62819501Y-63228617D01*
X62819500Y-63228634D01*
X62819500Y-63461365D01*
X62819501Y-63461382D01*
X62849878Y-63692122D01*
X62910120Y-63916947D01*
X62999180Y-64131960D01*
X62999188Y-64131976D01*
X63115553Y-64333524D01*
X63115564Y-64333540D01*
X63257242Y-64518179D01*
X63257248Y-64518186D01*
X63421813Y-64682751D01*
X63421820Y-64682757D01*
X63459696Y-64711820D01*
X63606468Y-64824442D01*
X63606475Y-64824446D01*
X63808023Y-64940811D01*
X63808039Y-64940819D01*
X64023052Y-65029879D01*
X64023054Y-65029879D01*
X64023060Y-65029882D01*
X64247874Y-65090121D01*
X64478628Y-65120500D01*
X64478635Y-65120500D01*
X64711365Y-65120500D01*
X64711372Y-65120500D01*
X64942126Y-65090121D01*
X65166940Y-65029882D01*
X65224953Y-65005852D01*
X65381960Y-64940819D01*
X65381963Y-64940817D01*
X65381969Y-64940815D01*
X65583532Y-64824442D01*
X65768181Y-64682756D01*
X65932756Y-64518181D01*
X65934151Y-64516363D01*
X65934706Y-64515957D01*
X65935432Y-64515130D01*
X65935617Y-64515292D01*
X65990575Y-64475155D01*
X66060321Y-64470995D01*
X66121244Y-64505202D01*
X66150239Y-64552836D01*
X66187186Y-64664333D01*
X66187187Y-64664336D01*
X66198549Y-64682756D01*
X66279288Y-64813656D01*
X66403344Y-64937712D01*
X66552666Y-65029814D01*
X66719203Y-65084999D01*
X66821991Y-65095500D01*
X68972008Y-65095499D01*
X69074797Y-65084999D01*
X69241334Y-65029814D01*
X69390656Y-64937712D01*
X69514712Y-64813656D01*
X69606814Y-64664334D01*
X69661999Y-64497797D01*
X69672500Y-64395009D01*
X69672500Y-64219500D01*
X69692185Y-64152461D01*
X69744989Y-64106706D01*
X69796500Y-64095500D01*
X82579477Y-64095500D01*
X82646516Y-64115185D01*
X82692271Y-64167989D01*
X82702215Y-64237147D01*
X82673190Y-64300703D01*
X82667158Y-64307181D01*
X82557684Y-64416654D01*
X82465643Y-64565875D01*
X82465641Y-64565880D01*
X82410494Y-64732302D01*
X82410493Y-64732309D01*
X82400000Y-64835013D01*
X82400000Y-65635000D01*
X84051000Y-65635000D01*
X84118039Y-65654685D01*
X84163794Y-65707489D01*
X84175000Y-65759000D01*
X84175000Y-65885000D01*
X84301000Y-65885000D01*
X84368039Y-65904685D01*
X84413794Y-65957489D01*
X84425000Y-66009000D01*
X84425000Y-67634999D01*
X85119411Y-67634999D01*
X85186450Y-67654684D01*
X85232205Y-67707488D01*
X85242149Y-67776646D01*
X85219730Y-67831883D01*
X85217387Y-67835107D01*
X85136957Y-67992957D01*
X85136956Y-67992960D01*
X85082214Y-68161443D01*
X85054500Y-68336421D01*
X85054500Y-68513578D01*
X85082214Y-68688556D01*
X85136956Y-68857039D01*
X85136957Y-68857042D01*
X85217386Y-69014890D01*
X85321517Y-69158214D01*
X85446786Y-69283483D01*
X85590110Y-69387614D01*
X85658577Y-69422500D01*
X85747957Y-69468042D01*
X85747960Y-69468043D01*
X85832201Y-69495414D01*
X85916445Y-69522786D01*
X86091421Y-69550500D01*
X86091422Y-69550500D01*
X86268578Y-69550500D01*
X86268579Y-69550500D01*
X86443555Y-69522786D01*
X86612042Y-69468042D01*
X86769890Y-69387614D01*
X86913214Y-69283483D01*
X87038483Y-69158214D01*
X87142614Y-69014890D01*
X87223042Y-68857042D01*
X87277786Y-68688555D01*
X87305500Y-68513579D01*
X87305500Y-68336421D01*
X87296165Y-68277486D01*
X89009500Y-68277486D01*
X89009500Y-68572513D01*
X89024778Y-68688555D01*
X89048007Y-68864993D01*
X89124361Y-69149951D01*
X89124364Y-69149961D01*
X89237254Y-69422500D01*
X89237258Y-69422510D01*
X89384761Y-69677993D01*
X89564352Y-69912040D01*
X89564358Y-69912047D01*
X89772952Y-70120641D01*
X89772959Y-70120647D01*
X90007006Y-70300238D01*
X90262489Y-70447741D01*
X90262490Y-70447741D01*
X90262493Y-70447743D01*
X90535048Y-70560639D01*
X90820007Y-70636993D01*
X91112494Y-70675500D01*
X91112501Y-70675500D01*
X91407499Y-70675500D01*
X91407506Y-70675500D01*
X91699993Y-70636993D01*
X91984952Y-70560639D01*
X92257507Y-70447743D01*
X92512994Y-70300238D01*
X92747042Y-70120646D01*
X92955646Y-69912042D01*
X93135238Y-69677994D01*
X93282743Y-69422507D01*
X93395639Y-69149952D01*
X93471993Y-68864993D01*
X93510500Y-68572506D01*
X93510500Y-68336421D01*
X95214500Y-68336421D01*
X95214500Y-68513578D01*
X95242214Y-68688556D01*
X95296956Y-68857039D01*
X95296957Y-68857042D01*
X95377386Y-69014890D01*
X95481517Y-69158214D01*
X95606786Y-69283483D01*
X95750110Y-69387614D01*
X95818577Y-69422500D01*
X95907957Y-69468042D01*
X95907960Y-69468043D01*
X95992201Y-69495414D01*
X96076445Y-69522786D01*
X96251421Y-69550500D01*
X96251422Y-69550500D01*
X96428578Y-69550500D01*
X96428579Y-69550500D01*
X96603555Y-69522786D01*
X96772042Y-69468042D01*
X96929890Y-69387614D01*
X97073214Y-69283483D01*
X97198483Y-69158214D01*
X97302614Y-69014890D01*
X97383042Y-68857042D01*
X97437786Y-68688555D01*
X97465500Y-68513579D01*
X97465500Y-68336421D01*
X97437786Y-68161445D01*
X97383042Y-67992958D01*
X97383042Y-67992957D01*
X97302613Y-67835109D01*
X97260137Y-67776646D01*
X97198483Y-67691786D01*
X97073214Y-67566517D01*
X96929890Y-67462386D01*
X96772042Y-67381957D01*
X96772039Y-67381956D01*
X96603556Y-67327214D01*
X96516067Y-67313357D01*
X96428579Y-67299500D01*
X96251421Y-67299500D01*
X96193095Y-67308738D01*
X96076443Y-67327214D01*
X95907960Y-67381956D01*
X95907957Y-67381957D01*
X95750109Y-67462386D01*
X95668338Y-67521796D01*
X95606786Y-67566517D01*
X95606784Y-67566519D01*
X95606783Y-67566519D01*
X95481519Y-67691783D01*
X95481519Y-67691784D01*
X95481517Y-67691786D01*
X95470109Y-67707488D01*
X95377386Y-67835109D01*
X95296957Y-67992957D01*
X95296956Y-67992960D01*
X95242214Y-68161443D01*
X95214500Y-68336421D01*
X93510500Y-68336421D01*
X93510500Y-68277494D01*
X93471993Y-67985007D01*
X93395639Y-67700048D01*
X93394615Y-67697577D01*
X93341505Y-67569358D01*
X93282743Y-67427493D01*
X93256453Y-67381958D01*
X93135238Y-67172006D01*
X92955647Y-66937959D01*
X92955641Y-66937952D01*
X92747047Y-66729358D01*
X92747040Y-66729352D01*
X92512993Y-66549761D01*
X92257510Y-66402258D01*
X92257500Y-66402254D01*
X91984961Y-66289364D01*
X91984954Y-66289362D01*
X91984952Y-66289361D01*
X91699993Y-66213007D01*
X91651113Y-66206571D01*
X91407513Y-66174500D01*
X91407506Y-66174500D01*
X91112494Y-66174500D01*
X91112486Y-66174500D01*
X90834085Y-66211153D01*
X90820007Y-66213007D01*
X90535048Y-66289361D01*
X90535038Y-66289364D01*
X90262499Y-66402254D01*
X90262489Y-66402258D01*
X90007006Y-66549761D01*
X89772959Y-66729352D01*
X89772952Y-66729358D01*
X89564358Y-66937952D01*
X89564352Y-66937959D01*
X89384761Y-67172006D01*
X89237258Y-67427489D01*
X89237254Y-67427499D01*
X89124364Y-67700038D01*
X89124361Y-67700048D01*
X89088172Y-67835110D01*
X89048008Y-67985004D01*
X89048006Y-67985015D01*
X89009500Y-68277486D01*
X87296165Y-68277486D01*
X87277786Y-68161445D01*
X87223042Y-67992958D01*
X87223040Y-67992952D01*
X87140513Y-67830987D01*
X87127616Y-67762317D01*
X87153892Y-67697577D01*
X87210998Y-67657319D01*
X87267181Y-67651752D01*
X87326564Y-67659570D01*
X87333612Y-67660498D01*
X87333628Y-67660500D01*
X87333635Y-67660500D01*
X87566365Y-67660500D01*
X87566372Y-67660500D01*
X87797126Y-67630121D01*
X88021940Y-67569882D01*
X88079953Y-67545852D01*
X88236960Y-67480819D01*
X88236963Y-67480817D01*
X88236969Y-67480815D01*
X88438532Y-67364442D01*
X88623181Y-67222756D01*
X88787756Y-67058181D01*
X88929442Y-66873532D01*
X89045815Y-66671969D01*
X89134882Y-66456940D01*
X89195121Y-66232126D01*
X89225500Y-66001372D01*
X89225500Y-65768628D01*
X89195121Y-65537874D01*
X89134882Y-65313060D01*
X89134879Y-65313052D01*
X89045819Y-65098039D01*
X89045811Y-65098023D01*
X88929446Y-64896475D01*
X88929442Y-64896468D01*
X88807841Y-64737994D01*
X88787757Y-64711820D01*
X88787751Y-64711813D01*
X88623186Y-64547248D01*
X88623179Y-64547242D01*
X88438540Y-64405564D01*
X88438538Y-64405562D01*
X88438532Y-64405558D01*
X88438527Y-64405555D01*
X88438524Y-64405553D01*
X88302271Y-64326887D01*
X88254055Y-64276320D01*
X88240833Y-64207713D01*
X88266801Y-64142848D01*
X88323715Y-64102320D01*
X88364271Y-64095500D01*
X89968920Y-64095500D01*
X90066462Y-64076096D01*
X90113913Y-64066658D01*
X90250495Y-64010084D01*
X90299729Y-63977186D01*
X90373416Y-63927952D01*
X92221678Y-62079689D01*
X92282998Y-62046206D01*
X92352689Y-62051190D01*
X92408623Y-62093062D01*
X92433040Y-62158526D01*
X92418188Y-62226799D01*
X92407733Y-62242857D01*
X92320563Y-62356461D01*
X92320553Y-62356475D01*
X92204188Y-62558023D01*
X92204180Y-62558039D01*
X92115120Y-62773052D01*
X92054878Y-62997877D01*
X92024501Y-63228617D01*
X92024500Y-63228634D01*
X92024500Y-63461365D01*
X92024501Y-63461382D01*
X92054878Y-63692122D01*
X92115120Y-63916947D01*
X92204180Y-64131960D01*
X92204188Y-64131976D01*
X92320553Y-64333524D01*
X92320564Y-64333540D01*
X92462242Y-64518179D01*
X92462248Y-64518186D01*
X92626813Y-64682751D01*
X92626820Y-64682757D01*
X92664696Y-64711820D01*
X92811468Y-64824442D01*
X92811475Y-64824446D01*
X93013023Y-64940811D01*
X93013039Y-64940819D01*
X93228052Y-65029879D01*
X93228054Y-65029879D01*
X93228060Y-65029882D01*
X93452874Y-65090121D01*
X93683628Y-65120500D01*
X93683635Y-65120500D01*
X93916365Y-65120500D01*
X93916372Y-65120500D01*
X94147126Y-65090121D01*
X94371940Y-65029882D01*
X94429953Y-65005852D01*
X94586960Y-64940819D01*
X94586963Y-64940817D01*
X94586969Y-64940815D01*
X94788532Y-64824442D01*
X94973181Y-64682756D01*
X95137756Y-64518181D01*
X95139151Y-64516363D01*
X95139706Y-64515957D01*
X95140432Y-64515130D01*
X95140617Y-64515292D01*
X95195575Y-64475155D01*
X95265321Y-64470995D01*
X95326244Y-64505202D01*
X95355239Y-64552836D01*
X95392186Y-64664333D01*
X95392187Y-64664336D01*
X95403549Y-64682756D01*
X95484288Y-64813656D01*
X95608344Y-64937712D01*
X95757666Y-65029814D01*
X95924203Y-65084999D01*
X96026991Y-65095500D01*
X98177008Y-65095499D01*
X98279797Y-65084999D01*
X98446334Y-65029814D01*
X98595656Y-64937712D01*
X98719712Y-64813656D01*
X98811814Y-64664334D01*
X98866999Y-64497797D01*
X98877500Y-64395009D01*
X98877499Y-62294992D01*
X98866999Y-62192203D01*
X98811814Y-62025666D01*
X98719712Y-61876344D01*
X98595656Y-61752288D01*
X98446334Y-61660186D01*
X98279797Y-61605001D01*
X98279795Y-61605000D01*
X98177016Y-61594500D01*
X98177009Y-61594500D01*
X97976500Y-61594500D01*
X97909461Y-61574815D01*
X97863706Y-61522011D01*
X97852500Y-61470500D01*
X97852500Y-53998711D01*
X104219500Y-53998711D01*
X104219500Y-54241288D01*
X104251161Y-54481785D01*
X104313947Y-54716104D01*
X104406773Y-54940205D01*
X104406776Y-54940212D01*
X104528064Y-55150289D01*
X104528066Y-55150292D01*
X104528067Y-55150293D01*
X104675733Y-55342736D01*
X104675739Y-55342743D01*
X104847256Y-55514260D01*
X104847262Y-55514265D01*
X105039711Y-55661936D01*
X105249788Y-55783224D01*
X105473900Y-55876054D01*
X105708211Y-55938838D01*
X105888586Y-55962584D01*
X105948711Y-55970500D01*
X105948712Y-55970500D01*
X106191289Y-55970500D01*
X106239388Y-55964167D01*
X106431789Y-55938838D01*
X106666100Y-55876054D01*
X106890212Y-55783224D01*
X107100289Y-55661936D01*
X107292738Y-55514265D01*
X107464265Y-55342738D01*
X107611936Y-55150289D01*
X107733224Y-54940212D01*
X107826054Y-54716100D01*
X107888838Y-54481789D01*
X107920500Y-54241288D01*
X107920500Y-53998712D01*
X107888838Y-53758211D01*
X107826054Y-53523900D01*
X107733224Y-53299788D01*
X107611936Y-53089711D01*
X107464265Y-52897262D01*
X107464260Y-52897256D01*
X107292743Y-52725739D01*
X107292736Y-52725733D01*
X107100293Y-52578067D01*
X107100292Y-52578066D01*
X107100289Y-52578064D01*
X106890212Y-52456776D01*
X106890205Y-52456773D01*
X106666104Y-52363947D01*
X106431785Y-52301161D01*
X106191289Y-52269500D01*
X106191288Y-52269500D01*
X105948712Y-52269500D01*
X105948711Y-52269500D01*
X105708214Y-52301161D01*
X105473895Y-52363947D01*
X105249794Y-52456773D01*
X105249785Y-52456777D01*
X105039706Y-52578067D01*
X104847263Y-52725733D01*
X104847256Y-52725739D01*
X104675739Y-52897256D01*
X104675733Y-52897263D01*
X104528067Y-53089706D01*
X104406777Y-53299785D01*
X104406773Y-53299794D01*
X104313947Y-53523895D01*
X104251161Y-53758214D01*
X104219500Y-53998711D01*
X97852500Y-53998711D01*
X97852500Y-46683713D01*
X104769500Y-46683713D01*
X104769500Y-46896286D01*
X104802753Y-47106239D01*
X104868444Y-47308414D01*
X104964951Y-47497820D01*
X105089890Y-47669786D01*
X105240213Y-47820109D01*
X105412179Y-47945048D01*
X105412181Y-47945049D01*
X105412184Y-47945051D01*
X105601588Y-48041557D01*
X105803757Y-48107246D01*
X106013713Y-48140500D01*
X106013714Y-48140500D01*
X106226286Y-48140500D01*
X106226287Y-48140500D01*
X106436243Y-48107246D01*
X106638412Y-48041557D01*
X106827816Y-47945051D01*
X106849789Y-47929086D01*
X106999786Y-47820109D01*
X106999788Y-47820106D01*
X106999792Y-47820104D01*
X107150104Y-47669792D01*
X107150106Y-47669788D01*
X107150109Y-47669786D01*
X107275048Y-47497820D01*
X107275047Y-47497820D01*
X107275051Y-47497816D01*
X107371557Y-47308412D01*
X107437246Y-47106243D01*
X107470500Y-46896287D01*
X107470500Y-46683713D01*
X107437246Y-46473757D01*
X107371557Y-46271588D01*
X107275051Y-46082184D01*
X107275049Y-46082181D01*
X107275048Y-46082179D01*
X107150109Y-45910213D01*
X106999786Y-45759890D01*
X106827820Y-45634951D01*
X106638414Y-45538444D01*
X106638413Y-45538443D01*
X106638412Y-45538443D01*
X106436243Y-45472754D01*
X106436241Y-45472753D01*
X106436240Y-45472753D01*
X106274957Y-45447208D01*
X106226287Y-45439500D01*
X106013713Y-45439500D01*
X105965042Y-45447208D01*
X105803760Y-45472753D01*
X105601585Y-45538444D01*
X105412179Y-45634951D01*
X105240213Y-45759890D01*
X105089890Y-45910213D01*
X104964951Y-46082179D01*
X104868444Y-46271585D01*
X104802753Y-46473760D01*
X104769500Y-46683713D01*
X97852500Y-46683713D01*
X97852500Y-46013079D01*
X97823659Y-45868092D01*
X97823658Y-45868091D01*
X97823658Y-45868087D01*
X97778844Y-45759896D01*
X97767086Y-45731509D01*
X97767085Y-45731507D01*
X97734186Y-45682270D01*
X97734185Y-45682268D01*
X97684956Y-45608589D01*
X97684952Y-45608584D01*
X91145175Y-39068807D01*
X91111690Y-39007484D01*
X91110383Y-38961728D01*
X91118403Y-38911095D01*
X91125500Y-38866287D01*
X91125500Y-38653713D01*
X91092246Y-38443757D01*
X91026557Y-38241588D01*
X90930051Y-38052184D01*
X90930049Y-38052181D01*
X90930048Y-38052179D01*
X90805109Y-37880213D01*
X90654786Y-37729890D01*
X90482820Y-37604951D01*
X90482115Y-37604591D01*
X90474054Y-37600485D01*
X90423259Y-37552512D01*
X90406463Y-37484692D01*
X90428999Y-37418556D01*
X90474054Y-37379515D01*
X90482816Y-37375051D01*
X90525735Y-37343869D01*
X90654786Y-37250109D01*
X90654788Y-37250106D01*
X90654792Y-37250104D01*
X90805104Y-37099792D01*
X90805106Y-37099788D01*
X90805109Y-37099786D01*
X90930048Y-36927820D01*
X90930047Y-36927820D01*
X90930051Y-36927816D01*
X91026557Y-36738412D01*
X91092246Y-36536243D01*
X91125500Y-36326287D01*
X91125500Y-36113713D01*
X91092246Y-35903757D01*
X91026557Y-35701588D01*
X90930051Y-35512184D01*
X90930049Y-35512181D01*
X90930048Y-35512179D01*
X90805109Y-35340213D01*
X90654786Y-35189890D01*
X90482820Y-35064951D01*
X90482115Y-35064591D01*
X90474054Y-35060485D01*
X90423259Y-35012512D01*
X90406463Y-34944692D01*
X90428999Y-34878556D01*
X90474054Y-34839515D01*
X90482816Y-34835051D01*
X90525889Y-34803757D01*
X90654786Y-34710109D01*
X90654788Y-34710106D01*
X90654792Y-34710104D01*
X90805104Y-34559792D01*
X90805106Y-34559788D01*
X90805109Y-34559786D01*
X90930048Y-34387820D01*
X90930047Y-34387820D01*
X90930051Y-34387816D01*
X91026557Y-34198412D01*
X91092246Y-33996243D01*
X91125500Y-33786287D01*
X91125500Y-33573713D01*
X91092246Y-33363757D01*
X91026557Y-33161588D01*
X90930051Y-32972184D01*
X90930049Y-32972181D01*
X90930048Y-32972179D01*
X90805109Y-32800213D01*
X90654786Y-32649890D01*
X90482820Y-32524951D01*
X90482115Y-32524591D01*
X90474054Y-32520485D01*
X90423259Y-32472512D01*
X90406463Y-32404692D01*
X90428999Y-32338556D01*
X90474054Y-32299515D01*
X90482816Y-32295051D01*
X90525889Y-32263757D01*
X90654786Y-32170109D01*
X90654788Y-32170106D01*
X90654792Y-32170104D01*
X90805104Y-32019792D01*
X90805106Y-32019788D01*
X90805109Y-32019786D01*
X90930048Y-31847820D01*
X90930047Y-31847820D01*
X90930051Y-31847816D01*
X91026557Y-31658412D01*
X91092246Y-31456243D01*
X91125500Y-31246287D01*
X91125500Y-31033713D01*
X91092246Y-30823757D01*
X91026557Y-30621588D01*
X90930051Y-30432184D01*
X90930049Y-30432181D01*
X90930048Y-30432179D01*
X90805109Y-30260213D01*
X90654786Y-30109890D01*
X90482820Y-29984951D01*
X90482115Y-29984591D01*
X90474054Y-29980485D01*
X90423259Y-29932512D01*
X90406463Y-29864692D01*
X90428999Y-29798556D01*
X90474054Y-29759515D01*
X90482816Y-29755051D01*
X90525889Y-29723757D01*
X90654786Y-29630109D01*
X90654788Y-29630106D01*
X90654792Y-29630104D01*
X90805104Y-29479792D01*
X90805106Y-29479788D01*
X90805109Y-29479786D01*
X90930048Y-29307820D01*
X90930047Y-29307820D01*
X90930051Y-29307816D01*
X91026557Y-29118412D01*
X91092246Y-28916243D01*
X91125500Y-28706287D01*
X91125500Y-28493713D01*
X91092246Y-28283757D01*
X91026557Y-28081588D01*
X90930051Y-27892184D01*
X90930049Y-27892181D01*
X90930048Y-27892179D01*
X90805109Y-27720213D01*
X90654786Y-27569890D01*
X90482820Y-27444951D01*
X90482115Y-27444591D01*
X90474054Y-27440485D01*
X90471319Y-27437901D01*
X90467670Y-27436992D01*
X90446119Y-27414102D01*
X90423259Y-27392512D01*
X90422354Y-27388859D01*
X90419775Y-27386120D01*
X90414020Y-27355208D01*
X90406463Y-27324692D01*
X90407676Y-27321130D01*
X90406988Y-27317431D01*
X90418857Y-27288317D01*
X90428999Y-27258556D01*
X90432359Y-27255200D01*
X90433366Y-27252732D01*
X90441408Y-27246166D01*
X90459064Y-27228539D01*
X90465932Y-27223713D01*
X105724500Y-27223713D01*
X105724500Y-27436287D01*
X105757754Y-27646243D01*
X105781788Y-27720213D01*
X105823444Y-27848414D01*
X105919951Y-28037820D01*
X106044890Y-28209786D01*
X106195213Y-28360109D01*
X106367182Y-28485050D01*
X106375946Y-28489516D01*
X106426742Y-28537491D01*
X106443536Y-28605312D01*
X106420998Y-28671447D01*
X106375946Y-28710484D01*
X106367182Y-28714949D01*
X106195213Y-28839890D01*
X106044890Y-28990213D01*
X105919951Y-29162179D01*
X105823444Y-29351585D01*
X105757753Y-29553760D01*
X105724500Y-29763713D01*
X105724500Y-29976286D01*
X105751425Y-30146287D01*
X105757754Y-30186243D01*
X105812989Y-30356239D01*
X105823444Y-30388414D01*
X105919951Y-30577820D01*
X106044890Y-30749786D01*
X106195213Y-30900109D01*
X106367182Y-31025050D01*
X106375946Y-31029516D01*
X106426742Y-31077491D01*
X106443536Y-31145312D01*
X106420998Y-31211447D01*
X106375946Y-31250484D01*
X106367182Y-31254949D01*
X106195213Y-31379890D01*
X106044890Y-31530213D01*
X105919951Y-31702179D01*
X105823444Y-31891585D01*
X105757753Y-32093760D01*
X105724500Y-32303713D01*
X105724500Y-32516286D01*
X105751425Y-32686287D01*
X105757754Y-32726243D01*
X105812989Y-32896239D01*
X105823444Y-32928414D01*
X105919951Y-33117820D01*
X106044890Y-33289786D01*
X106195213Y-33440109D01*
X106367182Y-33565050D01*
X106375946Y-33569516D01*
X106426742Y-33617491D01*
X106443536Y-33685312D01*
X106420998Y-33751447D01*
X106375946Y-33790484D01*
X106367182Y-33794949D01*
X106195213Y-33919890D01*
X106044890Y-34070213D01*
X105919951Y-34242179D01*
X105823444Y-34431585D01*
X105757753Y-34633760D01*
X105724500Y-34843713D01*
X105724500Y-35056286D01*
X105751425Y-35226287D01*
X105757754Y-35266243D01*
X105812989Y-35436239D01*
X105823444Y-35468414D01*
X105919951Y-35657820D01*
X106044890Y-35829786D01*
X106195213Y-35980109D01*
X106367182Y-36105050D01*
X106375946Y-36109516D01*
X106426742Y-36157491D01*
X106443536Y-36225312D01*
X106420998Y-36291447D01*
X106375946Y-36330484D01*
X106367182Y-36334949D01*
X106195213Y-36459890D01*
X106044890Y-36610213D01*
X105919951Y-36782179D01*
X105823444Y-36971585D01*
X105757753Y-37173760D01*
X105745661Y-37250109D01*
X105724500Y-37383713D01*
X105724500Y-37596287D01*
X105757754Y-37806243D01*
X105781788Y-37880213D01*
X105823444Y-38008414D01*
X105919951Y-38197820D01*
X106044890Y-38369786D01*
X106195213Y-38520109D01*
X106367182Y-38645050D01*
X106375946Y-38649516D01*
X106426742Y-38697491D01*
X106443536Y-38765312D01*
X106420998Y-38831447D01*
X106375946Y-38870484D01*
X106367182Y-38874949D01*
X106195213Y-38999890D01*
X106044890Y-39150213D01*
X105919951Y-39322179D01*
X105823444Y-39511585D01*
X105757753Y-39713760D01*
X105745661Y-39790109D01*
X105724500Y-39923713D01*
X105724500Y-40136287D01*
X105757754Y-40346243D01*
X105781788Y-40420213D01*
X105823444Y-40548414D01*
X105919951Y-40737820D01*
X106044890Y-40909786D01*
X106195213Y-41060109D01*
X106367182Y-41185050D01*
X106375946Y-41189516D01*
X106426742Y-41237491D01*
X106443536Y-41305312D01*
X106420998Y-41371447D01*
X106375946Y-41410484D01*
X106367182Y-41414949D01*
X106195213Y-41539890D01*
X106044890Y-41690213D01*
X105919951Y-41862179D01*
X105823444Y-42051585D01*
X105757753Y-42253760D01*
X105745661Y-42330109D01*
X105724500Y-42463713D01*
X105724500Y-42676287D01*
X105757754Y-42886243D01*
X105781788Y-42960213D01*
X105823444Y-43088414D01*
X105919951Y-43277820D01*
X106044890Y-43449786D01*
X106195213Y-43600109D01*
X106367179Y-43725048D01*
X106367181Y-43725049D01*
X106367184Y-43725051D01*
X106556588Y-43821557D01*
X106758757Y-43887246D01*
X106968713Y-43920500D01*
X106968714Y-43920500D01*
X107181286Y-43920500D01*
X107181287Y-43920500D01*
X107391243Y-43887246D01*
X107593412Y-43821557D01*
X107782816Y-43725051D01*
X107806621Y-43707756D01*
X107954786Y-43600109D01*
X107954788Y-43600106D01*
X107954792Y-43600104D01*
X108105104Y-43449792D01*
X108105106Y-43449788D01*
X108105109Y-43449786D01*
X108230048Y-43277820D01*
X108230047Y-43277820D01*
X108230051Y-43277816D01*
X108326557Y-43088412D01*
X108392246Y-42886243D01*
X108425500Y-42676287D01*
X108425500Y-42463713D01*
X108392246Y-42253757D01*
X108326557Y-42051588D01*
X108230051Y-41862184D01*
X108230049Y-41862181D01*
X108230048Y-41862179D01*
X108105109Y-41690213D01*
X107954786Y-41539890D01*
X107782820Y-41414951D01*
X107782115Y-41414591D01*
X107774054Y-41410485D01*
X107723259Y-41362512D01*
X107706463Y-41294692D01*
X107728999Y-41228556D01*
X107774054Y-41189515D01*
X107782816Y-41185051D01*
X107806621Y-41167756D01*
X107954786Y-41060109D01*
X107954788Y-41060106D01*
X107954792Y-41060104D01*
X108105104Y-40909792D01*
X108105106Y-40909788D01*
X108105109Y-40909786D01*
X108230048Y-40737820D01*
X108230047Y-40737820D01*
X108230051Y-40737816D01*
X108326557Y-40548412D01*
X108392246Y-40346243D01*
X108425500Y-40136287D01*
X108425500Y-39923713D01*
X108392246Y-39713757D01*
X108326557Y-39511588D01*
X108230051Y-39322184D01*
X108230049Y-39322181D01*
X108230048Y-39322179D01*
X108105109Y-39150213D01*
X107954786Y-38999890D01*
X107782820Y-38874951D01*
X107782115Y-38874591D01*
X107774054Y-38870485D01*
X107723259Y-38822512D01*
X107706463Y-38754692D01*
X107728999Y-38688556D01*
X107774054Y-38649515D01*
X107782816Y-38645051D01*
X107804789Y-38629086D01*
X107954786Y-38520109D01*
X107954788Y-38520106D01*
X107954792Y-38520104D01*
X108105104Y-38369792D01*
X108105106Y-38369788D01*
X108105109Y-38369786D01*
X108230048Y-38197820D01*
X108230047Y-38197820D01*
X108230051Y-38197816D01*
X108326557Y-38008412D01*
X108392246Y-37806243D01*
X108425500Y-37596287D01*
X108425500Y-37383713D01*
X108392246Y-37173757D01*
X108326557Y-36971588D01*
X108230051Y-36782184D01*
X108230049Y-36782181D01*
X108230048Y-36782179D01*
X108105109Y-36610213D01*
X107954786Y-36459890D01*
X107782820Y-36334951D01*
X107782115Y-36334591D01*
X107774054Y-36330485D01*
X107723259Y-36282512D01*
X107706463Y-36214692D01*
X107728999Y-36148556D01*
X107774054Y-36109515D01*
X107782816Y-36105051D01*
X107927694Y-35999792D01*
X107954786Y-35980109D01*
X107954788Y-35980106D01*
X107954792Y-35980104D01*
X108105104Y-35829792D01*
X108105106Y-35829788D01*
X108105109Y-35829786D01*
X108230048Y-35657820D01*
X108230047Y-35657820D01*
X108230051Y-35657816D01*
X108326557Y-35468412D01*
X108392246Y-35266243D01*
X108425500Y-35056287D01*
X108425500Y-34843713D01*
X108392246Y-34633757D01*
X108326557Y-34431588D01*
X108230051Y-34242184D01*
X108230049Y-34242181D01*
X108230048Y-34242179D01*
X108105109Y-34070213D01*
X107954786Y-33919890D01*
X107782820Y-33794951D01*
X107782115Y-33794591D01*
X107774054Y-33790485D01*
X107723259Y-33742512D01*
X107706463Y-33674692D01*
X107728999Y-33608556D01*
X107774054Y-33569515D01*
X107782816Y-33565051D01*
X107927694Y-33459792D01*
X107954786Y-33440109D01*
X107954788Y-33440106D01*
X107954792Y-33440104D01*
X108105104Y-33289792D01*
X108105106Y-33289788D01*
X108105109Y-33289786D01*
X108230048Y-33117820D01*
X108230047Y-33117820D01*
X108230051Y-33117816D01*
X108326557Y-32928412D01*
X108392246Y-32726243D01*
X108425500Y-32516287D01*
X108425500Y-32303713D01*
X108392246Y-32093757D01*
X108326557Y-31891588D01*
X108230051Y-31702184D01*
X108230049Y-31702181D01*
X108230048Y-31702179D01*
X108105109Y-31530213D01*
X107954786Y-31379890D01*
X107782820Y-31254951D01*
X107782115Y-31254591D01*
X107774054Y-31250485D01*
X107723259Y-31202512D01*
X107706463Y-31134692D01*
X107728999Y-31068556D01*
X107774054Y-31029515D01*
X107782816Y-31025051D01*
X107927694Y-30919792D01*
X107954786Y-30900109D01*
X107954788Y-30900106D01*
X107954792Y-30900104D01*
X108105104Y-30749792D01*
X108105106Y-30749788D01*
X108105109Y-30749786D01*
X108230048Y-30577820D01*
X108230047Y-30577820D01*
X108230051Y-30577816D01*
X108326557Y-30388412D01*
X108392246Y-30186243D01*
X108425500Y-29976287D01*
X108425500Y-29763713D01*
X108392246Y-29553757D01*
X108326557Y-29351588D01*
X108230051Y-29162184D01*
X108230049Y-29162181D01*
X108230048Y-29162179D01*
X108105109Y-28990213D01*
X107954786Y-28839890D01*
X107782820Y-28714951D01*
X107782115Y-28714591D01*
X107774054Y-28710485D01*
X107723259Y-28662512D01*
X107706463Y-28594692D01*
X107728999Y-28528556D01*
X107774054Y-28489515D01*
X107782816Y-28485051D01*
X107820762Y-28457482D01*
X107954786Y-28360109D01*
X107954788Y-28360106D01*
X107954792Y-28360104D01*
X108105104Y-28209792D01*
X108105106Y-28209788D01*
X108105109Y-28209786D01*
X108230048Y-28037820D01*
X108230047Y-28037820D01*
X108230051Y-28037816D01*
X108326557Y-27848412D01*
X108392246Y-27646243D01*
X108425500Y-27436287D01*
X108425500Y-27223713D01*
X108392246Y-27013757D01*
X108326557Y-26811588D01*
X108230051Y-26622184D01*
X108230049Y-26622181D01*
X108230048Y-26622179D01*
X108105109Y-26450213D01*
X107991181Y-26336285D01*
X107957696Y-26274962D01*
X107962680Y-26205270D01*
X108004552Y-26149337D01*
X108035529Y-26132422D01*
X108167086Y-26083354D01*
X108167093Y-26083350D01*
X108282187Y-25997190D01*
X108282190Y-25997187D01*
X108368350Y-25882093D01*
X108368354Y-25882086D01*
X108418596Y-25747379D01*
X108418598Y-25747372D01*
X108424999Y-25687844D01*
X108425000Y-25687827D01*
X108425000Y-25040000D01*
X107508012Y-25040000D01*
X107540925Y-24982993D01*
X107575000Y-24855826D01*
X107575000Y-24724174D01*
X107540925Y-24597007D01*
X107508012Y-24540000D01*
X108425000Y-24540000D01*
X108425000Y-23892172D01*
X108424999Y-23892155D01*
X108418598Y-23832627D01*
X108418596Y-23832620D01*
X108368354Y-23697913D01*
X108368350Y-23697906D01*
X108282190Y-23582812D01*
X108282187Y-23582809D01*
X108167093Y-23496649D01*
X108167086Y-23496645D01*
X108032379Y-23446403D01*
X108032372Y-23446401D01*
X107972844Y-23440000D01*
X107325000Y-23440000D01*
X107325000Y-24356988D01*
X107267993Y-24324075D01*
X107140826Y-24290000D01*
X107009174Y-24290000D01*
X106882007Y-24324075D01*
X106825000Y-24356988D01*
X106825000Y-23440000D01*
X106177155Y-23440000D01*
X106117627Y-23446401D01*
X106117620Y-23446403D01*
X105982913Y-23496645D01*
X105982906Y-23496649D01*
X105867812Y-23582809D01*
X105867809Y-23582812D01*
X105781649Y-23697906D01*
X105781645Y-23697913D01*
X105731403Y-23832620D01*
X105731401Y-23832627D01*
X105725000Y-23892155D01*
X105725000Y-24540000D01*
X106641988Y-24540000D01*
X106609075Y-24597007D01*
X106575000Y-24724174D01*
X106575000Y-24855826D01*
X106609075Y-24982993D01*
X106641988Y-25040000D01*
X105725000Y-25040000D01*
X105725000Y-25687844D01*
X105731401Y-25747372D01*
X105731403Y-25747379D01*
X105781645Y-25882086D01*
X105781649Y-25882093D01*
X105867809Y-25997187D01*
X105867812Y-25997190D01*
X105982906Y-26083350D01*
X105982913Y-26083354D01*
X106114470Y-26132422D01*
X106170404Y-26174293D01*
X106194821Y-26239758D01*
X106179969Y-26308031D01*
X106158819Y-26336285D01*
X106044889Y-26450215D01*
X105919951Y-26622179D01*
X105823444Y-26811585D01*
X105757753Y-27013760D01*
X105745661Y-27090109D01*
X105724500Y-27223713D01*
X90465932Y-27223713D01*
X90466241Y-27223496D01*
X90482816Y-27215051D01*
X90654792Y-27090104D01*
X90805104Y-26939792D01*
X90805106Y-26939788D01*
X90805109Y-26939786D01*
X90930048Y-26767820D01*
X90930047Y-26767820D01*
X90930051Y-26767816D01*
X91026557Y-26578412D01*
X91092246Y-26376243D01*
X91125500Y-26166287D01*
X91125500Y-25953713D01*
X91092246Y-25743757D01*
X91026557Y-25541588D01*
X90930051Y-25352184D01*
X90930049Y-25352181D01*
X90930048Y-25352179D01*
X90805109Y-25180213D01*
X90691569Y-25066673D01*
X90658084Y-25005350D01*
X90663068Y-24935658D01*
X90704940Y-24879725D01*
X90735915Y-24862810D01*
X90867331Y-24813796D01*
X90982546Y-24727546D01*
X91068796Y-24612331D01*
X91119091Y-24477483D01*
X91125500Y-24417873D01*
X91125499Y-23496649D01*
X91125499Y-22622129D01*
X91125498Y-22622123D01*
X91125497Y-22622116D01*
X91119091Y-22562517D01*
X91074117Y-22441936D01*
X91068797Y-22427671D01*
X91068793Y-22427664D01*
X90982547Y-22312455D01*
X90982544Y-22312452D01*
X90867335Y-22226206D01*
X90867328Y-22226202D01*
X90732482Y-22175908D01*
X90732483Y-22175908D01*
X90672883Y-22169501D01*
X90672881Y-22169500D01*
X90672873Y-22169500D01*
X90672864Y-22169500D01*
X88877129Y-22169500D01*
X88877123Y-22169501D01*
X88817516Y-22175908D01*
X88682671Y-22226202D01*
X88682664Y-22226206D01*
X88567455Y-22312452D01*
X88567452Y-22312455D01*
X88481206Y-22427664D01*
X88481202Y-22427671D01*
X88430908Y-22562517D01*
X88424501Y-22622116D01*
X88424501Y-22622123D01*
X88424500Y-22622135D01*
X88424500Y-24417870D01*
X88424501Y-24417876D01*
X88430908Y-24477483D01*
X88481202Y-24612328D01*
X88481206Y-24612335D01*
X88567452Y-24727544D01*
X88567455Y-24727547D01*
X88682664Y-24813793D01*
X88682671Y-24813797D01*
X88814082Y-24862810D01*
X88870016Y-24904681D01*
X88894433Y-24970145D01*
X88879582Y-25038418D01*
X88858431Y-25066673D01*
X88744889Y-25180215D01*
X88619951Y-25352179D01*
X88523444Y-25541585D01*
X88457753Y-25743760D01*
X88424500Y-25953713D01*
X88424500Y-26166286D01*
X88457735Y-26376127D01*
X88457754Y-26376243D01*
X88481788Y-26450213D01*
X88523444Y-26578414D01*
X88619951Y-26767820D01*
X88744890Y-26939786D01*
X88895213Y-27090109D01*
X89067182Y-27215050D01*
X89075946Y-27219516D01*
X89126742Y-27267491D01*
X89143536Y-27335312D01*
X89120998Y-27401447D01*
X89075946Y-27440484D01*
X89067182Y-27444949D01*
X88895213Y-27569890D01*
X88744890Y-27720213D01*
X88619951Y-27892179D01*
X88523444Y-28081585D01*
X88457753Y-28283760D01*
X88439679Y-28397876D01*
X88424500Y-28493713D01*
X88424500Y-28706287D01*
X88457754Y-28916243D01*
X88500133Y-29046673D01*
X88523444Y-29118414D01*
X88619951Y-29307820D01*
X88744890Y-29479786D01*
X88895213Y-29630109D01*
X89067182Y-29755050D01*
X89075946Y-29759516D01*
X89126742Y-29807491D01*
X89143536Y-29875312D01*
X89120998Y-29941447D01*
X89075946Y-29980484D01*
X89067182Y-29984949D01*
X88895213Y-30109890D01*
X88744890Y-30260213D01*
X88619951Y-30432179D01*
X88523444Y-30621585D01*
X88457753Y-30823760D01*
X88424500Y-31033713D01*
X88424500Y-31246286D01*
X88452090Y-31420486D01*
X88457754Y-31456243D01*
X88481788Y-31530213D01*
X88523444Y-31658414D01*
X88619951Y-31847820D01*
X88744890Y-32019786D01*
X88895213Y-32170109D01*
X89067182Y-32295050D01*
X89075946Y-32299516D01*
X89126742Y-32347491D01*
X89143536Y-32415312D01*
X89120998Y-32481447D01*
X89075946Y-32520484D01*
X89067182Y-32524949D01*
X88895213Y-32649890D01*
X88744890Y-32800213D01*
X88619951Y-32972179D01*
X88523444Y-33161585D01*
X88457753Y-33363760D01*
X88424500Y-33573713D01*
X88424500Y-33786286D01*
X88452090Y-33960486D01*
X88457754Y-33996243D01*
X88481788Y-34070213D01*
X88523444Y-34198414D01*
X88619951Y-34387820D01*
X88744890Y-34559786D01*
X88895213Y-34710109D01*
X89067182Y-34835050D01*
X89075946Y-34839516D01*
X89126742Y-34887491D01*
X89143536Y-34955312D01*
X89120998Y-35021447D01*
X89075946Y-35060484D01*
X89067182Y-35064949D01*
X88895213Y-35189890D01*
X88744890Y-35340213D01*
X88619951Y-35512179D01*
X88523444Y-35701585D01*
X88457753Y-35903760D01*
X88424500Y-36113713D01*
X88424500Y-36326286D01*
X88452865Y-36505380D01*
X88457754Y-36536243D01*
X88481788Y-36610213D01*
X88523444Y-36738414D01*
X88619951Y-36927820D01*
X88744890Y-37099786D01*
X88895213Y-37250109D01*
X89067182Y-37375050D01*
X89075946Y-37379516D01*
X89126742Y-37427491D01*
X89143536Y-37495312D01*
X89120998Y-37561447D01*
X89075946Y-37600484D01*
X89067182Y-37604949D01*
X88895213Y-37729890D01*
X88744890Y-37880213D01*
X88619951Y-38052179D01*
X88523444Y-38241585D01*
X88457753Y-38443760D01*
X88424500Y-38653713D01*
X88424500Y-38866286D01*
X88446863Y-39007484D01*
X88457754Y-39076243D01*
X88481788Y-39150213D01*
X88523444Y-39278414D01*
X88619951Y-39467820D01*
X88744890Y-39639786D01*
X88895213Y-39790109D01*
X89067182Y-39915050D01*
X89075946Y-39919516D01*
X89126742Y-39967491D01*
X89143536Y-40035312D01*
X89120998Y-40101447D01*
X89075946Y-40140484D01*
X89067182Y-40144949D01*
X88895213Y-40269890D01*
X88744890Y-40420213D01*
X88619951Y-40592179D01*
X88523444Y-40781585D01*
X88457753Y-40983760D01*
X88445661Y-41060109D01*
X88424500Y-41193713D01*
X88424500Y-41406287D01*
X88434534Y-41469644D01*
X88446863Y-41547484D01*
X88457754Y-41616243D01*
X88481788Y-41690213D01*
X88523444Y-41818414D01*
X88619951Y-42007820D01*
X88744890Y-42179786D01*
X88895213Y-42330109D01*
X89067182Y-42455050D01*
X89075946Y-42459516D01*
X89126742Y-42507491D01*
X89143536Y-42575312D01*
X89120998Y-42641447D01*
X89075946Y-42680484D01*
X89067182Y-42684949D01*
X88895213Y-42809890D01*
X88744890Y-42960213D01*
X88619951Y-43132179D01*
X88523444Y-43321585D01*
X88457753Y-43523760D01*
X88445661Y-43600109D01*
X88424500Y-43733713D01*
X88424500Y-43946287D01*
X88434534Y-44009644D01*
X88457753Y-44156239D01*
X88523444Y-44358414D01*
X88619951Y-44547820D01*
X88744890Y-44719786D01*
X88744896Y-44719792D01*
X88895208Y-44870104D01*
X88973384Y-44926902D01*
X89016051Y-44982231D01*
X89024500Y-45027220D01*
X89024500Y-59705500D01*
X89004815Y-59772539D01*
X88952011Y-59818294D01*
X88900500Y-59829500D01*
X75612500Y-59829500D01*
X75545461Y-59809815D01*
X75499706Y-59757011D01*
X75488500Y-59705500D01*
X75488500Y-45027220D01*
X75508185Y-44960181D01*
X75539614Y-44926902D01*
X75617792Y-44870104D01*
X75768104Y-44719792D01*
X75768106Y-44719788D01*
X75768109Y-44719786D01*
X75893048Y-44547820D01*
X75893047Y-44547820D01*
X75893051Y-44547816D01*
X75989557Y-44358412D01*
X76055246Y-44156243D01*
X76088500Y-43946287D01*
X76088500Y-43733713D01*
X76055246Y-43523757D01*
X75989557Y-43321588D01*
X75893051Y-43132184D01*
X75893049Y-43132181D01*
X75893048Y-43132179D01*
X75768109Y-42960213D01*
X75617786Y-42809890D01*
X75445820Y-42684951D01*
X75445115Y-42684591D01*
X75437054Y-42680485D01*
X75386259Y-42632512D01*
X75369463Y-42564692D01*
X75391999Y-42498556D01*
X75437054Y-42459515D01*
X75445816Y-42455051D01*
X75467789Y-42439086D01*
X75617786Y-42330109D01*
X75617788Y-42330106D01*
X75617792Y-42330104D01*
X75768104Y-42179792D01*
X75768106Y-42179788D01*
X75768109Y-42179786D01*
X75893048Y-42007820D01*
X75893047Y-42007820D01*
X75893051Y-42007816D01*
X75989557Y-41818412D01*
X76055246Y-41616243D01*
X76088500Y-41406287D01*
X76088500Y-41193713D01*
X76055246Y-40983757D01*
X75989557Y-40781588D01*
X75893051Y-40592184D01*
X75893049Y-40592181D01*
X75893048Y-40592179D01*
X75768109Y-40420213D01*
X75617786Y-40269890D01*
X75445820Y-40144951D01*
X75445115Y-40144591D01*
X75437054Y-40140485D01*
X75386259Y-40092512D01*
X75369463Y-40024692D01*
X75391999Y-39958556D01*
X75437054Y-39919515D01*
X75445816Y-39915051D01*
X75467789Y-39899086D01*
X75617786Y-39790109D01*
X75617788Y-39790106D01*
X75617792Y-39790104D01*
X75768104Y-39639792D01*
X75768106Y-39639788D01*
X75768109Y-39639786D01*
X75893048Y-39467820D01*
X75893047Y-39467820D01*
X75893051Y-39467816D01*
X75989557Y-39278412D01*
X76055246Y-39076243D01*
X76088500Y-38866287D01*
X76088500Y-38653713D01*
X76055246Y-38443757D01*
X75989557Y-38241588D01*
X75893051Y-38052184D01*
X75893049Y-38052181D01*
X75893048Y-38052179D01*
X75768109Y-37880213D01*
X75617786Y-37729890D01*
X75445820Y-37604951D01*
X75445115Y-37604591D01*
X75437054Y-37600485D01*
X75386259Y-37552512D01*
X75369463Y-37484692D01*
X75391999Y-37418556D01*
X75437054Y-37379515D01*
X75445816Y-37375051D01*
X75488735Y-37343869D01*
X75617786Y-37250109D01*
X75617788Y-37250106D01*
X75617792Y-37250104D01*
X75768104Y-37099792D01*
X75768106Y-37099788D01*
X75768109Y-37099786D01*
X75893048Y-36927820D01*
X75893047Y-36927820D01*
X75893051Y-36927816D01*
X75989557Y-36738412D01*
X76055246Y-36536243D01*
X76088500Y-36326287D01*
X76088500Y-36113713D01*
X76055246Y-35903757D01*
X75989557Y-35701588D01*
X75893051Y-35512184D01*
X75893049Y-35512181D01*
X75893048Y-35512179D01*
X75768109Y-35340213D01*
X75617786Y-35189890D01*
X75445820Y-35064951D01*
X75445115Y-35064591D01*
X75437054Y-35060485D01*
X75386259Y-35012512D01*
X75369463Y-34944692D01*
X75391999Y-34878556D01*
X75437054Y-34839515D01*
X75445816Y-34835051D01*
X75488889Y-34803757D01*
X75617786Y-34710109D01*
X75617788Y-34710106D01*
X75617792Y-34710104D01*
X75768104Y-34559792D01*
X75768106Y-34559788D01*
X75768109Y-34559786D01*
X75893048Y-34387820D01*
X75893047Y-34387820D01*
X75893051Y-34387816D01*
X75989557Y-34198412D01*
X76055246Y-33996243D01*
X76088500Y-33786287D01*
X76088500Y-33573713D01*
X76055246Y-33363757D01*
X75989557Y-33161588D01*
X75893051Y-32972184D01*
X75893049Y-32972181D01*
X75893048Y-32972179D01*
X75768109Y-32800213D01*
X75617786Y-32649890D01*
X75445820Y-32524951D01*
X75445115Y-32524591D01*
X75437054Y-32520485D01*
X75386259Y-32472512D01*
X75369463Y-32404692D01*
X75391999Y-32338556D01*
X75437054Y-32299515D01*
X75445816Y-32295051D01*
X75488889Y-32263757D01*
X75617786Y-32170109D01*
X75617788Y-32170106D01*
X75617792Y-32170104D01*
X75768104Y-32019792D01*
X75768106Y-32019788D01*
X75768109Y-32019786D01*
X75893048Y-31847820D01*
X75893047Y-31847820D01*
X75893051Y-31847816D01*
X75989557Y-31658412D01*
X76055246Y-31456243D01*
X76088500Y-31246287D01*
X76088500Y-31033713D01*
X76055246Y-30823757D01*
X75989557Y-30621588D01*
X75893051Y-30432184D01*
X75893049Y-30432181D01*
X75893048Y-30432179D01*
X75768109Y-30260213D01*
X75617786Y-30109890D01*
X75445820Y-29984951D01*
X75445115Y-29984591D01*
X75437054Y-29980485D01*
X75386259Y-29932512D01*
X75369463Y-29864692D01*
X75391999Y-29798556D01*
X75437054Y-29759515D01*
X75445816Y-29755051D01*
X75488889Y-29723757D01*
X75617786Y-29630109D01*
X75617788Y-29630106D01*
X75617792Y-29630104D01*
X75768104Y-29479792D01*
X75768106Y-29479788D01*
X75768109Y-29479786D01*
X75893048Y-29307820D01*
X75893047Y-29307820D01*
X75893051Y-29307816D01*
X75989557Y-29118412D01*
X76055246Y-28916243D01*
X76088500Y-28706287D01*
X76088500Y-28493713D01*
X76055246Y-28283757D01*
X75989557Y-28081588D01*
X75893051Y-27892184D01*
X75893049Y-27892181D01*
X75893048Y-27892179D01*
X75768109Y-27720213D01*
X75617786Y-27569890D01*
X75445817Y-27444949D01*
X75436504Y-27440204D01*
X75385707Y-27392230D01*
X75368912Y-27324409D01*
X75391449Y-27258274D01*
X75436507Y-27219232D01*
X75445555Y-27214622D01*
X75499716Y-27175270D01*
X75499717Y-27175270D01*
X74867408Y-26542962D01*
X74930993Y-26525925D01*
X75045007Y-26460099D01*
X75138099Y-26367007D01*
X75203925Y-26252993D01*
X75220962Y-26189408D01*
X75853270Y-26821717D01*
X75853270Y-26821716D01*
X75892622Y-26767554D01*
X75989095Y-26578217D01*
X76054757Y-26376130D01*
X76054757Y-26376127D01*
X76088000Y-26166246D01*
X76088000Y-25953753D01*
X76054757Y-25743872D01*
X76054757Y-25743869D01*
X75989095Y-25541782D01*
X75892624Y-25352449D01*
X75853270Y-25298282D01*
X75853269Y-25298282D01*
X75220962Y-25930590D01*
X75203925Y-25867007D01*
X75138099Y-25752993D01*
X75045007Y-25659901D01*
X74930993Y-25594075D01*
X74867409Y-25577037D01*
X75537627Y-24906818D01*
X75598950Y-24873333D01*
X75625307Y-24870499D01*
X75635872Y-24870499D01*
X75695483Y-24864091D01*
X75830331Y-24813796D01*
X75945546Y-24727546D01*
X76031796Y-24612331D01*
X76082091Y-24477483D01*
X76088500Y-24417873D01*
X76088499Y-22622128D01*
X76082091Y-22562517D01*
X76037117Y-22441936D01*
X76031797Y-22427671D01*
X76031793Y-22427664D01*
X75945547Y-22312455D01*
X75945544Y-22312452D01*
X75830335Y-22226206D01*
X75830328Y-22226202D01*
X75695482Y-22175908D01*
X75695483Y-22175908D01*
X75635883Y-22169501D01*
X75635881Y-22169500D01*
X75635873Y-22169500D01*
X75635864Y-22169500D01*
X73840129Y-22169500D01*
X73840123Y-22169501D01*
X73780516Y-22175908D01*
X73645671Y-22226202D01*
X73645664Y-22226206D01*
X73530455Y-22312452D01*
X73530452Y-22312455D01*
X73444206Y-22427664D01*
X73444202Y-22427671D01*
X73393908Y-22562517D01*
X73387501Y-22622116D01*
X73387501Y-22622123D01*
X73387500Y-22622135D01*
X73387500Y-24417870D01*
X73387501Y-24417876D01*
X73393908Y-24477483D01*
X73444202Y-24612328D01*
X73444206Y-24612335D01*
X73530452Y-24727544D01*
X73530455Y-24727547D01*
X73645664Y-24813793D01*
X73645671Y-24813797D01*
X73690618Y-24830561D01*
X73780517Y-24864091D01*
X73840127Y-24870500D01*
X73850685Y-24870499D01*
X73917723Y-24890179D01*
X73938372Y-24906818D01*
X74608591Y-25577037D01*
X74545007Y-25594075D01*
X74430993Y-25659901D01*
X74337901Y-25752993D01*
X74272075Y-25867007D01*
X74255037Y-25930591D01*
X73622728Y-25298282D01*
X73622727Y-25298282D01*
X73583380Y-25352439D01*
X73486904Y-25541782D01*
X73421242Y-25743869D01*
X73421242Y-25743872D01*
X73388000Y-25953753D01*
X73388000Y-26166246D01*
X73421242Y-26376127D01*
X73421242Y-26376130D01*
X73486904Y-26578217D01*
X73583375Y-26767550D01*
X73622728Y-26821716D01*
X74255037Y-26189408D01*
X74272075Y-26252993D01*
X74337901Y-26367007D01*
X74430993Y-26460099D01*
X74545007Y-26525925D01*
X74608590Y-26542962D01*
X73976282Y-27175269D01*
X73976282Y-27175270D01*
X74030452Y-27214626D01*
X74030451Y-27214626D01*
X74039495Y-27219234D01*
X74090292Y-27267208D01*
X74107087Y-27335029D01*
X74084550Y-27401164D01*
X74039499Y-27440202D01*
X74030182Y-27444949D01*
X73858213Y-27569890D01*
X73707890Y-27720213D01*
X73582951Y-27892179D01*
X73486444Y-28081585D01*
X73420753Y-28283760D01*
X73402679Y-28397876D01*
X73387500Y-28493713D01*
X73387500Y-28706287D01*
X73420754Y-28916243D01*
X73463133Y-29046673D01*
X73486444Y-29118414D01*
X73582951Y-29307820D01*
X73707890Y-29479786D01*
X73858213Y-29630109D01*
X74030182Y-29755050D01*
X74038946Y-29759516D01*
X74089742Y-29807491D01*
X74106536Y-29875312D01*
X74083998Y-29941447D01*
X74038946Y-29980484D01*
X74030182Y-29984949D01*
X73858213Y-30109890D01*
X73707890Y-30260213D01*
X73582951Y-30432179D01*
X73486444Y-30621585D01*
X73420753Y-30823760D01*
X73387500Y-31033713D01*
X73387500Y-31246286D01*
X73415090Y-31420486D01*
X73420754Y-31456243D01*
X73444788Y-31530213D01*
X73486444Y-31658414D01*
X73582951Y-31847820D01*
X73707890Y-32019786D01*
X73858213Y-32170109D01*
X74030182Y-32295050D01*
X74038946Y-32299516D01*
X74089742Y-32347491D01*
X74106536Y-32415312D01*
X74083998Y-32481447D01*
X74038946Y-32520484D01*
X74030182Y-32524949D01*
X73858213Y-32649890D01*
X73707890Y-32800213D01*
X73582951Y-32972179D01*
X73486444Y-33161585D01*
X73420753Y-33363760D01*
X73387500Y-33573713D01*
X73387500Y-33786286D01*
X73415090Y-33960486D01*
X73420754Y-33996243D01*
X73444788Y-34070213D01*
X73486444Y-34198414D01*
X73582951Y-34387820D01*
X73707890Y-34559786D01*
X73858213Y-34710109D01*
X74030182Y-34835050D01*
X74038946Y-34839516D01*
X74089742Y-34887491D01*
X74106536Y-34955312D01*
X74083998Y-35021447D01*
X74038946Y-35060484D01*
X74030182Y-35064949D01*
X73858213Y-35189890D01*
X73707890Y-35340213D01*
X73582951Y-35512179D01*
X73486444Y-35701585D01*
X73420753Y-35903760D01*
X73387500Y-36113713D01*
X73387500Y-36326286D01*
X73415865Y-36505380D01*
X73420754Y-36536243D01*
X73444788Y-36610213D01*
X73486444Y-36738414D01*
X73582951Y-36927820D01*
X73707890Y-37099786D01*
X73858213Y-37250109D01*
X74030182Y-37375050D01*
X74038946Y-37379516D01*
X74089742Y-37427491D01*
X74106536Y-37495312D01*
X74083998Y-37561447D01*
X74038946Y-37600484D01*
X74030182Y-37604949D01*
X73858213Y-37729890D01*
X73707890Y-37880213D01*
X73582951Y-38052179D01*
X73486444Y-38241585D01*
X73420753Y-38443760D01*
X73387500Y-38653713D01*
X73387500Y-38866291D01*
X73402616Y-38961726D01*
X73393662Y-39031020D01*
X73367824Y-39068806D01*
X71637050Y-40799580D01*
X71637044Y-40799588D01*
X71587812Y-40873268D01*
X71587813Y-40873269D01*
X71554921Y-40922496D01*
X71554914Y-40922508D01*
X71498342Y-41059086D01*
X71498340Y-41059092D01*
X71469500Y-41204079D01*
X71469500Y-57595500D01*
X71449815Y-57662539D01*
X71397011Y-57708294D01*
X71345500Y-57719500D01*
X21536179Y-57719500D01*
X21391192Y-57748341D01*
X21391182Y-57748344D01*
X21254611Y-57804913D01*
X21254598Y-57804920D01*
X21131684Y-57887049D01*
X21131680Y-57887052D01*
X20207049Y-58811685D01*
X20207044Y-58811691D01*
X20198480Y-58824507D01*
X20198481Y-58824508D01*
X20124919Y-58934600D01*
X20124912Y-58934613D01*
X20068343Y-59071184D01*
X20068340Y-59071194D01*
X20039500Y-59216181D01*
X20039500Y-59216184D01*
X20039500Y-79213818D01*
X20039500Y-79213820D01*
X20039499Y-79213820D01*
X13850500Y-79213820D01*
X13850500Y-53998711D01*
X16199500Y-53998711D01*
X16199500Y-54241288D01*
X16231161Y-54481785D01*
X16293947Y-54716104D01*
X16386773Y-54940205D01*
X16386776Y-54940212D01*
X16508064Y-55150289D01*
X16508066Y-55150292D01*
X16508067Y-55150293D01*
X16655733Y-55342736D01*
X16655739Y-55342743D01*
X16827256Y-55514260D01*
X16827262Y-55514265D01*
X17019711Y-55661936D01*
X17229788Y-55783224D01*
X17453900Y-55876054D01*
X17688211Y-55938838D01*
X17868586Y-55962584D01*
X17928711Y-55970500D01*
X17928712Y-55970500D01*
X18171289Y-55970500D01*
X18219388Y-55964167D01*
X18411789Y-55938838D01*
X18646100Y-55876054D01*
X18870212Y-55783224D01*
X19080289Y-55661936D01*
X19272738Y-55514265D01*
X19444265Y-55342738D01*
X19591936Y-55150289D01*
X19713224Y-54940212D01*
X19806054Y-54716100D01*
X19868838Y-54481789D01*
X19900500Y-54241288D01*
X19900500Y-53998712D01*
X19868838Y-53758211D01*
X19806054Y-53523900D01*
X19713224Y-53299788D01*
X19591936Y-53089711D01*
X19444265Y-52897262D01*
X19444260Y-52897256D01*
X19272743Y-52725739D01*
X19272736Y-52725733D01*
X19080293Y-52578067D01*
X19080292Y-52578066D01*
X19080289Y-52578064D01*
X18870212Y-52456776D01*
X18870205Y-52456773D01*
X18646104Y-52363947D01*
X18411785Y-52301161D01*
X18171289Y-52269500D01*
X18171288Y-52269500D01*
X17928712Y-52269500D01*
X17928711Y-52269500D01*
X17688214Y-52301161D01*
X17453895Y-52363947D01*
X17229794Y-52456773D01*
X17229785Y-52456777D01*
X17019706Y-52578067D01*
X16827263Y-52725733D01*
X16827256Y-52725739D01*
X16655739Y-52897256D01*
X16655733Y-52897263D01*
X16508067Y-53089706D01*
X16386777Y-53299785D01*
X16386773Y-53299794D01*
X16293947Y-53523895D01*
X16231161Y-53758214D01*
X16199500Y-53998711D01*
X13850500Y-53998711D01*
X13850500Y-50044500D01*
X13870185Y-49977461D01*
X13922989Y-49931706D01*
X13974500Y-49920500D01*
X42775890Y-49920500D01*
X42775892Y-49920500D01*
X42903186Y-49886392D01*
X43017314Y-49820500D01*
X43110500Y-49727314D01*
X43176392Y-49613186D01*
X43210500Y-49485892D01*
X43210500Y-46683713D01*
X61569500Y-46683713D01*
X61569500Y-46896286D01*
X61602753Y-47106239D01*
X61668444Y-47308414D01*
X61764951Y-47497820D01*
X61889890Y-47669786D01*
X62040213Y-47820109D01*
X62212179Y-47945048D01*
X62212181Y-47945049D01*
X62212184Y-47945051D01*
X62401588Y-48041557D01*
X62603757Y-48107246D01*
X62813713Y-48140500D01*
X62813714Y-48140500D01*
X63026286Y-48140500D01*
X63026287Y-48140500D01*
X63236243Y-48107246D01*
X63438412Y-48041557D01*
X63627816Y-47945051D01*
X63649789Y-47929086D01*
X63799786Y-47820109D01*
X63799788Y-47820106D01*
X63799792Y-47820104D01*
X63950104Y-47669792D01*
X63950106Y-47669788D01*
X63950109Y-47669786D01*
X64075048Y-47497820D01*
X64075047Y-47497820D01*
X64075051Y-47497816D01*
X64171557Y-47308412D01*
X64237246Y-47106243D01*
X64270500Y-46896287D01*
X64270500Y-46683713D01*
X64237246Y-46473757D01*
X64171557Y-46271588D01*
X64075051Y-46082184D01*
X64075049Y-46082181D01*
X64075048Y-46082179D01*
X63950109Y-45910213D01*
X63799786Y-45759890D01*
X63627820Y-45634951D01*
X63438414Y-45538444D01*
X63438413Y-45538443D01*
X63438412Y-45538443D01*
X63236243Y-45472754D01*
X63236241Y-45472753D01*
X63236240Y-45472753D01*
X63074957Y-45447208D01*
X63026287Y-45439500D01*
X62813713Y-45439500D01*
X62765042Y-45447208D01*
X62603760Y-45472753D01*
X62401585Y-45538444D01*
X62212179Y-45634951D01*
X62040213Y-45759890D01*
X61889890Y-45910213D01*
X61764951Y-46082179D01*
X61668444Y-46271585D01*
X61602753Y-46473760D01*
X61569500Y-46683713D01*
X43210500Y-46683713D01*
X43210500Y-26602135D01*
X51914500Y-26602135D01*
X51914500Y-28397870D01*
X51914501Y-28397876D01*
X51920908Y-28457483D01*
X51971202Y-28592328D01*
X51971206Y-28592335D01*
X52057452Y-28707544D01*
X52057455Y-28707547D01*
X52172664Y-28793793D01*
X52172671Y-28793797D01*
X52304082Y-28842810D01*
X52360016Y-28884681D01*
X52384433Y-28950145D01*
X52369582Y-29018418D01*
X52348431Y-29046673D01*
X52234889Y-29160215D01*
X52109951Y-29332179D01*
X52013444Y-29521585D01*
X51947753Y-29723760D01*
X51927512Y-29851557D01*
X51914500Y-29933713D01*
X51914500Y-30146287D01*
X51947754Y-30356243D01*
X51972427Y-30432179D01*
X52013444Y-30558414D01*
X52109951Y-30747820D01*
X52234890Y-30919786D01*
X52385213Y-31070109D01*
X52557182Y-31195050D01*
X52565946Y-31199516D01*
X52616742Y-31247491D01*
X52633536Y-31315312D01*
X52610998Y-31381447D01*
X52565946Y-31420484D01*
X52557182Y-31424949D01*
X52385213Y-31549890D01*
X52234890Y-31700213D01*
X52109951Y-31872179D01*
X52013444Y-32061585D01*
X51947753Y-32263760D01*
X51927512Y-32391557D01*
X51914500Y-32473713D01*
X51914500Y-32686287D01*
X51947754Y-32896243D01*
X51972427Y-32972179D01*
X52013444Y-33098414D01*
X52109951Y-33287820D01*
X52234890Y-33459786D01*
X52385213Y-33610109D01*
X52557182Y-33735050D01*
X52565946Y-33739516D01*
X52616742Y-33787491D01*
X52633536Y-33855312D01*
X52610998Y-33921447D01*
X52565946Y-33960484D01*
X52557182Y-33964949D01*
X52385213Y-34089890D01*
X52234890Y-34240213D01*
X52109951Y-34412179D01*
X52013444Y-34601585D01*
X51947753Y-34803760D01*
X51927512Y-34931557D01*
X51914500Y-35013713D01*
X51914500Y-35226287D01*
X51947754Y-35436243D01*
X51972427Y-35512179D01*
X52013444Y-35638414D01*
X52109951Y-35827820D01*
X52234890Y-35999786D01*
X52385213Y-36150109D01*
X52557179Y-36275048D01*
X52557181Y-36275049D01*
X52557184Y-36275051D01*
X52566493Y-36279794D01*
X52617290Y-36327766D01*
X52634087Y-36395587D01*
X52611552Y-36461722D01*
X52566505Y-36500760D01*
X52557446Y-36505376D01*
X52557440Y-36505380D01*
X52503282Y-36544727D01*
X52503282Y-36544728D01*
X53135591Y-37177037D01*
X53072007Y-37194075D01*
X52957993Y-37259901D01*
X52864901Y-37352993D01*
X52799075Y-37467007D01*
X52782037Y-37530591D01*
X52149728Y-36898282D01*
X52149727Y-36898282D01*
X52110380Y-36952439D01*
X52013904Y-37141782D01*
X51948242Y-37343869D01*
X51948242Y-37343872D01*
X51915000Y-37553753D01*
X51915000Y-37766246D01*
X51948242Y-37976127D01*
X51948242Y-37976130D01*
X52013904Y-38178217D01*
X52110375Y-38367550D01*
X52149728Y-38421716D01*
X52782037Y-37789408D01*
X52799075Y-37852993D01*
X52864901Y-37967007D01*
X52957993Y-38060099D01*
X53072007Y-38125925D01*
X53135590Y-38142962D01*
X52503282Y-38775269D01*
X52503282Y-38775270D01*
X52557449Y-38814624D01*
X52746782Y-38911095D01*
X52948870Y-38976757D01*
X53158754Y-39010000D01*
X53371246Y-39010000D01*
X53581127Y-38976757D01*
X53581130Y-38976757D01*
X53783217Y-38911095D01*
X53972554Y-38814622D01*
X54026716Y-38775270D01*
X54026717Y-38775270D01*
X53394408Y-38142962D01*
X53457993Y-38125925D01*
X53572007Y-38060099D01*
X53665099Y-37967007D01*
X53730925Y-37852993D01*
X53747962Y-37789408D01*
X54380270Y-38421717D01*
X54380270Y-38421716D01*
X54419622Y-38367554D01*
X54516095Y-38178217D01*
X54581757Y-37976130D01*
X54581757Y-37976127D01*
X54615000Y-37766246D01*
X54615000Y-37553753D01*
X54581757Y-37343872D01*
X54581757Y-37343869D01*
X54516095Y-37141782D01*
X54419624Y-36952449D01*
X54380270Y-36898282D01*
X54380269Y-36898282D01*
X53747962Y-37530590D01*
X53730925Y-37467007D01*
X53665099Y-37352993D01*
X53572007Y-37259901D01*
X53457993Y-37194075D01*
X53394409Y-37177037D01*
X54026716Y-36544728D01*
X53972547Y-36505373D01*
X53972547Y-36505372D01*
X53963500Y-36500763D01*
X53912706Y-36452788D01*
X53895912Y-36384966D01*
X53918451Y-36318832D01*
X53963508Y-36279793D01*
X53972816Y-36275051D01*
X54134625Y-36157491D01*
X54144786Y-36150109D01*
X54144788Y-36150106D01*
X54144792Y-36150104D01*
X54295104Y-35999792D01*
X54295106Y-35999788D01*
X54295109Y-35999786D01*
X54420048Y-35827820D01*
X54420047Y-35827820D01*
X54420051Y-35827816D01*
X54516557Y-35638412D01*
X54582246Y-35436243D01*
X54615500Y-35226287D01*
X54615500Y-35013713D01*
X54582246Y-34803757D01*
X54516557Y-34601588D01*
X54420051Y-34412184D01*
X54420049Y-34412181D01*
X54420048Y-34412179D01*
X54295109Y-34240213D01*
X54144786Y-34089890D01*
X53972820Y-33964951D01*
X53972115Y-33964591D01*
X53964054Y-33960485D01*
X53913259Y-33912512D01*
X53896463Y-33844692D01*
X53918999Y-33778556D01*
X53964054Y-33739515D01*
X53972816Y-33735051D01*
X54023203Y-33698443D01*
X54144786Y-33610109D01*
X54144788Y-33610106D01*
X54144792Y-33610104D01*
X54295104Y-33459792D01*
X54295106Y-33459788D01*
X54295109Y-33459786D01*
X54420048Y-33287820D01*
X54420047Y-33287820D01*
X54420051Y-33287816D01*
X54516557Y-33098412D01*
X54582246Y-32896243D01*
X54615500Y-32686287D01*
X54615500Y-32473713D01*
X54582246Y-32263757D01*
X54516557Y-32061588D01*
X54420051Y-31872184D01*
X54420049Y-31872181D01*
X54420048Y-31872179D01*
X54295109Y-31700213D01*
X54144786Y-31549890D01*
X53972820Y-31424951D01*
X53972115Y-31424591D01*
X53964054Y-31420485D01*
X53913259Y-31372512D01*
X53896463Y-31304692D01*
X53918999Y-31238556D01*
X53964054Y-31199515D01*
X53972816Y-31195051D01*
X54023203Y-31158443D01*
X54144786Y-31070109D01*
X54144788Y-31070106D01*
X54144792Y-31070104D01*
X54295104Y-30919792D01*
X54295106Y-30919788D01*
X54295109Y-30919786D01*
X54420048Y-30747820D01*
X54420047Y-30747820D01*
X54420051Y-30747816D01*
X54516557Y-30558412D01*
X54582246Y-30356243D01*
X54615500Y-30146287D01*
X54615500Y-29933713D01*
X54582246Y-29723757D01*
X54516557Y-29521588D01*
X54420051Y-29332184D01*
X54420049Y-29332181D01*
X54420048Y-29332179D01*
X54295109Y-29160213D01*
X54181569Y-29046673D01*
X54148084Y-28985350D01*
X54153068Y-28915658D01*
X54194940Y-28859725D01*
X54225915Y-28842810D01*
X54357331Y-28793796D01*
X54472546Y-28707546D01*
X54558796Y-28592331D01*
X54609091Y-28457483D01*
X54615500Y-28397873D01*
X54615499Y-26602128D01*
X54609091Y-26542517D01*
X54558796Y-26407669D01*
X54558795Y-26407668D01*
X54558793Y-26407664D01*
X54472547Y-26292455D01*
X54472544Y-26292452D01*
X54357335Y-26206206D01*
X54357328Y-26206202D01*
X54222482Y-26155908D01*
X54222483Y-26155908D01*
X54162883Y-26149501D01*
X54162881Y-26149500D01*
X54162873Y-26149500D01*
X54162864Y-26149500D01*
X52367129Y-26149500D01*
X52367123Y-26149501D01*
X52307516Y-26155908D01*
X52172671Y-26206202D01*
X52172664Y-26206206D01*
X52057455Y-26292452D01*
X52057452Y-26292455D01*
X51971206Y-26407664D01*
X51971202Y-26407671D01*
X51920908Y-26542517D01*
X51914501Y-26602116D01*
X51914501Y-26602123D01*
X51914500Y-26602135D01*
X43210500Y-26602135D01*
X43210500Y-20778712D01*
X45559500Y-20778712D01*
X45559500Y-21021288D01*
X45591162Y-21261789D01*
X45595458Y-21277820D01*
X45653947Y-21496104D01*
X45746773Y-21720205D01*
X45746776Y-21720212D01*
X45868064Y-21930289D01*
X45868066Y-21930292D01*
X45868067Y-21930293D01*
X46015733Y-22122736D01*
X46015739Y-22122743D01*
X46187256Y-22294260D01*
X46187263Y-22294266D01*
X46300321Y-22381018D01*
X46379711Y-22441936D01*
X46589788Y-22563224D01*
X46813900Y-22656054D01*
X47048211Y-22718838D01*
X47228586Y-22742584D01*
X47288711Y-22750500D01*
X47288712Y-22750500D01*
X47531289Y-22750500D01*
X47579388Y-22744167D01*
X47771789Y-22718838D01*
X48006100Y-22656054D01*
X48230212Y-22563224D01*
X48440289Y-22441936D01*
X48632738Y-22294265D01*
X48804265Y-22122738D01*
X48951936Y-21930289D01*
X49073224Y-21720212D01*
X49166054Y-21496100D01*
X49228838Y-21261789D01*
X49260500Y-21021288D01*
X49260500Y-20778712D01*
X49228838Y-20538211D01*
X49208876Y-20463713D01*
X61569500Y-20463713D01*
X61569500Y-20676286D01*
X61602753Y-20886239D01*
X61668444Y-21088414D01*
X61764951Y-21277820D01*
X61889890Y-21449786D01*
X62040213Y-21600109D01*
X62212179Y-21725048D01*
X62212181Y-21725049D01*
X62212184Y-21725051D01*
X62401588Y-21821557D01*
X62603757Y-21887246D01*
X62813713Y-21920500D01*
X62813714Y-21920500D01*
X63026286Y-21920500D01*
X63026287Y-21920500D01*
X63236243Y-21887246D01*
X63438412Y-21821557D01*
X63627816Y-21725051D01*
X63649789Y-21709086D01*
X63799786Y-21600109D01*
X63799788Y-21600106D01*
X63799792Y-21600104D01*
X63950104Y-21449792D01*
X63950106Y-21449788D01*
X63950109Y-21449786D01*
X64075048Y-21277820D01*
X64075047Y-21277820D01*
X64075051Y-21277816D01*
X64171557Y-21088412D01*
X64237246Y-20886243D01*
X64270500Y-20676287D01*
X64270500Y-20463713D01*
X104769500Y-20463713D01*
X104769500Y-20676286D01*
X104802753Y-20886239D01*
X104868444Y-21088414D01*
X104964951Y-21277820D01*
X105089890Y-21449786D01*
X105240213Y-21600109D01*
X105412179Y-21725048D01*
X105412181Y-21725049D01*
X105412184Y-21725051D01*
X105601588Y-21821557D01*
X105803757Y-21887246D01*
X106013713Y-21920500D01*
X106013714Y-21920500D01*
X106226286Y-21920500D01*
X106226287Y-21920500D01*
X106436243Y-21887246D01*
X106638412Y-21821557D01*
X106827816Y-21725051D01*
X106849789Y-21709086D01*
X106999786Y-21600109D01*
X106999788Y-21600106D01*
X106999792Y-21600104D01*
X107150104Y-21449792D01*
X107150106Y-21449788D01*
X107150109Y-21449786D01*
X107275048Y-21277820D01*
X107275047Y-21277820D01*
X107275051Y-21277816D01*
X107371557Y-21088412D01*
X107437246Y-20886243D01*
X107470500Y-20676287D01*
X107470500Y-20463713D01*
X107437246Y-20253757D01*
X107371557Y-20051588D01*
X107275051Y-19862184D01*
X107275049Y-19862181D01*
X107275048Y-19862179D01*
X107150109Y-19690213D01*
X106999786Y-19539890D01*
X106827820Y-19414951D01*
X106638414Y-19318444D01*
X106638413Y-19318443D01*
X106638412Y-19318443D01*
X106436243Y-19252754D01*
X106436241Y-19252753D01*
X106436240Y-19252753D01*
X106274957Y-19227208D01*
X106226287Y-19219500D01*
X106013713Y-19219500D01*
X105965042Y-19227208D01*
X105803760Y-19252753D01*
X105601585Y-19318444D01*
X105412179Y-19414951D01*
X105240213Y-19539890D01*
X105089890Y-19690213D01*
X104964951Y-19862179D01*
X104868444Y-20051585D01*
X104802753Y-20253760D01*
X104769500Y-20463713D01*
X64270500Y-20463713D01*
X64237246Y-20253757D01*
X64171557Y-20051588D01*
X64075051Y-19862184D01*
X64075049Y-19862181D01*
X64075048Y-19862179D01*
X63950109Y-19690213D01*
X63799786Y-19539890D01*
X63627820Y-19414951D01*
X63438414Y-19318444D01*
X63438413Y-19318443D01*
X63438412Y-19318443D01*
X63236243Y-19252754D01*
X63236241Y-19252753D01*
X63236240Y-19252753D01*
X63074957Y-19227208D01*
X63026287Y-19219500D01*
X62813713Y-19219500D01*
X62765042Y-19227208D01*
X62603760Y-19252753D01*
X62401585Y-19318444D01*
X62212179Y-19414951D01*
X62040213Y-19539890D01*
X61889890Y-19690213D01*
X61764951Y-19862179D01*
X61668444Y-20051585D01*
X61602753Y-20253760D01*
X61569500Y-20463713D01*
X49208876Y-20463713D01*
X49166054Y-20303900D01*
X49073224Y-20079788D01*
X48951936Y-19869711D01*
X48804265Y-19677262D01*
X48804260Y-19677256D01*
X48632743Y-19505739D01*
X48632736Y-19505733D01*
X48440293Y-19358067D01*
X48440292Y-19358066D01*
X48440289Y-19358064D01*
X48230212Y-19236776D01*
X48188504Y-19219500D01*
X48006104Y-19143947D01*
X47771785Y-19081161D01*
X47531289Y-19049500D01*
X47531288Y-19049500D01*
X47288712Y-19049500D01*
X47288711Y-19049500D01*
X47048214Y-19081161D01*
X46813895Y-19143947D01*
X46589794Y-19236773D01*
X46589785Y-19236777D01*
X46379706Y-19358067D01*
X46187263Y-19505733D01*
X46187256Y-19505739D01*
X46015739Y-19677256D01*
X46015733Y-19677263D01*
X45868067Y-19869706D01*
X45746777Y-20079785D01*
X45746773Y-20079794D01*
X45653947Y-20303895D01*
X45591161Y-20538214D01*
X45572984Y-20676286D01*
X45559500Y-20778712D01*
X43210500Y-20778712D01*
X43210500Y-16824500D01*
X43230185Y-16757461D01*
X43282989Y-16711706D01*
X43334500Y-16700500D01*
X110145500Y-16700500D01*
X110212539Y-16720185D01*
G37*
%TD.AperFunction*%
%TD*%
M02*
