M48
; DRILL file KiCad 10.0.5 date 2026-08-12T02:30:00
; FORMAT={-:-/ absolute / metric / decimal}
; #@! TF.CreationDate,2026-08-12T02:30:00+02:00
; #@! TF.GenerationSoftware,Kicad,Pcbnew,10.0.5
; #@! TF.FileFunction,Plated,1,2,PTH
FMAT,2
METRIC
; #@! TA.AperFunction,Plated,PTH,ComponentDrill
T1C1.000
%
G90
G05
T1
X53.265Y-27.5
X53.265Y-30.04
X53.265Y-32.58
X53.265Y-35.12
X53.265Y-37.66
X74.738Y-23.52
X74.738Y-26.06
X74.738Y-28.6
X74.738Y-31.14
X74.738Y-33.68
X74.738Y-36.22
X74.738Y-38.76
X74.738Y-41.3
X74.738Y-43.84
X89.775Y-23.52
X89.775Y-26.06
X89.775Y-28.6
X89.775Y-31.14
X89.775Y-33.68
X89.775Y-36.22
X89.775Y-38.76
X89.775Y-41.3
X89.775Y-43.84
X107.075Y-24.79
X107.075Y-27.33
X107.075Y-29.87
X107.075Y-32.41
X107.075Y-34.95
X107.075Y-37.49
X107.075Y-40.03
X107.075Y-42.57
M30
